<?xml version="1.0" encoding="utf-8"?>
<!-- Generator: Adobe Illustrator 19.2.0, SVG Export Plug-In . SVG Version: 6.00 Build 0)  -->
<svg version="1.1" id="Layer_1" xmlns="http://www.w3.org/2000/svg" xmlns:xlink="http://www.w3.org/1999/xlink" x="0px" y="0px"
	 viewBox="0 0 145.7 136.5" style="enable-background:new 0 0 145.7 136.5;" xml:space="preserve">
<style type="text/css">
	.st0{clip-path:url(#SVGID_2_);}
	.st1{fill:#FFFFFF;}
	.st2{fill:none;stroke:#000000;stroke-width:0.25;stroke-linecap:round;stroke-miterlimit:10;}
	.st3{fill:none;stroke:#000000;stroke-width:0.25;stroke-linecap:round;stroke-miterlimit:10;stroke-dasharray:0.4975,1.4926;}
</style>
<g>
	<path d="M10.7,108.6c0.1,0.2,0.1,0.5,0.1,0.7s0,0.5,0,0.8H7.8c0-0.2,0-0.4,0-0.5c0-0.1-0.1-0.2-0.1-0.3c-0.1-0.2-0.2-0.3-0.4-0.5
		c0,0-0.1,0-0.1,0s0,0-0.1,0c-0.1-0.1-0.2-0.1-0.4-0.1c-0.2,0-0.3-0.1-0.5-0.1c-0.2,0-0.4,0-0.6,0c-0.2,0-0.4,0.1-0.5,0.2
		c-0.1,0-0.2,0.1-0.2,0.1c0,0-0.1,0.1-0.1,0.1c0,0,0,0-0.1,0.1c0,0-0.1,0.1-0.1,0.1c0,0-0.1,0.1-0.1,0.1c0,0,0,0.1,0,0.1s0,0,0,0
		c0,0,0,0,0,0v0c0,0-0.1,0.1-0.1,0.1c0,0.1,0,0.1-0.1,0.3c-0.1,0.2-0.1,0.5-0.1,0.9s0,0.8,0,1.2v4.1c0,0.4,0,0.8,0,1.2
		c0,0.4,0,0.7,0.1,0.9c0,0,0,0.1,0,0.1c0,0,0,0.1,0,0.1h0c0,0,0,0,0,0.1v0.1l0.1,0.1c0,0,0,0.1,0,0.1c0,0,0,0.1,0,0.1c0,0,0,0,0.1,0
		c0,0,0,0,0.1,0c0,0,0,0.1,0,0.1c0,0,0,0.1,0.1,0.1c0,0,0,0,0.1,0c0,0,0,0,0.1,0v0v0c0,0,0,0,0.1,0c0,0,0.1,0,0.1,0
		c0,0,0.1,0.1,0.1,0.1c0,0,0,0,0.1,0c0.1,0,0.1,0.1,0.2,0.1c0,0,0.1,0,0.1,0c0,0,0.1,0,0.2,0c0.3,0.1,0.6,0.1,1,0
		c0.3-0.1,0.6-0.2,0.8-0.4c0,0,0-0.1,0.1-0.1c0,0,0.1-0.1,0.1-0.1c0,0,0-0.1,0-0.1c0,0,0-0.1,0-0.1c0,0,0,0,0.1-0.1c0,0,0,0,0-0.1
		c0-0.1,0-0.1,0-0.2c0-0.1,0-0.1,0-0.2c0.1-0.3,0.1-0.7,0.1-1.2c0-0.5,0-0.9,0-1.4H6.5v-2.5h4.3v8.8c-0.2,0-0.3,0-0.4,0
		c-0.1,0-0.2,0-0.3,0c-0.1,0-0.1,0-0.1-0.1s0-0.1-0.1-0.1c0,0,0-0.1,0-0.1s0,0,0-0.1c0,0,0,0-0.1,0s0,0,0,0c0,0,0-0.1,0-0.1
		c0,0,0-0.1,0-0.1c0,0,0,0-0.1,0c0,0,0,0-0.1,0c0,0,0-0.1,0-0.1s0,0,0-0.1c0,0,0,0,0,0c0,0,0,0,0-0.1c-0.1,0-0.2,0.1-0.2,0.1
		C9.1,121,9.1,121,9,121.1c0,0.1-0.1,0.1-0.1,0.1H8.8H8.8c0,0-0.1,0.1-0.1,0.1c0,0-0.1,0-0.1,0.1c0,0-0.1,0-0.1,0s0,0-0.1,0
		c0,0-0.1,0-0.1,0.1c0,0,0,0-0.1,0c-0.1,0.1-0.2,0.1-0.4,0.1c-0.1,0-0.3,0.1-0.4,0.1c-0.1,0-0.2,0.1-0.4,0.1c-0.1,0-0.3,0-0.4,0.1
		c-0.5,0-1,0-1.5,0c-0.5-0.1-0.9-0.1-1.3-0.3c0,0-0.1,0-0.1,0c-0.1,0-0.1,0-0.2-0.1c-0.1,0-0.1-0.1-0.3-0.1c-0.1,0-0.2-0.1-0.3-0.1
		c0,0-0.1-0.1-0.1-0.1c0,0-0.1,0-0.1-0.1c-0.1,0-0.1-0.1-0.2-0.1C2.5,121,2.5,121,2.5,121c0,0-0.1-0.1-0.2-0.1s-0.2-0.1-0.2-0.1
		c0,0-0.1-0.1-0.1-0.1c0-0.1,0-0.1-0.1-0.2c0,0-0.1-0.1-0.1-0.1c0,0-0.1,0-0.1-0.1c0,0,0-0.1-0.1-0.1s0,0-0.1-0.1c0,0,0-0.1,0-0.1
		s0-0.1,0-0.1l-0.1-0.1v-0.1c-0.1-0.1-0.1-0.1-0.1-0.3c0-0.1,0-0.3,0-0.4c-0.1-0.5-0.1-1-0.1-1.6c0-0.6,0-1.2,0-1.8v-3.2
		c0-0.8,0-1.6,0-2.2s0.1-1.3,0.4-1.8c0,0,0-0.1,0.1-0.1c0,0,0-0.1,0.1-0.1c0-0.1,0-0.1,0.1-0.1c0,0,0.1-0.1,0.1-0.1
		c0,0,0-0.1,0.1-0.1c0,0,0,0,0.1-0.1c0,0,0,0,0-0.1s0,0,0-0.1h0.1c0.1-0.1,0.2-0.3,0.3-0.3c0.1-0.1,0.2-0.2,0.3-0.3
		c0.1-0.1,0.1-0.1,0.1-0.1c0,0,0.1-0.1,0.2-0.1c0,0,0,0,0-0.1c0,0,0,0,0.1-0.1c0,0,0.1,0,0.1,0c0,0,0,0,0.1,0c0,0,0,0,0,0
		c0,0,0,0,0,0h0.1c0,0,0.1,0,0.1,0c0,0,0,0,0-0.1c0,0,0.1,0,0.1,0c0,0,0.1,0,0.1,0c0.1-0.1,0.2-0.1,0.3-0.1c0.2-0.1,0.5-0.2,0.7-0.2
		c0.2,0,0.5-0.1,0.7-0.1c0.2,0,0.5-0.1,0.9-0.1c0.3,0,0.6,0,0.9,0.1h0.1c0,0,0.1,0.1,0.3,0.1c0.1,0,0.2,0,0.3,0.1c0,0,0,0,0,0
		s0,0,0.1,0c0.1,0,0.2,0,0.3,0.1c0.1,0.1,0.2,0.1,0.3,0.1h0.1h0.1v0.1h0.1v0.1h0.1v0.1h0.1v0v0c0,0,0,0,0.1,0s0,0,0.1,0v0v0h0.1v0.1
		c0,0,0.1,0.1,0.1,0.1c0,0,0.1,0,0.1,0.1c0,0,0,0,0,0c0,0,0,0,0,0c0.1,0,0.1,0.1,0.2,0.2c0.1,0.1,0.2,0.2,0.2,0.3
		c0.1,0,0.1,0.1,0.2,0.1c0.1,0,0.1,0.1,0.2,0.1v0.1c0,0,0,0.1,0.1,0.1v0.1c0,0,0.1,0.1,0.1,0.1s0,0.1,0.1,0.1c0,0,0.1,0.1,0.1,0.2
		C10.6,108.4,10.7,108.5,10.7,108.6z M2.3,112.3c0,0,0.1,0.1,0.2,0.2c0.1,0.1,0.1,0.1,0.2,0c-0.1,0-0.1-0.1-0.1-0.1
		c0-0.1,0-0.1,0-0.2s0-0.1,0-0.2c0-0.1,0-0.1,0-0.1H2.4C2.4,111.9,2.3,112.1,2.3,112.3z M2.6,111.4c0.1-0.1,0.1-0.1,0-0.2
		c0-0.1-0.1-0.1-0.2-0.1c-0.1,0.1-0.1,0.2-0.1,0.2C2.5,111.4,2.5,111.4,2.6,111.4z M3.1,112.7c-0.1,0.1-0.3,0.2-0.4,0.3
		c-0.2,0.1-0.2,0.2-0.2,0.4c0.2,0,0.3,0,0.4-0.1s0.2-0.1,0.4-0.1c0-0.1,0-0.1,0-0.2c0-0.1,0-0.2,0.1-0.2c0-0.1,0-0.2,0-0.2
		s0-0.1-0.1-0.2c0,0.1,0,0.2-0.1,0.2S3,112.6,3.1,112.7z M2.4,116.1c0.1,0,0.2,0,0.2-0.1c0-0.1,0-0.2,0.1-0.2
		C2.5,115.8,2.4,115.9,2.4,116.1z M2.5,109.5h0.2c0-0.1,0-0.2,0-0.2c0-0.1,0-0.1-0.1-0.2H2.5c0,0.1,0,0.2-0.1,0.2
		C2.4,109.4,2.4,109.4,2.5,109.5z M2.5,113.8c0,0.1,0,0.2,0.2,0.2c0.1,0,0.3,0,0.3-0.1c0-0.1,0-0.1-0.1-0.2c0,0,0-0.1,0-0.2
		c-0.1,0-0.2,0-0.2,0.1C2.6,113.8,2.6,113.9,2.5,113.8z M9.4,121.5c0.1,0,0.1,0,0.1,0c0,0,0,0.1,0,0.2s0,0.1,0,0.2s0,0.1-0.1,0.1
		c-0.1,0-0.1,0.1-0.2,0.1c-0.1,0-0.1,0.1-0.2,0.1c0,0.1,0,0.1-0.1,0.1c0,0-0.1,0-0.1,0c0,0,0,0-0.1,0.1c0,0,0,0-0.1,0H8.7
		c0,0-0.1,0.1-0.2,0.1c-0.1,0.1-0.3,0.1-0.5,0.1c-0.2,0-0.3,0.1-0.5,0.1H7.4c0,0-0.1,0-0.3,0.1c-0.1,0-0.3,0.1-0.6,0.1
		c-0.3,0-0.5,0-0.7,0c-0.1,0-0.2,0-0.3,0c-0.1,0-0.2,0-0.3,0c0,0-0.1,0-0.1,0s0,0-0.1,0c-0.1,0-0.2-0.1-0.4-0.1s-0.3,0-0.5-0.1
		c0,0,0,0,0,0s0,0-0.1,0c-0.1,0-0.2,0-0.3-0.1c-0.1,0-0.2-0.1-0.3-0.1H3.4v-0.1H3.4H3.3v-0.1H3.2v-0.1H3.1c0,0-0.1,0-0.1-0.1H3
		c0,0-0.1-0.1-0.1-0.1c0,0,0,0-0.1,0c0,0-0.1-0.1-0.2-0.1c-0.1,0-0.1-0.1-0.1-0.1c0,0,0-0.1,0-0.1c0,0,0-0.1,0-0.1
		c0-0.1,0-0.1,0-0.1s0.1,0.1,0.1,0c0.1,0.1,0.2,0.1,0.3,0.1c0.1,0,0.2,0.1,0.3,0.1c0,0,0,0,0,0c0,0,0,0,0,0h0.1c0,0,0.1,0,0.1,0.1
		c0.1,0,0.1,0.1,0.2,0.1s0.2,0,0.2,0.1c0,0,0,0,0,0s0,0,0,0c0.1,0,0.1,0,0.2,0.1c0,0,0.1,0,0.4,0.1c0.2,0,0.5,0.1,0.9,0.1
		c0.3,0,0.7,0,1,0c0.2,0,0.5-0.1,0.7-0.1s0.4-0.1,0.6-0.2C8,122,8.2,122,8.3,122c0.1,0,0.2-0.1,0.4-0.2c0,0,0,0,0,0c0,0,0,0,0,0
		c0,0,0.1,0,0.1-0.1c0,0,0.1-0.1,0.1-0.1c0,0,0.1,0,0.1,0c0,0,0.1,0,0.1,0c0.1,0,0.1,0,0.1,0C9.3,121.5,9.3,121.5,9.4,121.5z M3,115
		c0-0.1,0-0.1-0.1-0.1s-0.2,0-0.2,0c0,0.1,0,0.1,0,0.1c0,0,0.1,0.1,0.1,0.1c0.1,0,0.1,0,0.1,0C2.9,115.1,3,115,3,115z M3.1,108.9
		v-0.3H2.7C2.8,108.7,2.9,108.8,3.1,108.9z M2.9,117.6c0.1,0,0.2,0,0.2-0.1c0-0.1,0.1-0.1,0.1-0.2H2.8c0,0.1,0,0.1,0.1,0.2
		S2.9,117.5,2.9,117.6z M3,119.9c0.1,0,0.1,0,0.2,0.1c0.1,0.1,0.1,0,0.2,0c-0.1,0-0.1-0.1-0.1-0.2s0-0.1-0.1-0.2
		c0,0-0.1,0.1-0.1,0.1C3,119.9,3,119.9,3,119.9z M3,111.9c0.2,0,0.3,0,0.3-0.1c-0.1,0-0.1,0-0.2,0S3,111.8,3,111.9z M3.1,111.1v0.3
		c0.1,0,0.2-0.1,0.4-0.2c0.1-0.1,0.1-0.2,0-0.3c0,0.1-0.1,0.1-0.1,0.2C3.2,111.2,3.1,111.2,3.1,111.1z M3.1,109.3
		C3.1,109.4,3.1,109.4,3.1,109.3c0,0.1,0,0.1,0,0.2c0.2,0.1,0.2,0,0.3-0.1c0-0.1,0-0.2-0.1-0.3c0,0.1-0.1,0.1-0.1,0.1
		C3.2,109.2,3.1,109.2,3.1,109.3z M4.6,107.2c0-0.2,0-0.2-0.2-0.2C4.4,107.2,4.5,107.2,4.6,107.2z M6.7,109.5c0,0.1-0.1,0.1-0.3,0
		s-0.3,0-0.3,0c0,0-0.1,0.1-0.3,0.1c0,0,0,0.1-0.1,0.1c0,0-0.1,0-0.1,0.1c-0.1,0-0.1,0.1-0.1,0.1c0,0,0,0.1,0,0.1c0,0,0,0,0,0.1
		c0,0,0,0-0.1,0.1s0,0-0.1,0.1v0.1c0,0,0,0.1,0,0.1c0,0,0,0.1,0,0.1c-0.1,0.2-0.1,0.5-0.1,0.9c0,0.4,0,0.8,0,1.2v6
		c0,0.1,0,0.1,0,0.1c-0.1,0-0.1-0.1-0.1-0.1c-0.2-0.1-0.4-0.3-0.5-0.6v-3.7c0-0.7,0-1.3,0-2c0-0.7,0-1.2,0-1.7
		c0-0.2,0.1-0.4,0.2-0.7v-0.1h0.1c0,0,0-0.1,0-0.1c0,0,0-0.1,0-0.1c0,0,0,0,0.1,0c0,0,0.1,0,0.1,0v-0.1c0.1-0.1,0.2-0.2,0.4-0.3
		c0.2-0.1,0.3-0.2,0.5-0.2c0.1,0,0.2,0,0.3,0c0.2,0,0.3,0,0.5,0.1s0.2,0.2,0.2,0.3C6.8,109.4,6.8,109.4,6.7,109.5
		C6.8,109.5,6.8,109.5,6.7,109.5z M6.9,121.3c0-0.1,0-0.1-0.1-0.2c-0.1,0-0.1,0-0.2,0c0,0.1,0,0.1,0.1,0.2S6.8,121.3,6.9,121.3z
		 M7.6,114.2c0.1,0,0.2,0,0.3,0c0.1,0,0.1,0,0.1-0.2c0-0.1-0.1-0.1-0.2-0.1c-0.1,0-0.2,0-0.2,0c0,0,0,0.1,0,0.1S7.6,114.2,7.6,114.2
		z M7.6,107.4c0.2,0,0.3,0,0.3-0.1s-0.1-0.2-0.2-0.2c0,0.1,0,0.1,0,0.1C7.5,107.2,7.5,107.3,7.6,107.4z M7.6,120.9v0.2
		c0,0,0.1,0,0.1,0.1c0.1,0,0.1,0,0.2,0s0.1,0,0.2,0c0.1,0,0.1-0.1,0.1-0.1c0-0.1-0.1-0.2-0.3-0.2S7.6,120.9,7.6,120.9z M10.9,108.6
		c0-0.2,0-0.4-0.1-0.5c-0.1-0.1-0.1-0.2-0.2-0.3c0-0.1,0.1-0.1,0.1-0.1c0.1,0.1,0.1,0.1,0.1,0.1c0.1,0.1,0.2,0.3,0.4,0.5
		c0,0,0,0,0.1,0.1c0,0,0,0,0,0.1v0.1v0.1c0,0,0.1,0.1,0.1,0.2c0.1,0.1,0.1,0.2,0.1,0.2c0,0.1,0,0.2,0.1,0.3c0,0.1,0.1,0.2,0.1,0.3
		c0,0,0,0.1,0,0.1s0,0.1,0,0.1c0,0.1,0.1,0.3,0.1,0.6c0,0.3,0,0.5,0,0.8c-0.5,0-1.1,0-1.6,0c-0.6,0-1.1,0-1.7,0c0,0-0.1,0-0.2,0
		c-0.1,0-0.1,0-0.1-0.1c0-0.1,0-0.2,0-0.2c0,0,0.1-0.1,0.1-0.1c0,0,0.1,0,0.3-0.1c0.2-0.1,0.3-0.1,0.3-0.1c0.4,0,0.7,0,1.1,0
		c0.4,0,0.8,0,1.1,0c0.1-0.1,0.1-0.2,0.1-0.3s0-0.2-0.1-0.3c0-0.1,0-0.2,0-0.4c0-0.1,0-0.2-0.1-0.3v-0.1c-0.1-0.1-0.1-0.1,0-0.2
		C11,108.9,11,108.8,10.9,108.6z M8.3,108.1c0,0.1,0.1,0.2,0.4,0.2c0-0.1,0-0.1,0.1-0.1c0,0,0-0.1,0-0.2c-0.1,0-0.2,0-0.3,0.1
		C8.5,108.1,8.4,108.1,8.3,108.1z M8.5,119.6v0.2c0.1,0,0.2,0,0.3,0s0.1-0.1,0.1-0.2c-0.1,0-0.1-0.1-0.2-0.1S8.6,119.6,8.5,119.6z
		 M9,118.9L8.9,119c0,0-0.1,0-0.1,0.1s0,0-0.1,0.1c0,0-0.1,0-0.1,0c-0.1,0-0.1,0,0,0.1c0.1,0,0.2,0,0.3,0.1c0.1,0,0.2,0,0.3,0
		c0-0.1,0-0.2,0-0.3s0-0.2-0.1-0.2c0,0.1,0,0.1-0.1,0.1C9.1,118.8,9,118.8,9,118.9z M8.6,116.5c0,0.2,0.2,0.3,0.5,0.3
		c0,0,0.1-0.1,0.1-0.1c0,0,0.1-0.1,0.1-0.2c-0.1,0-0.1,0-0.2,0c-0.1,0-0.1,0-0.1-0.1c0,0-0.1,0-0.1,0C8.7,116.4,8.7,116.5,8.6,116.5
		z M9,118.4c-0.1,0-0.1-0.1-0.1-0.1c0-0.1-0.1-0.1-0.2-0.1c0,0.1,0,0.2,0.1,0.2C8.9,118.4,8.9,118.4,9,118.4z M8.9,115.3
		c0.2,0,0.3-0.1,0.3-0.3c0,0-0.1,0-0.1-0.1c0,0,0-0.1-0.1,0C8.9,114.9,8.9,115.1,8.9,115.3z M9.4,117.6c0-0.1,0.1-0.1,0.1-0.2
		c0-0.1,0.1-0.1,0.1-0.2H9.3C9.3,117.4,9.3,117.5,9.4,117.6z M9.5,116.5c0.2,0,0.3-0.1,0.2-0.3H9.5V116.5z M11.7,112.9
		c0,0.9,0,1.9,0.1,2.8s0.1,1.9,0.1,2.9c0,0.2,0,0.4,0,0.6c0,0.2,0,0.4,0,0.5l0,0l0,0v0.2c0,0.1,0,0.2,0,0.2c0,0,0,0.1,0,0.2
		c0,0,0,0.1,0,0.1c0,0,0,0.1,0,0.1l-0.1,0.1c0,0.1-0.1,0.2-0.1,0.2c0,0.1,0,0.2-0.1,0.2c0,0,0,0,0,0c0,0,0,0,0,0.1
		c0,0,0,0.1-0.1,0.1c0,0-0.1,0.1-0.1,0.2c-0.1,0-0.1-0.1-0.1-0.2s0-0.2,0-0.3c0-0.8,0-1.7,0-2.6c0-0.9,0-1.8,0-2.7
		c0-0.3,0-0.6,0-0.8c0-0.2,0-0.5,0-0.7c0-0.2,0-0.4,0-0.6s0-0.4,0.1-0.7c0,0,0.1-0.1,0.2-0.1S11.6,112.8,11.7,112.9
		C11.7,112.8,11.7,112.8,11.7,112.9C11.7,112.8,11.7,112.8,11.7,112.9z"/>
	<path d="M15.1,107.9L15.1,107.9l0.1-0.2c0,0,0.1,0,0.1-0.1c0,0,0.1-0.1,0.1-0.1c0-0.1,0.1-0.2,0.2-0.3c0.1-0.1,0.2-0.2,0.3-0.3
		c0,0,0,0,0-0.1c0,0,0,0,0,0h0.1c0,0,0.1-0.1,0.1-0.1s0-0.1,0.1-0.1h0.1c0.1-0.1,0.1-0.1,0.2-0.2s0.2-0.1,0.3-0.2
		c0.2-0.1,0.4-0.2,0.6-0.3c0.2-0.1,0.5-0.1,0.8-0.2c0,0,0.1,0,0.1,0c0,0,0.1,0,0.1,0c0.1,0,0.3-0.1,0.6-0.1c0.3,0,0.6,0,0.8,0
		c0.1,0,0.2,0,0.3,0.1c0.1,0,0.2,0.1,0.3,0.1s0.2,0.1,0.3,0.1c0,0,0.1,0,0.1,0s0.1,0,0.2,0.1c0,0,0,0,0.1,0c0,0,0,0,0.1,0.1
		c0,0,0.1,0,0.1,0c0,0,0,0,0.1,0c0,0,0.1,0,0.1,0c0,0,0,0,0.1,0.1h0.1c0,0,0.1,0.1,0.1,0.1c0.1,0,0.1,0,0.2,0.1c0,0,0.1,0,0.1,0.1
		c0,0,0,0,0.1,0.1h0.1v0.1c0,0,0,0,0.1,0c0,0,0.1,0,0.1,0c0,0,0,0,0,0s0,0,0,0.1c0,0,0.1,0,0.1,0c0,0,0,0,0.1,0c0,0,0,0,0,0.1
		s0,0,0,0.1c0.1,0.1,0.2,0.1,0.3,0.2c0.1,0.1,0.2,0.2,0.2,0.3c0,0,0.1,0.1,0.1,0.1c0,0,0.1,0.1,0.1,0.1c0,0,0,0.1,0.1,0.1
		c0,0,0,0.1,0.1,0.1c0,0,0,0,0.1,0.1v0.1v0.1h0.1v0.1v0.1h0.1v0.1c0,0,0,0,0,0c0,0,0,0,0,0.1l0,0.1h0c0,0.1,0.1,0.2,0.1,0.3
		c0,0.1,0,0.2,0,0.3c0.1,0.3,0.1,0.6,0.1,1c0,0.4,0,0.7,0,1.1c0,1.1,0,2.3,0,3.4c0,1.2,0,2.3,0,3.5c0,0.1,0,0.2,0,0.3
		c0,0.1,0,0.2-0.1,0.3c0,0.1,0,0.2-0.1,0.3c0,0.1-0.1,0.2-0.1,0.3c0,0,0,0.1,0,0.1c0,0,0,0.1,0,0.1c0,0,0,0.1-0.1,0.2
		c0,0,0,0-0.1,0.1c0,0,0,0,0,0.1c0,0,0,0.1,0,0.1c0,0,0,0,0,0.1c0,0,0,0.1-0.1,0.1s0,0-0.1,0.1c0,0,0,0-0.1,0c0,0,0,0-0.1,0.1
		c0,0,0,0,0,0.1s0,0.1,0,0.1c0,0-0.1,0.1-0.2,0.2c-0.1,0.1-0.2,0.1-0.2,0.1c0,0-0.1,0-0.1,0.1c0,0.1-0.1,0.1-0.1,0.1
		c0,0-0.1,0-0.1,0s0,0-0.1,0c0,0,0,0,0,0c0,0,0,0,0,0c0,0-0.1,0-0.1,0c0,0-0.1,0-0.1,0.1c0,0-0.1,0.1-0.1,0.1
		c-0.1,0-0.2,0.1-0.3,0.1c0,0-0.1,0-0.1,0s0,0,0,0.1c0,0,0,0-0.1,0s0,0-0.1,0c0,0-0.1,0.1-0.2,0.1H21c0,0-0.1,0.1-0.3,0.1
		c-0.2,0-0.3,0.1-0.4,0.1c-0.5,0.1-1,0.1-1.6,0.1c-0.6,0-1.1-0.1-1.5-0.3h-0.1v0v0c0,0,0,0-0.1,0c0,0,0,0-0.1,0c0,0-0.1-0.1-0.2-0.1
		c-0.1-0.1-0.2-0.1-0.2-0.1c0,0-0.1,0-0.1-0.1s0,0,0-0.1c-0.1,0-0.1,0-0.1,0c0,0-0.1,0-0.1-0.1c0,0,0,0,0,0c0,0,0,0,0,0
		c0,0-0.1,0-0.1-0.1c0,0-0.1-0.1-0.1-0.1c-0.1,0-0.1-0.1-0.2-0.1c0-0.1-0.1-0.1-0.1-0.2c0,0-0.1-0.1-0.1-0.1c-0.1,0-0.1-0.1-0.1-0.1
		c0,0,0-0.1,0-0.1c0,0,0,0,0-0.1c-0.1-0.1-0.1-0.1-0.1-0.1c0,0,0-0.1-0.1-0.1c0,0,0,0-0.1-0.1v-0.1v-0.1c0,0-0.1,0-0.1-0.1
		s0-0.1-0.1-0.1c0,0,0,0-0.1-0.1s0,0,0-0.1v-0.1l-0.1-0.2c0,0-0.1-0.1-0.1-0.1l-0.1-0.1c-0.1-0.4-0.1-0.8-0.1-1.2c0-0.4,0-0.8,0-1.2
		v-5c0-0.4,0-0.9,0-1.4c0-0.5,0-0.9,0.1-1.2c0-0.1,0-0.2,0-0.2c0-0.1,0-0.1,0-0.2c0-0.1,0-0.2,0.1-0.3v-0.1v-0.1h0.1v-0.1h0.1v-0.1
		c0,0,0.1,0,0.1-0.1C15,108,15.1,108,15.1,107.9C15.1,108,15.1,108,15.1,107.9z M15.2,108.3c0.1,0,0.1-0.1,0.1-0.2
		c0-0.1-0.1-0.1-0.2-0.1c0,0.1-0.1,0.1-0.1,0.2C15.1,108.3,15.1,108.3,15.2,108.3z M15.3,118.5c0,0.1,0,0.1,0,0.1c0,0,0.1,0,0,0.1
		c0.2,0,0.3-0.1,0.3-0.3c-0.1-0.1-0.1-0.1-0.2,0S15.4,118.5,15.3,118.5z M15.5,108.6c0.1,0,0.2,0,0.2-0.1s-0.1-0.2-0.2-0.1V108.6z
		 M15.6,117.9l0.1,0.1c0,0.1,0.1,0.1,0.1,0.1h0.1h0.1c0.1,0.1,0.1,0.1,0.3,0.1c0.1,0,0.2-0.1,0.2-0.2c-0.1,0-0.2,0-0.3,0
		c-0.1,0-0.1-0.1-0.1-0.2c0-0.1-0.1-0.1-0.1-0.2c0-0.1-0.1-0.1-0.2-0.1c0,0.1,0,0.2,0,0.3C15.6,117.8,15.6,117.9,15.6,117.9z
		 M15.8,116.1c0-0.1,0-0.2,0.1-0.2c0-0.1,0-0.1-0.1-0.2h-0.2C15.6,116,15.6,116.1,15.8,116.1z M15.7,112.7c0.1,0.1,0.3,0.1,0.4,0
		c0.1-0.1,0.2-0.2,0.2-0.3c-0.1,0-0.3,0-0.4,0C15.7,112.4,15.7,112.5,15.7,112.7z M16.2,111.7c0-0.2-0.1-0.2-0.3-0.2
		c0,0.1,0,0.2,0.1,0.2C16,111.7,16.1,111.7,16.2,111.7z M16.1,118.6c0,0.1,0,0.1-0.1,0.2c0,0.1,0,0.1,0,0.2c0,0-0.1,0-0.1-0.1
		c0,0-0.1,0-0.1-0.1c0,0.2,0,0.3,0.2,0.3c0.1,0,0.3,0.1,0.3,0.2c0-0.1,0-0.2,0.1-0.2c0-0.1,0-0.2,0-0.2c0,0,0-0.1,0-0.2
		c0.1,0,0.1-0.1,0.1-0.2c0.1-0.1,0.1-0.1,0.2-0.2c0.1-0.1,0.1-0.2,0.1-0.3h-0.3c0,0.2,0,0.3-0.1,0.3
		C16.3,118.6,16.2,118.6,16.1,118.6z M15.8,119.8C15.8,119.8,15.9,119.9,15.8,119.8c0,0.1,0.1,0.1,0.1,0.1c0,0.1,0.1,0.1,0.2,0.1
		c0.1,0,0.2,0,0.3,0c0-0.1,0-0.2-0.2-0.3C16,119.7,15.9,119.8,15.8,119.8z M16,116.9c0.1,0,0.2,0,0.2-0.1c-0.1,0-0.1,0-0.1-0.1
		s0-0.1-0.1-0.1c0,0.1,0,0.1,0,0.1S15.9,116.8,16,116.9z M16.2,115c0-0.1,0-0.1-0.1-0.1c-0.1,0-0.1,0-0.2,0C16,115,16,115,16.2,115z
		 M23.8,107.9C23.9,107.9,23.9,108,23.8,107.9c0.1,0.2,0.2,0.2,0.3,0.3c0.1,0.1,0.1,0.2,0.2,0.3c0.1,0.1,0.1,0.2,0.2,0.3
		c0.1,0.1,0.1,0.2,0.1,0.3v0.1v0.1h0.1c0,0.1,0,0.2,0,0.3s0,0.2,0,0.3c0.1,0.2,0.1,0.6,0.1,1s0,0.9,0,1.3v4.5c0,0.5,0,1,0,1.4
		c0,0.5,0,0.8-0.1,1.1c0,0,0,0,0,0.1s0,0,0,0.1h0h0c0,0,0,0.1,0,0.1c0,0.1,0,0.1,0,0.1c0,0,0,0-0.1,0c0,0,0,0,0,0v0.1v0.1h-0.1v0.1
		v0.1h-0.1c0,0,0,0,0,0.1c0,0,0,0,0,0.1c0,0-0.1,0.1-0.1,0.1c0,0-0.1,0.1-0.1,0.1l-0.1,0.2c0,0,0,0-0.1,0c0,0,0,0,0,0c0,0,0,0,0,0.1
		c0,0,0,0,0,0.1h0h0v0.1c0,0-0.1,0-0.1,0.1c0,0-0.1,0.1-0.1,0.1c0,0,0,0.1-0.1,0.2c-0.1,0.1-0.1,0.2-0.2,0.2
		c-0.1,0.1-0.1,0.1-0.2,0.2c-0.1,0.1-0.1,0.1-0.2,0.1c0,0,0,0,0,0s0,0-0.1,0c0,0-0.1,0.1-0.1,0.1c0,0,0,0-0.1,0.1c0,0-0.1,0-0.1,0.1
		c0,0-0.1,0-0.1,0.1s-0.1,0-0.1,0.1l-0.1,0.1c0,0-0.1,0-0.1,0.1c0,0-0.1,0-0.1,0c0,0,0,0-0.1,0s0,0-0.1,0c0,0-0.1,0-0.1,0.1
		c0,0-0.1,0-0.1,0.1s-0.1,0-0.1,0c0,0-0.1,0-0.1,0c0,0,0,0,0,0c0,0,0,0,0,0h-0.1c-0.1,0-0.1,0.1-0.2,0.1c0,0-0.1,0-0.2,0.1
		s-0.1,0.1-0.2,0.1c-0.1,0-0.2,0.1-0.3,0.1s-0.2,0-0.3,0.1h-0.1c-0.1,0-0.3,0.1-0.6,0.1c-0.2,0-0.5,0-0.7,0c-0.2,0-0.3,0-0.4,0
		c-0.1,0-0.3,0-0.4,0c0,0-0.1,0-0.1,0c0,0,0,0-0.1,0c-0.1,0-0.1-0.1-0.2-0.1h-0.1c0,0-0.1,0-0.1,0c0,0-0.1,0-0.1,0v-0.1
		c-0.1,0-0.2-0.1-0.2-0.1c-0.1,0-0.1,0-0.2-0.1c0,0,0-0.1-0.1-0.1h-0.1c0,0,0,0,0,0c0,0,0,0,0,0c0,0-0.1,0-0.1,0c0,0-0.1,0-0.1,0
		c0,0,0,0,0,0c0,0,0,0,0,0c0,0-0.1,0-0.1,0c-0.1,0-0.1-0.1-0.1-0.2c0.2-0.1,0.4-0.2,0.6-0.2s0.4,0,0.6,0.1c0.1,0,0.1,0,0.2,0.1
		c0.1,0,0.1,0,0.2,0.1c0.1,0,0.3,0,0.5,0c0.2,0,0.3,0,0.5,0c0.2,0,0.4,0,0.6,0c0.2,0,0.4,0,0.6,0c0.2,0,0.3-0.1,0.5-0.1
		s0.3-0.1,0.5-0.2c0.3-0.1,0.6-0.2,0.8-0.3s0.4-0.2,0.7-0.4c0.3-0.3,0.6-0.7,0.9-1.2c0,0,0.1-0.1,0.1-0.2c0,0,0,0,0,0c0,0,0,0,0,0
		c0,0,0-0.1,0.1-0.1c0,0,0.1-0.1,0.1-0.1c0,0,0-0.1,0.1-0.1c0,0,0.1-0.1,0.1-0.1v-0.1c0-0.1,0.1-0.3,0.1-0.5s0-0.4,0-0.6
		s0-0.5,0-0.7c0-0.2,0-0.4,0-0.6v-2.3c0-0.8,0-1.6,0-2.4c0-0.8,0-1.5,0-2.1c0-0.1,0-0.2,0-0.3c0-0.1,0-0.2,0-0.3l0,0c0,0,0,0,0,0
		c0-0.1,0-0.1,0-0.2c0-0.1,0-0.2,0-0.3c0-0.2-0.1-0.3-0.1-0.5c0-0.1,0-0.3-0.1-0.4h0.1V107.9z M16.6,119.8h0.4c0-0.1,0-0.1,0-0.2
		c0,0,0.1-0.1,0.1-0.1c-0.1-0.1-0.2-0.1-0.4,0C16.6,119.5,16.5,119.6,16.6,119.8z M17.3,120.5c0-0.1-0.1-0.1-0.2-0.1
		c-0.1,0-0.2,0-0.4,0c0,0.1,0.1,0.2,0.3,0.3C17.2,120.7,17.3,120.6,17.3,120.5z M18.6,108.6h-0.1c0,0,0,0-0.1,0.1c0,0,0,0-0.1,0.1
		c0,0-0.1,0-0.1,0s-0.1,0-0.1,0l-0.1,0.1c0,0,0,0-0.1,0c0,0,0,0,0,0.1c0,0,0,0,0,0c0,0,0,0,0,0c0,0,0,0.1,0,0.1s0,0.1,0,0.1
		c0,0,0,0-0.1,0c0,0,0,0,0,0.1c0,0.1-0.1,0.1-0.1,0.2c0,0.1-0.1,0.1-0.1,0.2c0,0.1-0.1,0.2-0.1,0.3c0,0.1,0,0.2,0,0.2
		c-0.1,0.3-0.1,0.7-0.1,1.1c0,0.4,0,0.9,0,1.3c0,0.7,0,1.5,0,2.4s0,1.6,0,2.4c0,0.1,0,0.3,0,0.5c0,0.2,0,0.3,0.1,0.3v0.1
		c0,0.1,0.1,0.3,0.1,0.3c0,0.1,0.1,0.2,0.2,0.3c0.1,0.1,0.2,0.2,0.2,0.2c0,0,0.1,0,0.1,0s0,0,0,0c0.1,0.1,0.2,0.1,0.3,0.1h0.1l0.1,0
		v0c0,0,0.1,0,0.1,0c0.1,0,0.1,0,0.2,0c0,0,0.1,0,0.1,0c0,0,0.1,0,0.1,0c0,0,0.1,0,0.1,0c0,0,0,0,0.1,0c0.2,0,0.3,0,0.3-0.1
		c0,0,0.1,0,0.1,0s0,0,0.1,0c0.1,0,0.1,0,0.2-0.1c0,0,0.1-0.1,0.1-0.1s0.1-0.1,0.2-0.1c0.1,0,0.1-0.1,0.1-0.1c0,0,0,0,0,0
		c0,0,0,0,0,0c0.1-0.2,0.2-0.5,0.3-0.8c0-0.3,0.1-0.6,0.1-1c0-1.1,0-2,0-3c0-0.9,0-1.9,0-3c0-0.2,0-0.5,0-0.7s0-0.5-0.1-0.7
		c0-0.2-0.1-0.2-0.1-0.3v-0.1c0,0,0-0.1,0-0.1s0,0-0.1,0v-0.1c0,0-0.1-0.1-0.2-0.2c-0.1-0.1-0.2-0.2-0.2-0.2c0,0-0.1,0-0.1,0
		c0,0-0.1,0-0.1,0v-0.1h-0.1c-0.1,0-0.2-0.1-0.4-0.1c-0.2,0-0.3,0-0.3,0l-0.1,0c0,0,0,0,0,0C18.7,108.6,18.6,108.6,18.6,108.6z
		 M18,120.7c0-0.1,0-0.1-0.1-0.2c-0.1,0-0.1,0-0.2,0c0,0.1,0,0.2,0.1,0.2C17.9,120.7,18,120.7,18,120.7z M19.8,109.4
		c-0.1,0-0.1,0-0.2,0s-0.2,0-0.2,0v0c0,0,0,0-0.1,0c0,0,0,0-0.1,0s0,0-0.1,0c-0.1,0.1-0.2,0.2-0.3,0.3s-0.2,0.3-0.2,0.5
		c0,0,0,0.1,0,0.1c0,0,0,0.1,0,0.1c-0.1,0.2-0.1,0.5-0.1,0.9c0,0.4,0,0.8,0,1.2v1.9c0,0.7,0,1.4,0,2.1c0,0.7,0,1.2,0.1,1.8
		c-0.1,0-0.2-0.1-0.3-0.1s-0.2-0.1-0.3-0.1v-5.8c0-0.4,0-0.7,0-1c0-0.3,0-0.6,0-0.9c0-0.1,0.1-0.3,0.1-0.5c0.1-0.2,0.1-0.3,0.2-0.5
		c0-0.1,0.1-0.1,0.1-0.2c0.1-0.1,0.1-0.1,0.2-0.2c0.1-0.1,0.2-0.2,0.3-0.2c0,0,0.1,0,0.1-0.1c0,0,0.1,0,0.1-0.1c0,0,0.1,0,0.1,0
		c0,0,0.1,0,0.1,0c0.1,0,0.1,0,0.1,0s0,0,0,0c0.1,0,0.1,0.1,0.1,0.1c0,0.1,0,0.1,0.1,0.2c0,0,0.1,0,0.1,0.1c0,0,0,0.1,0.1,0.1
		C19.9,109.4,19.9,109.4,19.8,109.4z M20.2,120.7c0.1,0,0.1,0,0.1-0.1c0-0.1,0-0.1-0.1-0.1V120.7z M21.4,108.3c0,0.1,0,0.2,0,0.3
		c0,0.1,0.1,0.1,0.2,0.1c0-0.1,0.1-0.1,0.1-0.2c0-0.1,0.1-0.1,0.1-0.2C21.5,108.3,21.4,108.3,21.4,108.3z M21.6,111.1
		c0.1,0,0.1,0,0.2,0.1c0,0.1,0.1,0.1,0.2,0.1c0.1-0.1,0.1-0.2,0-0.3s-0.2-0.2-0.2-0.2c0,0.1,0,0.1,0,0.1c0,0,0,0-0.1,0.1
		s-0.1,0-0.1,0.1C21.6,111,21.6,111,21.6,111.1z M21.7,109.8c-0.1,0.1,0,0.1,0,0.1c0.1,0,0.1,0.1,0.2,0.1c0.2,0.1,0.3,0.1,0.5,0.1
		c0-0.2-0.1-0.3-0.3-0.3S21.8,109.8,21.7,109.8z M22,119.3c0.2,0,0.3,0,0.3-0.2c-0.1-0.1-0.2-0.1-0.3,0S22,119.1,22,119.3z
		 M22.4,113.3c0-0.3-0.1-0.4-0.3-0.4c0,0.1,0,0.2,0.1,0.3C22.3,113.3,22.3,113.3,22.4,113.3z M22.5,114.6
		C22.5,114.5,22.5,114.5,22.5,114.6c-0.1-0.1-0.1-0.1-0.2-0.1c0,0-0.1,0-0.1-0.1c0,0-0.1,0-0.1,0c0,0.1,0,0.2,0.1,0.2
		C22.3,114.6,22.4,114.6,22.5,114.6z M22.2,108.7h0.5c0-0.2,0-0.3,0.1-0.3c0.1-0.1,0.1-0.1,0-0.2c0,0-0.1-0.1-0.2-0.1
		c0,0.2,0,0.3-0.1,0.3S22.2,108.6,22.2,108.7z M22.3,112.2c0.1,0,0.1,0,0.1,0c0,0,0.1,0,0.1,0c0-0.2-0.1-0.3-0.3-0.3
		C22.3,112.1,22.3,112.2,22.3,112.2z"/>
	<path d="M27.7,107.9L27.7,107.9l0.1-0.2c0,0,0.1,0,0.1-0.1c0,0,0.1-0.1,0.1-0.1c0-0.1,0.1-0.2,0.2-0.3c0.1-0.1,0.2-0.2,0.3-0.3
		c0,0,0,0,0-0.1c0,0,0,0,0,0h0.1c0,0,0.1-0.1,0.1-0.1s0-0.1,0.1-0.1h0.1c0.1-0.1,0.1-0.1,0.2-0.2s0.2-0.1,0.3-0.2
		c0.2-0.1,0.4-0.2,0.6-0.3c0.2-0.1,0.5-0.1,0.8-0.2c0,0,0.1,0,0.1,0c0,0,0.1,0,0.1,0c0.1,0,0.3-0.1,0.6-0.1c0.3,0,0.6,0,0.8,0
		c0.1,0,0.2,0,0.3,0.1c0.1,0,0.2,0.1,0.3,0.1s0.2,0.1,0.3,0.1c0,0,0.1,0,0.1,0s0.1,0,0.2,0.1c0,0,0,0,0.1,0c0,0,0,0,0.1,0.1
		c0,0,0.1,0,0.1,0c0,0,0,0,0.1,0c0,0,0.1,0,0.1,0c0,0,0,0,0.1,0.1h0.1c0,0,0.1,0.1,0.1,0.1c0.1,0,0.1,0,0.2,0.1c0,0,0.1,0,0.1,0.1
		c0,0,0,0,0.1,0.1h0.1v0.1c0,0,0,0,0.1,0c0,0,0.1,0,0.1,0c0,0,0,0,0,0s0,0,0,0.1c0,0,0.1,0,0.1,0c0,0,0,0,0.1,0c0,0,0,0,0,0.1
		s0,0,0,0.1c0.1,0.1,0.2,0.1,0.3,0.2c0.1,0.1,0.2,0.2,0.2,0.3c0,0,0.1,0.1,0.1,0.1c0,0,0.1,0.1,0.1,0.1c0,0,0,0.1,0.1,0.1
		c0,0,0,0.1,0.1,0.1c0,0,0,0,0.1,0.1v0.1v0.1H36v0.1v0.1H36v0.1c0,0,0,0,0,0c0,0,0,0,0,0.1l0,0.1h0c0,0.1,0.1,0.2,0.1,0.3
		c0,0.1,0,0.2,0,0.3c0.1,0.3,0.1,0.6,0.1,1c0,0.4,0,0.7,0,1.1c0,1.1,0,2.3,0,3.4c0,1.2,0,2.3,0,3.5c0,0.1,0,0.2,0,0.3
		c0,0.1,0,0.2-0.1,0.3c0,0.1,0,0.2-0.1,0.3c0,0.1-0.1,0.2-0.1,0.3c0,0,0,0.1,0,0.1c0,0,0,0.1,0,0.1c0,0,0,0.1-0.1,0.2
		c0,0,0,0-0.1,0.1c0,0,0,0,0,0.1c0,0,0,0.1,0,0.1c0,0,0,0,0,0.1c0,0,0,0.1-0.1,0.1s0,0-0.1,0.1c0,0,0,0-0.1,0c0,0,0,0-0.1,0.1
		c0,0,0,0,0,0.1s0,0.1,0,0.1c0,0-0.1,0.1-0.2,0.2c-0.1,0.1-0.2,0.1-0.2,0.1c0,0-0.1,0-0.1,0.1c0,0.1-0.1,0.1-0.1,0.1
		c0,0-0.1,0-0.1,0s0,0-0.1,0c0,0,0,0,0,0c0,0,0,0,0,0c0,0-0.1,0-0.1,0c0,0-0.1,0-0.1,0.1c0,0-0.1,0.1-0.1,0.1
		c-0.1,0-0.2,0.1-0.3,0.1c0,0-0.1,0-0.1,0s0,0,0,0.1c0,0,0,0-0.1,0s0,0-0.1,0c0,0-0.1,0.1-0.2,0.1h-0.1c0,0-0.1,0.1-0.3,0.1
		c-0.2,0-0.3,0.1-0.4,0.1c-0.5,0.1-1,0.1-1.6,0.1c-0.6,0-1.1-0.1-1.5-0.3h-0.1v0v0c0,0,0,0-0.1,0c0,0,0,0-0.1,0c0,0-0.1-0.1-0.2-0.1
		c-0.1-0.1-0.2-0.1-0.2-0.1c0,0-0.1,0-0.1-0.1s0,0,0-0.1c-0.1,0-0.1,0-0.1,0c0,0-0.1,0-0.1-0.1c0,0,0,0,0,0c0,0,0,0,0,0
		c0,0-0.1,0-0.1-0.1c0,0-0.1-0.1-0.1-0.1c-0.1,0-0.1-0.1-0.2-0.1c0-0.1-0.1-0.1-0.1-0.2c0,0-0.1-0.1-0.1-0.1c-0.1,0-0.1-0.1-0.1-0.1
		c0,0,0-0.1,0-0.1c0,0,0,0,0-0.1c-0.1-0.1-0.1-0.1-0.1-0.1c0,0,0-0.1-0.1-0.1c0,0,0,0-0.1-0.1v-0.1v-0.1c0,0-0.1,0-0.1-0.1
		s0-0.1-0.1-0.1c0,0,0,0-0.1-0.1s0,0,0-0.1v-0.1l-0.1-0.2c0,0-0.1-0.1-0.1-0.1l-0.1-0.1c-0.1-0.4-0.1-0.8-0.1-1.2c0-0.4,0-0.8,0-1.2
		v-5c0-0.4,0-0.9,0-1.4c0-0.5,0-0.9,0.1-1.2c0-0.1,0-0.2,0-0.2c0-0.1,0-0.1,0-0.2c0-0.1,0-0.2,0.1-0.3v-0.1v-0.1h0.1v-0.1h0.1v-0.1
		c0,0,0.1,0,0.1-0.1C27.7,108,27.7,108,27.7,107.9C27.7,108,27.7,108,27.7,107.9z M27.8,108.3c0.1,0,0.1-0.1,0.1-0.2
		c0-0.1-0.1-0.1-0.2-0.1c0,0.1-0.1,0.1-0.1,0.2C27.7,108.3,27.7,108.3,27.8,108.3z M28,118.5c0,0.1,0,0.1,0,0.1c0,0,0.1,0,0,0.1
		c0.2,0,0.3-0.1,0.3-0.3c-0.1-0.1-0.1-0.1-0.2,0S28.1,118.5,28,118.5z M28.1,108.6c0.1,0,0.2,0,0.2-0.1s-0.1-0.2-0.2-0.1V108.6z
		 M28.2,117.9l0.1,0.1c0,0.1,0.1,0.1,0.1,0.1h0.1h0.1c0.1,0.1,0.1,0.1,0.3,0.1c0.1,0,0.2-0.1,0.2-0.2c-0.1,0-0.2,0-0.3,0
		c-0.1,0-0.1-0.1-0.1-0.2c0-0.1-0.1-0.1-0.1-0.2c0-0.1-0.1-0.1-0.2-0.1c0,0.1,0,0.2,0,0.3C28.2,117.8,28.2,117.9,28.2,117.9z
		 M28.4,116.1c0-0.1,0-0.2,0.1-0.2c0-0.1,0-0.1-0.1-0.2h-0.2C28.2,116,28.3,116.1,28.4,116.1z M28.3,112.7c0.1,0.1,0.3,0.1,0.4,0
		c0.1-0.1,0.2-0.2,0.2-0.3c-0.1,0-0.3,0-0.4,0C28.4,112.4,28.3,112.5,28.3,112.7z M28.8,111.7c0-0.2-0.1-0.2-0.3-0.2
		c0,0.1,0,0.2,0.1,0.2C28.6,111.7,28.7,111.7,28.8,111.7z M28.7,118.6c0,0.1,0,0.1-0.1,0.2c0,0.1,0,0.1,0,0.2c0,0-0.1,0-0.1-0.1
		c0,0-0.1,0-0.1-0.1c0,0.2,0,0.3,0.2,0.3c0.1,0,0.3,0.1,0.3,0.2c0-0.1,0-0.2,0.1-0.2c0-0.1,0-0.2,0-0.2c0,0,0-0.1,0-0.2
		c0.1,0,0.1-0.1,0.1-0.2c0.1-0.1,0.1-0.1,0.2-0.2c0.1-0.1,0.1-0.2,0.1-0.3h-0.3c0,0.2,0,0.3-0.1,0.3
		C28.9,118.6,28.8,118.6,28.7,118.6z M28.4,119.8C28.5,119.8,28.5,119.9,28.4,119.8c0,0.1,0.1,0.1,0.1,0.1c0,0.1,0.1,0.1,0.2,0.1
		c0.1,0,0.2,0,0.3,0c0-0.1,0-0.2-0.2-0.3C28.7,119.7,28.5,119.8,28.4,119.8z M28.6,116.9c0.1,0,0.2,0,0.2-0.1c-0.1,0-0.1,0-0.1-0.1
		s0-0.1-0.1-0.1c0,0.1,0,0.1,0,0.1S28.6,116.8,28.6,116.9z M28.8,115c0-0.1,0-0.1-0.1-0.1c-0.1,0-0.1,0-0.2,0
		C28.6,115,28.7,115,28.8,115z M36.4,107.9C36.5,107.9,36.5,108,36.4,107.9c0.1,0.2,0.2,0.2,0.3,0.3c0.1,0.1,0.1,0.2,0.2,0.3
		c0.1,0.1,0.1,0.2,0.2,0.3c0.1,0.1,0.1,0.2,0.1,0.3v0.1v0.1h0.1c0,0.1,0,0.2,0,0.3s0,0.2,0,0.3c0.1,0.2,0.1,0.6,0.1,1s0,0.9,0,1.3
		v4.5c0,0.5,0,1,0,1.4c0,0.5,0,0.8-0.1,1.1c0,0,0,0,0,0.1s0,0,0,0.1h0h0c0,0,0,0.1,0,0.1c0,0.1,0,0.1,0,0.1c0,0,0,0-0.1,0
		c0,0,0,0,0,0v0.1v0.1h-0.1v0.1v0.1h-0.1c0,0,0,0,0,0.1c0,0,0,0,0,0.1c0,0-0.1,0.1-0.1,0.1c0,0-0.1,0.1-0.1,0.1l-0.1,0.2
		c0,0,0,0-0.1,0c0,0,0,0,0,0c0,0,0,0,0,0.1c0,0,0,0,0,0.1h0h0v0.1c0,0-0.1,0-0.1,0.1c0,0-0.1,0.1-0.1,0.1c0,0,0,0.1-0.1,0.2
		c-0.1,0.1-0.1,0.2-0.2,0.2c-0.1,0.1-0.1,0.1-0.2,0.2c-0.1,0.1-0.1,0.1-0.2,0.1c0,0,0,0,0,0s0,0-0.1,0c0,0-0.1,0.1-0.1,0.1
		c0,0,0,0-0.1,0.1c0,0-0.1,0-0.1,0.1c0,0-0.1,0-0.1,0.1s-0.1,0-0.1,0.1L35,122c0,0-0.1,0-0.1,0.1c0,0-0.1,0-0.1,0c0,0,0,0-0.1,0
		s0,0-0.1,0c0,0-0.1,0-0.1,0.1c0,0-0.1,0-0.1,0.1s-0.1,0-0.1,0c0,0-0.1,0-0.1,0c0,0,0,0,0,0c0,0,0,0,0,0h-0.1
		c-0.1,0-0.1,0.1-0.2,0.1c0,0-0.1,0-0.2,0.1s-0.1,0.1-0.2,0.1c-0.1,0-0.2,0.1-0.3,0.1s-0.2,0-0.3,0.1h-0.1c-0.1,0-0.3,0.1-0.6,0.1
		c-0.2,0-0.5,0-0.7,0c-0.2,0-0.3,0-0.4,0c-0.1,0-0.3,0-0.4,0c0,0-0.1,0-0.1,0c0,0,0,0-0.1,0c-0.1,0-0.1-0.1-0.2-0.1h-0.1
		c0,0-0.1,0-0.1,0c0,0-0.1,0-0.1,0v-0.1c-0.1,0-0.2-0.1-0.2-0.1c-0.1,0-0.1,0-0.2-0.1c0,0,0-0.1-0.1-0.1h-0.1c0,0,0,0,0,0
		c0,0,0,0,0,0c0,0-0.1,0-0.1,0c0,0-0.1,0-0.1,0c0,0,0,0,0,0c0,0,0,0,0,0c0,0-0.1,0-0.1,0c-0.1,0-0.1-0.1-0.1-0.2
		c0.2-0.1,0.4-0.2,0.6-0.2s0.4,0,0.6,0.1c0.1,0,0.1,0,0.2,0.1c0.1,0,0.1,0,0.2,0.1c0.1,0,0.3,0,0.5,0c0.2,0,0.3,0,0.5,0
		c0.2,0,0.4,0,0.6,0c0.2,0,0.4,0,0.6,0c0.2,0,0.3-0.1,0.5-0.1s0.3-0.1,0.5-0.2c0.3-0.1,0.6-0.2,0.8-0.3s0.4-0.2,0.7-0.4
		c0.3-0.3,0.6-0.7,0.9-1.2c0,0,0.1-0.1,0.1-0.2c0,0,0,0,0,0c0,0,0,0,0,0c0,0,0-0.1,0.1-0.1c0,0,0.1-0.1,0.1-0.1c0,0,0-0.1,0.1-0.1
		c0,0,0.1-0.1,0.1-0.1v-0.1c0-0.1,0.1-0.3,0.1-0.5s0-0.4,0-0.6s0-0.5,0-0.7c0-0.2,0-0.4,0-0.6v-2.3c0-0.8,0-1.6,0-2.4
		c0-0.8,0-1.5,0-2.1c0-0.1,0-0.2,0-0.3c0-0.1,0-0.2,0-0.3l0,0c0,0,0,0,0,0c0-0.1,0-0.1,0-0.2c0-0.1,0-0.2,0-0.3
		c0-0.2-0.1-0.3-0.1-0.5c0-0.1,0-0.3-0.1-0.4h0.1V107.9z M29.2,119.8h0.4c0-0.1,0-0.1,0-0.2c0,0,0.1-0.1,0.1-0.1
		c-0.1-0.1-0.2-0.1-0.4,0C29.2,119.5,29.1,119.6,29.2,119.8z M30,120.5c0-0.1-0.1-0.1-0.2-0.1c-0.1,0-0.2,0-0.4,0
		c0,0.1,0.1,0.2,0.3,0.3C29.8,120.7,29.9,120.6,30,120.5z M31.2,108.6h-0.1c0,0,0,0-0.1,0.1c0,0,0,0-0.1,0.1c0,0-0.1,0-0.1,0
		s-0.1,0-0.1,0l-0.1,0.1c0,0,0,0-0.1,0c0,0,0,0,0,0.1c0,0,0,0,0,0c0,0,0,0,0,0c0,0,0,0.1,0,0.1s0,0.1,0,0.1c0,0,0,0-0.1,0
		c0,0,0,0,0,0.1c0,0.1-0.1,0.1-0.1,0.2c0,0.1-0.1,0.1-0.1,0.2c0,0.1-0.1,0.2-0.1,0.3c0,0.1,0,0.2,0,0.2c-0.1,0.3-0.1,0.7-0.1,1.1
		c0,0.4,0,0.9,0,1.3c0,0.7,0,1.5,0,2.4s0,1.6,0,2.4c0,0.1,0,0.3,0,0.5c0,0.2,0,0.3,0.1,0.3v0.1c0,0.1,0.1,0.3,0.1,0.3
		c0,0.1,0.1,0.2,0.2,0.3c0.1,0.1,0.2,0.2,0.2,0.2c0,0,0.1,0,0.1,0s0,0,0,0c0.1,0.1,0.2,0.1,0.3,0.1h0.1l0.1,0v0c0,0,0.1,0,0.1,0
		c0.1,0,0.1,0,0.2,0c0,0,0.1,0,0.1,0c0,0,0.1,0,0.1,0c0,0,0.1,0,0.1,0c0,0,0,0,0.1,0c0.2,0,0.3,0,0.3-0.1c0,0,0.1,0,0.1,0s0,0,0.1,0
		c0.1,0,0.1,0,0.2-0.1c0,0,0.1-0.1,0.1-0.1s0.1-0.1,0.2-0.1c0.1,0,0.1-0.1,0.1-0.1c0,0,0,0,0,0c0,0,0,0,0,0c0.1-0.2,0.2-0.5,0.3-0.8
		c0-0.3,0.1-0.6,0.1-1c0-1.1,0-2,0-3c0-0.9,0-1.9,0-3c0-0.2,0-0.5,0-0.7s0-0.5-0.1-0.7c0-0.2-0.1-0.2-0.1-0.3v-0.1c0,0,0-0.1,0-0.1
		s0,0-0.1,0v-0.1c0,0-0.1-0.1-0.2-0.2c-0.1-0.1-0.2-0.2-0.2-0.2c0,0-0.1,0-0.1,0c0,0-0.1,0-0.1,0v-0.1h-0.1c-0.1,0-0.2-0.1-0.4-0.1
		c-0.2,0-0.3,0-0.3,0l-0.1,0c0,0,0,0,0,0C31.4,108.6,31.3,108.6,31.2,108.6z M30.7,120.7c0-0.1,0-0.1-0.1-0.2c-0.1,0-0.1,0-0.2,0
		c0,0.1,0,0.2,0.1,0.2C30.5,120.7,30.6,120.7,30.7,120.7z M32.4,109.4c-0.1,0-0.1,0-0.2,0s-0.2,0-0.2,0v0c0,0,0,0-0.1,0
		c0,0,0,0-0.1,0s0,0-0.1,0c-0.1,0.1-0.2,0.2-0.3,0.3s-0.2,0.3-0.2,0.5c0,0,0,0.1,0,0.1c0,0,0,0.1,0,0.1c-0.1,0.2-0.1,0.5-0.1,0.9
		c0,0.4,0,0.8,0,1.2v1.9c0,0.7,0,1.4,0,2.1c0,0.7,0,1.2,0.1,1.8c-0.1,0-0.2-0.1-0.3-0.1s-0.2-0.1-0.3-0.1v-5.8c0-0.4,0-0.7,0-1
		c0-0.3,0-0.6,0-0.9c0-0.1,0.1-0.3,0.1-0.5c0.1-0.2,0.1-0.3,0.2-0.5c0-0.1,0.1-0.1,0.1-0.2c0.1-0.1,0.1-0.1,0.2-0.2
		c0.1-0.1,0.2-0.2,0.3-0.2c0,0,0.1,0,0.1-0.1c0,0,0.1,0,0.1-0.1c0,0,0.1,0,0.1,0c0,0,0.1,0,0.1,0c0.1,0,0.1,0,0.1,0s0,0,0,0
		c0.1,0,0.1,0.1,0.1,0.1c0,0.1,0,0.1,0.1,0.2c0,0,0.1,0,0.1,0.1c0,0,0,0.1,0.1,0.1C32.5,109.4,32.5,109.4,32.4,109.4z M32.8,120.7
		c0.1,0,0.1,0,0.1-0.1c0-0.1,0-0.1-0.1-0.1V120.7z M34,108.3c0,0.1,0,0.2,0,0.3c0,0.1,0.1,0.1,0.2,0.1c0-0.1,0.1-0.1,0.1-0.2
		c0-0.1,0.1-0.1,0.1-0.2C34.1,108.3,34,108.3,34,108.3z M34.2,111.1c0.1,0,0.1,0,0.2,0.1c0,0.1,0.1,0.1,0.2,0.1
		c0.1-0.1,0.1-0.2,0-0.3s-0.2-0.2-0.2-0.2c0,0.1,0,0.1,0,0.1c0,0,0,0-0.1,0.1s-0.1,0-0.1,0.1C34.2,111,34.2,111,34.2,111.1z
		 M34.3,109.8c-0.1,0.1,0,0.1,0,0.1c0.1,0,0.1,0.1,0.2,0.1c0.2,0.1,0.3,0.1,0.5,0.1c0-0.2-0.1-0.3-0.3-0.3S34.4,109.8,34.3,109.8z
		 M34.6,119.3c0.2,0,0.3,0,0.3-0.2c-0.1-0.1-0.2-0.1-0.3,0S34.6,119.1,34.6,119.3z M35,113.3c0-0.3-0.1-0.4-0.3-0.4
		c0,0.1,0,0.2,0.1,0.3C34.9,113.3,35,113.3,35,113.3z M35.1,114.6C35.1,114.5,35.1,114.5,35.1,114.6c-0.1-0.1-0.1-0.1-0.2-0.1
		c0,0-0.1,0-0.1-0.1c0,0-0.1,0-0.1,0c0,0.1,0,0.2,0.1,0.2C34.9,114.6,35,114.6,35.1,114.6z M34.8,108.7h0.5c0-0.2,0-0.3,0.1-0.3
		c0.1-0.1,0.1-0.1,0-0.2c0,0-0.1-0.1-0.2-0.1c0,0.2,0,0.3-0.1,0.3S34.8,108.6,34.8,108.7z M34.9,112.2c0.1,0,0.1,0,0.1,0
		c0,0,0.1,0,0.1,0c0-0.2-0.1-0.3-0.3-0.3C34.9,112.1,34.9,112.2,34.9,112.2z"/>
	<path d="M40.1,106c0.7,0,1.3,0,2,0c0.7,0,1.3,0,2,0c0.2,0,0.4,0,0.6,0c0.2,0,0.4,0,0.6,0.1v0c0,0,0,0,0.1,0c0.1,0,0.1,0,0.2,0
		s0.1,0,0.2,0.1c0,0,0.1,0,0.1,0.1c0.1,0,0.1,0,0.2,0.1c0.1,0,0.1,0,0.1,0.1c0,0,0.1,0,0.1,0c0,0,0.1,0,0.2,0.1
		c0.1,0,0.1,0.1,0.2,0.1l0,0c0,0,0,0,0,0c0,0,0.1,0,0.1,0c0,0,0.1,0,0.1,0c0,0,0.1,0,0.1,0.1c0,0,0.1,0.1,0.1,0.1c0,0,0,0,0.1,0
		c0,0,0.1,0,0.1,0c0,0,0,0,0,0.1c0,0,0,0,0,0.1c0.1,0.1,0.1,0.1,0.2,0.2c0.1,0.1,0.2,0.1,0.2,0.2c0.1,0.1,0.1,0.2,0.2,0.2
		c0,0.1,0.1,0.2,0.1,0.3c0,0,0,0,0.1,0.1s0,0,0,0.1c0,0,0,0.1,0,0.1c0,0,0,0,0,0.1c0,0,0,0.1,0,0.1s0,0,0.1,0c0,0,0,0,0,0.1
		c0,0,0,0,0,0.1c0,0,0.1,0.1,0.1,0.3s0.1,0.3,0.1,0.4c0,0.1,0,0.1,0,0.2c0,0,0,0.1,0,0.2v0.1h0h0c0,0.3,0,0.6,0,1c0,0.4,0,0.8,0,1.1
		v4.3c0,0.4,0,0.8,0,1.1c0,0.4,0,0.7-0.1,1h0c0,0,0,0,0,0.1s0,0.1,0,0.1s0,0.1,0,0.1c0,0,0,0,0,0s0,0,0,0v0.1c0,0,0,0.1,0,0.1
		s0,0.1-0.1,0.2c0,0.1,0,0.1-0.1,0.2s-0.1,0.1-0.1,0.2c0,0,0,0,0,0c0,0,0,0,0,0c0,0,0,0.1-0.1,0.1c0,0.1-0.1,0.1-0.1,0.1
		c0,0,0,0.1-0.1,0.1c0,0,0,0-0.1,0v0.1c0,0-0.1,0.1-0.1,0.1c0,0-0.1,0.1-0.1,0.1c0,0-0.1,0.1-0.1,0.1c0,0.1-0.1,0.1-0.1,0.1
		c0,0-0.1,0.1-0.1,0.1c-0.1,0-0.1,0.1-0.2,0.1c0,0-0.1,0-0.1,0.1H47c0,0-0.1,0-0.1,0.1c0,0,0,0.1-0.1,0.1c0,0-0.1,0-0.1,0
		c0,0-0.1,0-0.1,0c0,0,0,0,0,0.1s0,0,0,0c-0.1,0-0.1,0.1-0.2,0.1c-0.1,0-0.1,0.1-0.2,0.1c0,0-0.1,0-0.1,0s0,0-0.1,0
		c0,0-0.1,0-0.2,0.1c0,0-0.1,0-0.2,0.1c-0.1,0-0.2,0.1-0.3,0.1h-0.1c0,0.1-0.1,0.1-0.2,0c-0.1,0-0.1,0-0.2,0v0.1c-0.4,0-0.7,0-1.2,0
		c-0.4,0-0.8,0-1.3,0H40v-15.3C40,106.1,40.1,106,40.1,106z M40.6,112.4c0.1,0,0.3,0,0.3,0s0.1,0.1,0.1,0.3c-0.1,0-0.3,0.1-0.4,0.1
		c-0.1,0-0.2,0.1-0.2,0.3c0,0,0.1,0,0.2,0c0.1,0,0.1-0.1,0.2-0.1c0.1,0,0.2,0,0.2,0c0.1,0,0.1-0.1,0.2-0.1c0-0.1,0-0.2,0-0.3
		c0-0.1,0-0.2-0.1-0.3c-0.1,0-0.1,0-0.1,0c0,0,0,0.1-0.1,0.1c0-0.1-0.1-0.1-0.2-0.1s-0.2,0-0.3,0c0-0.1-0.1-0.2-0.2-0.2
		c0,0.1,0,0.2,0,0.3C40.5,112.2,40.6,112.3,40.6,112.4z M40.4,114.2c0.1,0,0.2,0,0.2,0.1c0.1,0,0.1,0.1,0.2,0.1s0.1,0.1,0.2,0.1
		c0.1,0,0.2,0,0.3,0c0-0.1,0-0.2-0.1-0.3c-0.1-0.1-0.1-0.1-0.2-0.2c-0.1,0-0.2-0.1-0.2-0.1s-0.1-0.1-0.2-0.2c0,0.1-0.1,0.1-0.1,0.1
		C40.4,114,40.4,114.1,40.4,114.2z M40.8,110.9c0,0,0,0.1,0,0.1c0,0,0,0.1,0,0.1c0,0,0,0,0,0c0,0,0,0,0.1,0s0.1,0,0.1,0
		c-0.1,0-0.1,0-0.1,0.1c0,0,0,0-0.1,0c0,0-0.1,0-0.1,0s0,0-0.1,0c-0.1,0-0.1,0-0.1,0c0,0,0,0,0,0.1c0.2,0,0.4,0,0.5,0
		c0.1,0,0.3-0.1,0.4-0.1c0-0.1,0-0.2,0-0.2c0,0-0.1-0.1-0.1-0.1c0,0,0-0.1,0-0.1s0,0,0-0.1c0,0,0-0.1-0.1-0.1c0,0,0,0-0.1-0.1
		c0.1,0,0.1,0,0.1-0.1c0-0.1,0-0.1,0-0.2c-0.1,0-0.1-0.1-0.1-0.1s0-0.1-0.1,0c0,0.1-0.1,0.2-0.1,0.3
		C40.8,110.7,40.8,110.8,40.8,110.9z M41.2,115.5c0.1,0,0.1,0,0.2-0.1c0,0,0.1-0.1,0.1-0.1c-0.1,0-0.1,0-0.2,0c0,0-0.1,0-0.2,0
		c-0.1-0.1-0.1-0.2-0.2-0.2c-0.1-0.1-0.1-0.2-0.1-0.3c0,0-0.1,0-0.1-0.1c-0.1-0.1-0.1,0-0.1,0.1c0.1,0,0.1,0.1,0.2,0.2
		c0,0.1,0.1,0.1,0.1,0.2c0,0.1,0.1,0.1,0.1,0.2C41,115.5,41.1,115.5,41.2,115.5z M48.9,109.5C49,109.5,49,109.5,48.9,109.5
		c0.2,0.1,0.2,0.1,0.3,0.2c0.1,0.1,0.1,0.1,0.1,0.2c0.1,0.1,0.1,0.1,0.2,0.2c0.1,0,0.1,0.1,0.1,0.2c0,0.1,0.1,0.1,0.1,0.2
		c0,0.1,0,0.2,0,0.3c0.1,0.9,0.1,1.9,0,2.8c0,1,0,1.9,0,2.8c0,0.4,0,0.7,0,1s0,0.7,0,1l0,0l0,0v0.2h0c0,0,0,0,0,0.1
		c0,0.1,0,0.2,0,0.2c0,0,0,0.1-0.1,0.2c0,0,0,0,0,0.1s0,0.1,0,0.1c0,0,0,0-0.1,0.1c0,0,0,0-0.1,0.1v0.1h0h0c0,0,0,0.1,0,0.1
		c0,0.1,0,0.1-0.1,0.1c0,0,0,0-0.1,0c0,0,0,0-0.1,0.1c0,0-0.1,0.1-0.1,0.1c0,0,0,0.1-0.1,0.1c0,0,0,0,0,0c0,0,0,0,0,0
		c0,0.1-0.1,0.1-0.1,0.1c-0.1,0-0.1,0.1-0.1,0.1c0,0,0,0,0,0.1c0,0,0,0.1,0,0.1c0,0,0,0-0.1,0c0,0,0,0-0.1,0
		c-0.1,0.1-0.2,0.3-0.3,0.3c-0.1,0.1-0.2,0.2-0.3,0.3c0,0-0.1,0.1-0.2,0.1c0,0-0.1,0-0.1,0.1c0,0,0,0,0,0.1c0,0-0.1,0-0.1,0
		c0,0-0.1,0-0.1,0c0,0,0,0,0,0c0,0,0,0,0,0.1c0,0-0.1,0-0.1,0c0,0-0.1,0-0.1,0c0,0-0.1,0-0.1,0.1c0,0-0.1,0-0.1,0.1
		c-0.4,0.2-0.9,0.3-1.4,0.5c-0.3,0.1-0.6,0.1-1.1,0.1c-0.5,0-1,0-1.5,0c-0.2,0-0.5,0-0.9,0.1c-0.3,0-0.6,0-0.9,0
		c-0.1,0-0.2-0.1-0.2-0.1c0,0-0.1-0.1-0.1-0.1c0-0.1,0-0.2,0-0.2c0.1,0,0.1-0.1,0.1-0.2H43c0.4,0,0.9,0,1.4,0c0.5,0,0.9,0,1.2-0.1
		c0,0,0,0,0,0c0,0,0,0,0,0c0.1,0,0.1,0,0.1,0s0,0,0.1,0c0.1,0,0.1-0.1,0.2-0.1c0.1,0,0.1,0,0.2-0.1c0,0,0,0,0,0c0,0,0,0,0,0
		c0,0,0.1,0,0.1,0s0.1,0,0.1-0.1c0,0,0-0.1,0.1-0.1c0,0,0.1,0,0.2-0.1c0,0,0,0,0,0c0,0,0,0,0,0c0,0,0.1,0,0.1,0c0,0,0.1,0,0.1-0.1
		l0.1-0.1c0,0,0,0,0.1,0s0.1,0,0.1-0.1c0,0,0.1-0.1,0.1-0.1c0,0,0.1-0.1,0.1-0.1c0.1-0.1,0.2-0.2,0.3-0.2c0.1-0.1,0.2-0.2,0.3-0.3
		c0,0,0,0,0,0s0,0,0,0c0,0,0-0.1,0.1-0.1c0,0,0.1-0.1,0.1-0.1c0,0,0-0.1,0.1-0.1c0,0,0-0.1,0-0.1s0-0.1,0.1-0.1c0,0,0.1,0,0.1-0.1
		v-0.1c0,0,0,0,0.1,0s0,0,0.1,0v-0.1v-0.1h0.1v-0.1v-0.1h0.1v-0.1h0h0c0,0,0,0,0-0.1c0,0,0,0,0-0.1c0,0,0,0,0.1,0v-0.1V119
		c0,0,0.1-0.1,0.1-0.1c0,0,0-0.1,0.1-0.2c0.1-0.2,0.1-0.5,0.1-1s0-0.8,0-1.2v-4.2c0-0.5,0-1,0-1.4c0-0.4,0-0.8-0.1-1.2
		C48.9,109.7,48.9,109.6,48.9,109.5z M40.9,109.7c0-0.1,0-0.1,0-0.2c0,0,0-0.1,0-0.2c-0.1,0-0.2,0-0.2,0.1
		C40.8,109.6,40.8,109.7,40.9,109.7z M41.1,113.4c0,0.2,0.1,0.4,0.4,0.4c0-0.1,0-0.2-0.1-0.2c-0.1,0-0.1-0.1-0.1-0.2
		C41.2,113.3,41.1,113.3,41.1,113.4z M41.1,116.2c0.2,0,0.2-0.1,0.2-0.3h-0.2c0,0.1,0,0.1-0.1,0.1C41.1,116.1,41.1,116.1,41.1,116.2
		z M41.4,117.3C41.4,117.3,41.3,117.2,41.4,117.3c-0.1-0.1-0.2-0.1-0.2-0.1c0,0.1,0,0.1,0,0.1c0,0,0.1,0.1,0.1,0.1c0,0,0.1,0,0.1,0
		C41.4,117.4,41.4,117.3,41.4,117.3z M41.3,118.9c0,0.1,0,0.1,0.1,0.1s0.1,0,0.2,0c0-0.1,0-0.1,0-0.2S41.4,118.9,41.3,118.9z
		 M42.2,107c0.1,0,0.1,0,0.2,0c0,0,0-0.1,0.1-0.1C42.3,106.8,42.2,106.9,42.2,107z M43,108.8v10.2c0.1,0,0.3,0,0.5,0
		c0.2,0,0.4,0,0.6,0s0.4,0,0.5,0s0.3-0.1,0.3-0.1H45h0.1c0,0,0,0,0-0.1s0,0,0-0.1c0.1-0.1,0.1-0.1,0.2-0.2c0.1-0.1,0.1-0.1,0.1-0.2
		c0,0,0,0,0,0c0,0,0,0,0,0c0.1-0.2,0.1-0.4,0.2-0.7c0-0.2,0-0.5,0-0.8c0-0.9,0-1.9,0-2.8c0-0.9,0-1.9,0-2.8c0-0.2,0-0.4,0-0.6
		c0-0.2,0-0.4-0.1-0.5v-0.1c0-0.1,0-0.2,0-0.2c0-0.1,0-0.1-0.1-0.2c0-0.1,0-0.1-0.1-0.1c0,0-0.1-0.1-0.1-0.1v-0.1v-0.1
		c0,0-0.1-0.1-0.2-0.2s-0.1-0.1-0.2-0.1c0,0,0,0,0,0c0,0,0,0,0,0c-0.1,0-0.1-0.1-0.2-0.1c-0.1,0-0.1,0-0.2,0
		c-0.2-0.1-0.5-0.1-0.8-0.1c-0.3,0-0.5,0-0.8,0C43.1,108.6,43,108.7,43,108.8z M45.1,109.5h-1.1v8.9c0,0-0.1,0-0.1,0c0,0,0,0-0.1,0
		c0,0,0,0,0,0c0,0,0,0,0-0.1c0,0-0.1,0-0.1,0c0,0-0.1,0-0.1-0.1c0,0-0.1-0.1-0.1-0.1c0,0,0-0.1-0.1-0.1c0-0.1-0.1-0.1-0.1-0.1
		c0,0-0.1,0-0.1-0.1v-8.9c0.2,0,0.4,0,0.6,0s0.4,0,0.5,0.1c0,0,0,0,0,0c0,0,0,0,0,0c0,0,0,0,0.1,0s0.1,0,0.1,0c0,0,0,0,0,0
		c0,0,0,0,0,0c0,0,0,0,0,0.1h0.1c0,0,0.1,0.1,0.1,0.1C45.1,109.4,45.1,109.4,45.1,109.5C45.2,109.5,45.2,109.5,45.1,109.5
		C45.2,109.5,45.2,109.5,45.1,109.5z M46.7,107.8c0,0.1,0.1,0.2,0.2,0.2v-0.2C46.8,107.7,46.8,107.7,46.7,107.8z M47.5,113.7
		c0,0.1-0.1,0.1-0.1,0.2c-0.1,0-0.1,0.1-0.2,0.2c0.1,0,0.1,0.1,0.1,0.2c-0.1,0-0.1,0-0.1,0.1c0,0.1,0,0.1-0.1,0.1
		c-0.1,0-0.2,0-0.2,0.1c0,0.1,0.1,0.2,0.2,0.3c0.1,0.1,0.2,0.2,0.2,0.3c0.1,0,0.2-0.1,0.3-0.1s0.1,0,0.2-0.1c0,0-0.1-0.1-0.1-0.1
		c0-0.1,0-0.1,0-0.2c-0.1,0-0.1-0.1-0.2-0.1c-0.1,0-0.1-0.1-0.1-0.1c0.1-0.1,0.1-0.2,0.1-0.3c0.1,0,0.2-0.1,0.3-0.2
		c0-0.1,0.1-0.2,0.1-0.3c-0.1,0-0.1,0-0.1-0.1c0,0-0.1-0.1-0.1-0.1C47.6,113.6,47.6,113.6,47.5,113.7
		C47.5,113.6,47.5,113.7,47.5,113.7z M47.3,115.5c0,0.1-0.1,0.1-0.1,0.1s-0.1,0-0.1,0.1c0.1,0.1,0.2,0.2,0.4,0.1
		c0.1-0.1,0.3-0.1,0.5-0.1c0-0.1,0.1-0.2,0.1-0.2c0-0.1,0.1-0.2,0.1-0.3c0-0.1,0-0.1-0.1-0.1c0,0.1-0.1,0.2-0.2,0.3
		C47.6,115.4,47.4,115.5,47.3,115.5z M47.3,108.3c0,0-0.1,0-0.1-0.1c-0.1,0-0.1,0-0.1,0.1C47.1,108.3,47.2,108.4,47.3,108.3
		C47.3,108.4,47.3,108.4,47.3,108.3z M47.1,112.2h0.2V112h-0.2V112.2z M47.3,117c0.1,0,0.2,0,0.2-0.1c0-0.1,0.1-0.1,0.1-0.2
		c0-0.1,0-0.1-0.1-0.2s-0.1-0.1-0.2-0.1c0,0.1,0,0.2-0.1,0.2C47.2,116.9,47.3,117,47.3,117z M47.3,113.4c0.2,0,0.3,0,0.2-0.2
		c0-0.1,0-0.2,0-0.3h-0.2c0,0-0.1,0.1-0.1,0.2C47.3,113.2,47.3,113.3,47.3,113.4z M47.5,117.5L47.5,117.5h-0.1c0,0,0,0,0,0.1
		c0,0,0,0.1,0,0.1c0.2,0,0.3-0.1,0.3-0.3C47.7,117.3,47.6,117.3,47.5,117.5C47.6,117.4,47.5,117.5,47.5,117.5z"/>
	<path d="M58.8,107.9L58.8,107.9l0.1-0.2c0,0,0.1,0,0.1-0.1c0,0,0.1-0.1,0.1-0.1c0-0.1,0.1-0.2,0.2-0.3c0.1-0.1,0.2-0.2,0.3-0.3
		c0,0,0,0,0-0.1c0,0,0,0,0,0h0.1c0,0,0.1-0.1,0.1-0.1s0-0.1,0.1-0.1H60c0.1-0.1,0.1-0.1,0.2-0.2s0.2-0.1,0.3-0.2
		c0.2-0.1,0.4-0.2,0.6-0.3c0.2-0.1,0.5-0.1,0.8-0.2c0,0,0.1,0,0.1,0c0,0,0.1,0,0.1,0c0.1,0,0.3-0.1,0.6-0.1c0.3,0,0.6,0,0.8,0
		c0.1,0,0.2,0,0.3,0.1c0.1,0,0.2,0.1,0.3,0.1s0.2,0.1,0.3,0.1c0,0,0.1,0,0.1,0s0.1,0,0.2,0.1c0,0,0,0,0.1,0c0,0,0,0,0.1,0.1
		c0,0,0.1,0,0.1,0c0,0,0,0,0.1,0c0,0,0.1,0,0.1,0c0,0,0,0,0.1,0.1h0.1c0,0,0.1,0.1,0.1,0.1c0.1,0,0.1,0,0.2,0.1c0,0,0.1,0,0.1,0.1
		c0,0,0,0,0.1,0.1h0.1v0.1c0,0,0,0,0.1,0c0,0,0.1,0,0.1,0c0,0,0,0,0,0s0,0,0,0.1c0,0,0.1,0,0.1,0c0,0,0,0,0.1,0c0,0,0,0,0,0.1
		s0,0,0,0.1c0.1,0.1,0.2,0.1,0.3,0.2c0.1,0.1,0.2,0.2,0.2,0.3c0,0,0.1,0.1,0.1,0.1c0,0,0.1,0.1,0.1,0.1c0,0,0,0.1,0.1,0.1
		c0,0,0,0.1,0.1,0.1c0,0,0,0,0.1,0.1v0.1v0.1h0.1v0.1v0.1h0.1v0.1c0,0,0,0,0,0c0,0,0,0,0,0.1l0,0.1h0c0,0.1,0.1,0.2,0.1,0.3
		c0,0.1,0,0.2,0,0.3c0.1,0.3,0.1,0.6,0.1,1c0,0.4,0,0.7,0,1.1c0,1.1,0,2.3,0,3.4c0,1.2,0,2.3,0,3.5c0,0.1,0,0.2,0,0.3
		c0,0.1,0,0.2-0.1,0.3c0,0.1,0,0.2-0.1,0.3c0,0.1-0.1,0.2-0.1,0.3c0,0,0,0.1,0,0.1c0,0,0,0.1,0,0.1c0,0,0,0.1-0.1,0.2
		c0,0,0,0-0.1,0.1c0,0,0,0,0,0.1c0,0,0,0.1,0,0.1c0,0,0,0,0,0.1c0,0,0,0.1-0.1,0.1s0,0-0.1,0.1c0,0,0,0-0.1,0c0,0,0,0-0.1,0.1
		c0,0,0,0,0,0.1s0,0.1,0,0.1c0,0-0.1,0.1-0.2,0.2c-0.1,0.1-0.2,0.1-0.2,0.1c0,0-0.1,0-0.1,0.1c0,0.1-0.1,0.1-0.1,0.1
		c0,0-0.1,0-0.1,0s0,0-0.1,0c0,0,0,0,0,0c0,0,0,0,0,0c0,0-0.1,0-0.1,0c0,0-0.1,0-0.1,0.1c0,0-0.1,0.1-0.1,0.1
		c-0.1,0-0.2,0.1-0.3,0.1c0,0-0.1,0-0.1,0s0,0,0,0.1c0,0,0,0-0.1,0s0,0-0.1,0c0,0-0.1,0.1-0.2,0.1h-0.1c0,0-0.1,0.1-0.3,0.1
		c-0.2,0-0.3,0.1-0.4,0.1c-0.5,0.1-1,0.1-1.6,0.1c-0.6,0-1.1-0.1-1.5-0.3h-0.1v0v0c0,0,0,0-0.1,0c0,0,0,0-0.1,0c0,0-0.1-0.1-0.2-0.1
		c-0.1-0.1-0.2-0.1-0.2-0.1c0,0-0.1,0-0.1-0.1s0,0,0-0.1c-0.1,0-0.1,0-0.1,0c0,0-0.1,0-0.1-0.1c0,0,0,0,0,0c0,0,0,0,0,0
		c0,0-0.1,0-0.1-0.1c0,0-0.1-0.1-0.1-0.1c-0.1,0-0.1-0.1-0.2-0.1c0-0.1-0.1-0.1-0.1-0.2c0,0-0.1-0.1-0.1-0.1c-0.1,0-0.1-0.1-0.1-0.1
		c0,0,0-0.1,0-0.1c0,0,0,0,0-0.1c-0.1-0.1-0.1-0.1-0.1-0.1c0,0,0-0.1-0.1-0.1c0,0,0,0-0.1-0.1v-0.1v-0.1c0,0-0.1,0-0.1-0.1
		s0-0.1-0.1-0.1c0,0,0,0-0.1-0.1s0,0,0-0.1v-0.1l-0.1-0.2c0,0-0.1-0.1-0.1-0.1l-0.1-0.1c-0.1-0.4-0.1-0.8-0.1-1.2c0-0.4,0-0.8,0-1.2
		v-5c0-0.4,0-0.9,0-1.4c0-0.5,0-0.9,0.1-1.2c0-0.1,0-0.2,0-0.2c0-0.1,0-0.1,0-0.2c0-0.1,0-0.2,0.1-0.3v-0.1v-0.1h0.1v-0.1h0.1v-0.1
		c0,0,0.1,0,0.1-0.1C58.8,108,58.8,108,58.8,107.9C58.8,108,58.8,108,58.8,107.9z M58.9,108.3c0.1,0,0.1-0.1,0.1-0.2
		c0-0.1-0.1-0.1-0.2-0.1c0,0.1-0.1,0.1-0.1,0.2C58.8,108.3,58.8,108.3,58.9,108.3z M59.1,118.5c0,0.1,0,0.1,0,0.1c0,0,0.1,0,0,0.1
		c0.2,0,0.3-0.1,0.3-0.3c-0.1-0.1-0.1-0.1-0.2,0S59.2,118.5,59.1,118.5z M59.2,108.6c0.1,0,0.2,0,0.2-0.1s-0.1-0.2-0.2-0.1V108.6z
		 M59.3,117.9l0.1,0.1c0,0.1,0.1,0.1,0.1,0.1h0.1h0.1c0.1,0.1,0.1,0.1,0.3,0.1c0.1,0,0.2-0.1,0.2-0.2c-0.1,0-0.2,0-0.3,0
		c-0.1,0-0.1-0.1-0.1-0.2c0-0.1-0.1-0.1-0.1-0.2c0-0.1-0.1-0.1-0.2-0.1c0,0.1,0,0.2,0,0.3C59.3,117.8,59.3,117.9,59.3,117.9z
		 M59.6,116.1c0-0.1,0-0.2,0.1-0.2c0-0.1,0-0.1-0.1-0.2h-0.2C59.3,116,59.4,116.1,59.6,116.1z M59.4,112.7c0.1,0.1,0.3,0.1,0.4,0
		c0.1-0.1,0.2-0.2,0.2-0.3c-0.1,0-0.3,0-0.4,0C59.5,112.4,59.4,112.5,59.4,112.7z M59.9,111.7c0-0.2-0.1-0.2-0.3-0.2
		c0,0.1,0,0.2,0.1,0.2C59.7,111.7,59.8,111.7,59.9,111.7z M59.8,118.6c0,0.1,0,0.1-0.1,0.2c0,0.1,0,0.1,0,0.2c0,0-0.1,0-0.1-0.1
		c0,0-0.1,0-0.1-0.1c0,0.2,0,0.3,0.2,0.3c0.1,0,0.3,0.1,0.3,0.2c0-0.1,0-0.2,0.1-0.2c0-0.1,0-0.2,0-0.2c0,0,0-0.1,0-0.2
		c0.1,0,0.1-0.1,0.1-0.2c0.1-0.1,0.1-0.1,0.2-0.2c0.1-0.1,0.1-0.2,0.1-0.3h-0.3c0,0.2,0,0.3-0.1,0.3C60.1,118.6,60,118.6,59.8,118.6
		z M59.6,119.8C59.6,119.8,59.6,119.9,59.6,119.8c0,0.1,0.1,0.1,0.1,0.1c0,0.1,0.1,0.1,0.2,0.1c0.1,0,0.2,0,0.3,0
		c0-0.1,0-0.2-0.2-0.3C59.8,119.7,59.6,119.8,59.6,119.8z M59.7,116.9c0.1,0,0.2,0,0.2-0.1c-0.1,0-0.1,0-0.1-0.1s0-0.1-0.1-0.1
		c0,0.1,0,0.1,0,0.1S59.7,116.8,59.7,116.9z M60,115c0-0.1,0-0.1-0.1-0.1c-0.1,0-0.1,0-0.2,0C59.7,115,59.8,115,60,115z M67.6,107.9
		C67.6,107.9,67.6,108,67.6,107.9c0.1,0.2,0.2,0.2,0.3,0.3c0.1,0.1,0.1,0.2,0.2,0.3c0.1,0.1,0.1,0.2,0.2,0.3
		c0.1,0.1,0.1,0.2,0.1,0.3v0.1v0.1h0.1c0,0.1,0,0.2,0,0.3s0,0.2,0,0.3c0.1,0.2,0.1,0.6,0.1,1s0,0.9,0,1.3v4.5c0,0.5,0,1,0,1.4
		c0,0.5,0,0.8-0.1,1.1c0,0,0,0,0,0.1s0,0,0,0.1h0h0c0,0,0,0.1,0,0.1c0,0.1,0,0.1,0,0.1c0,0,0,0-0.1,0c0,0,0,0,0,0v0.1v0.1h-0.1v0.1
		v0.1H68c0,0,0,0,0,0.1c0,0,0,0,0,0.1c0,0-0.1,0.1-0.1,0.1c0,0-0.1,0.1-0.1,0.1l-0.1,0.2c0,0,0,0-0.1,0c0,0,0,0,0,0c0,0,0,0,0,0.1
		c0,0,0,0,0,0.1h0h0v0.1c0,0-0.1,0-0.1,0.1c0,0-0.1,0.1-0.1,0.1c0,0,0,0.1-0.1,0.2c-0.1,0.1-0.1,0.2-0.2,0.2
		c-0.1,0.1-0.1,0.1-0.2,0.2c-0.1,0.1-0.1,0.1-0.2,0.1c0,0,0,0,0,0s0,0-0.1,0c0,0-0.1,0.1-0.1,0.1c0,0,0,0-0.1,0.1c0,0-0.1,0-0.1,0.1
		c0,0-0.1,0-0.1,0.1s-0.1,0-0.1,0.1l-0.1,0.1c0,0-0.1,0-0.1,0.1c0,0-0.1,0-0.1,0c0,0,0,0-0.1,0s0,0-0.1,0c0,0-0.1,0-0.1,0.1
		c0,0-0.1,0-0.1,0.1s-0.1,0-0.1,0c0,0-0.1,0-0.1,0c0,0,0,0,0,0c0,0,0,0,0,0h-0.1c-0.1,0-0.1,0.1-0.2,0.1c0,0-0.1,0-0.2,0.1
		s-0.1,0.1-0.2,0.1c-0.1,0-0.2,0.1-0.3,0.1s-0.2,0-0.3,0.1H64c-0.1,0-0.3,0.1-0.6,0.1c-0.2,0-0.5,0-0.7,0c-0.2,0-0.3,0-0.4,0
		c-0.1,0-0.3,0-0.4,0c0,0-0.1,0-0.1,0c0,0,0,0-0.1,0c-0.1,0-0.1-0.1-0.2-0.1h-0.1c0,0-0.1,0-0.1,0c0,0-0.1,0-0.1,0v-0.1
		c-0.1,0-0.2-0.1-0.2-0.1c-0.1,0-0.1,0-0.2-0.1c0,0,0-0.1-0.1-0.1h-0.1c0,0,0,0,0,0c0,0,0,0,0,0c0,0-0.1,0-0.1,0c0,0-0.1,0-0.1,0
		c0,0,0,0,0,0c0,0,0,0,0,0c0,0-0.1,0-0.1,0c-0.1,0-0.1-0.1-0.1-0.2c0.2-0.1,0.4-0.2,0.6-0.2s0.4,0,0.6,0.1c0.1,0,0.1,0,0.2,0.1
		c0.1,0,0.1,0,0.2,0.1c0.1,0,0.3,0,0.5,0c0.2,0,0.3,0,0.5,0c0.2,0,0.4,0,0.6,0c0.2,0,0.4,0,0.6,0c0.2,0,0.3-0.1,0.5-0.1
		s0.3-0.1,0.5-0.2c0.3-0.1,0.6-0.2,0.8-0.3s0.4-0.2,0.7-0.4c0.3-0.3,0.6-0.7,0.9-1.2c0,0,0.1-0.1,0.1-0.2c0,0,0,0,0,0c0,0,0,0,0,0
		c0,0,0-0.1,0.1-0.1c0,0,0.1-0.1,0.1-0.1c0,0,0-0.1,0.1-0.1c0,0,0.1-0.1,0.1-0.1v-0.1c0-0.1,0.1-0.3,0.1-0.5s0-0.4,0-0.6
		s0-0.5,0-0.7c0-0.2,0-0.4,0-0.6v-2.3c0-0.8,0-1.6,0-2.4c0-0.8,0-1.5,0-2.1c0-0.1,0-0.2,0-0.3c0-0.1,0-0.2,0-0.3l0,0c0,0,0,0,0,0
		c0-0.1,0-0.1,0-0.2c0-0.1,0-0.2,0-0.3c0-0.2-0.1-0.3-0.1-0.5c0-0.1,0-0.3-0.1-0.4h0.1V107.9z M60.3,119.8h0.4c0-0.1,0-0.1,0-0.2
		c0,0,0.1-0.1,0.1-0.1c-0.1-0.1-0.2-0.1-0.4,0C60.3,119.5,60.3,119.6,60.3,119.8z M61.1,120.5c0-0.1-0.1-0.1-0.2-0.1
		c-0.1,0-0.2,0-0.4,0c0,0.1,0.1,0.2,0.3,0.3C60.9,120.7,61,120.6,61.1,120.5z M62.3,108.6h-0.1c0,0,0,0-0.1,0.1c0,0,0,0-0.1,0.1
		c0,0-0.1,0-0.1,0s-0.1,0-0.1,0l-0.1,0.1c0,0,0,0-0.1,0c0,0,0,0,0,0.1c0,0,0,0,0,0c0,0,0,0,0,0c0,0,0,0.1,0,0.1s0,0.1,0,0.1
		c0,0,0,0-0.1,0c0,0,0,0,0,0.1c0,0.1-0.1,0.1-0.1,0.2c0,0.1-0.1,0.1-0.1,0.2c0,0.1-0.1,0.2-0.1,0.3c0,0.1,0,0.2,0,0.2
		c-0.1,0.3-0.1,0.7-0.1,1.1c0,0.4,0,0.9,0,1.3c0,0.7,0,1.5,0,2.4s0,1.6,0,2.4c0,0.1,0,0.3,0,0.5c0,0.2,0,0.3,0.1,0.3v0.1
		c0,0.1,0.1,0.3,0.1,0.3c0,0.1,0.1,0.2,0.2,0.3c0.1,0.1,0.2,0.2,0.2,0.2c0,0,0.1,0,0.1,0s0,0,0,0c0.1,0.1,0.2,0.1,0.3,0.1h0.1l0.1,0
		v0c0,0,0.1,0,0.1,0c0.1,0,0.1,0,0.2,0c0,0,0.1,0,0.1,0c0,0,0.1,0,0.1,0c0,0,0.1,0,0.1,0c0,0,0,0,0.1,0c0.2,0,0.3,0,0.3-0.1
		c0,0,0.1,0,0.1,0s0,0,0.1,0c0.1,0,0.1,0,0.2-0.1c0,0,0.1-0.1,0.1-0.1s0.1-0.1,0.2-0.1c0.1,0,0.1-0.1,0.1-0.1c0,0,0,0,0,0
		c0,0,0,0,0,0c0.1-0.2,0.2-0.5,0.3-0.8c0-0.3,0.1-0.6,0.1-1c0-1.1,0-2,0-3c0-0.9,0-1.9,0-3c0-0.2,0-0.5,0-0.7s0-0.5-0.1-0.7
		c0-0.2-0.1-0.2-0.1-0.3v-0.1c0,0,0-0.1,0-0.1s0,0-0.1,0v-0.1c0,0-0.1-0.1-0.2-0.2c-0.1-0.1-0.2-0.2-0.2-0.2c0,0-0.1,0-0.1,0
		c0,0-0.1,0-0.1,0v-0.1h-0.1c-0.1,0-0.2-0.1-0.4-0.1c-0.2,0-0.3,0-0.3,0l-0.1,0c0,0,0,0,0,0C62.5,108.6,62.4,108.6,62.3,108.6z
		 M61.8,120.7c0-0.1,0-0.1-0.1-0.2c-0.1,0-0.1,0-0.2,0c0,0.1,0,0.2,0.1,0.2C61.6,120.7,61.7,120.7,61.8,120.7z M63.6,109.4
		c-0.1,0-0.1,0-0.2,0s-0.2,0-0.2,0v0c0,0,0,0-0.1,0c0,0,0,0-0.1,0s0,0-0.1,0c-0.1,0.1-0.2,0.2-0.3,0.3s-0.2,0.3-0.2,0.5
		c0,0,0,0.1,0,0.1c0,0,0,0.1,0,0.1c-0.1,0.2-0.1,0.5-0.1,0.9c0,0.4,0,0.8,0,1.2v1.9c0,0.7,0,1.4,0,2.1c0,0.7,0,1.2,0.1,1.8
		c-0.1,0-0.2-0.1-0.3-0.1s-0.2-0.1-0.3-0.1v-5.8c0-0.4,0-0.7,0-1c0-0.3,0-0.6,0-0.9c0-0.1,0.1-0.3,0.1-0.5c0.1-0.2,0.1-0.3,0.2-0.5
		c0-0.1,0.1-0.1,0.1-0.2c0.1-0.1,0.1-0.1,0.2-0.2c0.1-0.1,0.2-0.2,0.3-0.2c0,0,0.1,0,0.1-0.1c0,0,0.1,0,0.1-0.1c0,0,0.1,0,0.1,0
		c0,0,0.1,0,0.1,0c0.1,0,0.1,0,0.1,0s0,0,0,0c0.1,0,0.1,0.1,0.1,0.1c0,0.1,0,0.1,0.1,0.2c0,0,0.1,0,0.1,0.1c0,0,0,0.1,0.1,0.1
		C63.6,109.4,63.6,109.4,63.6,109.4z M64,120.7c0.1,0,0.1,0,0.1-0.1c0-0.1,0-0.1-0.1-0.1V120.7z M65.1,108.3c0,0.1,0,0.2,0,0.3
		c0,0.1,0.1,0.1,0.2,0.1c0-0.1,0.1-0.1,0.1-0.2c0-0.1,0.1-0.1,0.1-0.2C65.3,108.3,65.2,108.3,65.1,108.3z M65.3,111.1
		c0.1,0,0.1,0,0.2,0.1c0,0.1,0.1,0.1,0.2,0.1c0.1-0.1,0.1-0.2,0-0.3s-0.2-0.2-0.2-0.2c0,0.1,0,0.1,0,0.1c0,0,0,0-0.1,0.1
		s-0.1,0-0.1,0.1C65.3,111,65.3,111,65.3,111.1z M65.4,109.8c-0.1,0.1,0,0.1,0,0.1c0.1,0,0.1,0.1,0.2,0.1c0.2,0.1,0.3,0.1,0.5,0.1
		c0-0.2-0.1-0.3-0.3-0.3S65.5,109.8,65.4,109.8z M65.7,119.3c0.2,0,0.3,0,0.3-0.2c-0.1-0.1-0.2-0.1-0.3,0S65.7,119.1,65.7,119.3z
		 M66.2,113.3c0-0.3-0.1-0.4-0.3-0.4c0,0.1,0,0.2,0.1,0.3C66,113.3,66.1,113.3,66.2,113.3z M66.2,114.6
		C66.2,114.5,66.2,114.5,66.2,114.6c-0.1-0.1-0.1-0.1-0.2-0.1c0,0-0.1,0-0.1-0.1c0,0-0.1,0-0.1,0c0,0.1,0,0.2,0.1,0.2
		C66,114.6,66.1,114.6,66.2,114.6z M65.9,108.7h0.5c0-0.2,0-0.3,0.1-0.3c0.1-0.1,0.1-0.1,0-0.2c0,0-0.1-0.1-0.2-0.1
		c0,0.2,0,0.3-0.1,0.3S65.9,108.6,65.9,108.7z M66,112.2c0.1,0,0.1,0,0.1,0c0,0,0.1,0,0.1,0c0-0.2-0.1-0.3-0.3-0.3
		C66,112.1,66,112.2,66,112.2z"/>
	<path d="M71.3,106.1h2.9c0.1,0.2,0.1,0.5,0.1,0.7c0,0.3,0,0.5,0,0.8V119h4.1v2.6h-7.1v-15.3C71.2,106.1,71.2,106.1,71.3,106.1z
		 M78.7,119.1h0.2c0.1,0.1,0.1,0.1,0.1,0.2c0,0.1,0.1,0.1,0.1,0.2c0,0,0,0,0,0c0,0,0,0,0,0c0,0,0,0.1,0.1,0.1c0,0.1,0.1,0.1,0.1,0.1
		v2.6c-0.1,0-0.2,0-0.2,0.1c0,0-0.1,0.1-0.2,0.1c-0.2,0-0.4,0-0.7,0s-0.5,0-0.8,0H73c-0.2,0-0.3,0-0.5,0c-0.2,0-0.3,0-0.5,0
		c-0.1,0-0.3,0-0.4,0s-0.2-0.1-0.3-0.2c0.1-0.2,0.3-0.4,0.6-0.4c0.3,0,0.6,0,0.9,0h5.9V119.1z M71.9,120H72c0,0,0-0.1,0-0.1
		c0,0,0,0,0-0.1c0,0-0.1,0-0.1,0c0,0-0.1,0-0.1,0V120z M72,118.5h0.3c0,0,0-0.1,0-0.2c0-0.1,0-0.1-0.1-0.1c0,0.1-0.1,0.1-0.2,0.1
		C71.9,118.3,71.9,118.4,72,118.5z M72.2,117.4c0.1,0,0.2,0,0.2-0.1c0.1,0,0.1-0.1,0.2-0.1c0,0,0.1,0,0.1,0c0,0,0.1,0,0.1-0.1
		c-0.1-0.1-0.4-0.2-0.7-0.2c0,0.1,0,0.2,0,0.2C72.2,117.3,72.2,117.3,72.2,117.4z M72.4,107.9c0,0,0.1-0.1,0.1-0.1
		c0.1,0,0.1,0,0.1,0c0,0.1,0,0.2,0,0.2c0.1,0,0.1,0.1,0.1,0.2c0.1,0,0.2,0,0.2,0.1c0.1,0,0.1,0.1,0.3,0c0-0.1-0.1-0.2-0.1-0.3
		c0-0.1-0.1-0.2-0.2-0.2c0-0.1,0-0.1,0-0.1c0,0-0.1,0-0.1-0.1c0-0.1,0-0.1,0-0.1c0,0,0-0.1,0-0.1c-0.1-0.1-0.3-0.1-0.5-0.1
		C72.2,107.6,72.3,107.8,72.4,107.9z M72.3,108.4c0,0.2,0.1,0.3,0.3,0.3c0.1-0.1,0.1-0.1,0-0.1c-0.1,0-0.1-0.1-0.1-0.2
		c-0.1,0-0.1,0-0.1,0C72.5,108.4,72.4,108.5,72.3,108.4z M72.4,115.9c0.1,0.1,0.1,0.1,0.2,0c0.1,0,0.1-0.1,0.3,0c0-0.1,0-0.1,0-0.1
		c0,0,0-0.1,0-0.1C72.6,115.7,72.4,115.7,72.4,115.9z M72.6,114.4h0.1c0,0,0-0.1,0.1-0.1c0,0-0.1,0-0.1,0s0,0-0.1,0V114.4z
		 M72.8,118.3h0.3V118c-0.1,0-0.1,0-0.2-0.1s-0.1,0-0.2,0c-0.1,0.1-0.1,0.1,0,0.2C72.7,118.2,72.7,118.2,72.8,118.3z M72.8,110
		c0,0,0-0.1,0.1-0.1c0-0.1,0-0.1-0.1-0.1c0,0,0,0.1-0.1,0.1C72.7,110,72.7,110,72.8,110z M73,121c0.2,0,0.4-0.1,0.5-0.2
		c-0.1,0-0.2,0-0.3,0S73,120.9,73,121z M73.9,120.6c0.1,0,0.1,0.1,0.1,0.1c0,0,0.1,0,0.2,0v-0.3C74.1,120.4,74,120.5,73.9,120.6z
		 M75.4,118.4h-0.5c-0.1,0-0.1,0-0.1-0.1c0-0.1,0-0.1,0-0.2c0-0.3,0-0.7,0-1.1c0-0.4,0-0.8,0-1.2v-5.1c0-0.2,0-0.5,0-0.8
		c0-0.3,0-0.5,0-0.8s0-0.5,0-0.8c0-0.2,0-0.5,0-0.6c0-0.1,0-0.3,0-0.4c0-0.2,0-0.3,0-0.5c0-0.1,0-0.2,0-0.3c0-0.1,0-0.2,0-0.2
		c0.1-0.1,0.1-0.2,0.3-0.3c0.1-0.1,0.2-0.1,0.3-0.1c0,0.1,0.1,0.1,0.1,0.2c0,0.2,0,0.5,0,0.8s0,0.6,0,0.9s0,0.6,0,0.9
		c0,0.3,0,0.6,0,0.8c0,1.3,0,2.7,0,4c0,1.3,0,2.7,0,4.1v0.4c0,0.1,0,0.1,0,0.2C75.4,118.3,75.4,118.3,75.4,118.4z M76.7,120.8
		C76.7,120.9,76.7,120.9,76.7,120.8c0.1,0.1,0.2,0.1,0.2,0.1c0,0,0-0.1,0-0.2c0-0.1,0-0.1-0.1-0.1c0,0.1,0,0.1-0.1,0.1
		C76.7,120.8,76.7,120.8,76.7,120.8z"/>
	<path d="M81.3,106c0.7,0,1.3,0,2,0c0.7,0,1.3,0,2,0c0.2,0,0.4,0,0.6,0s0.4,0,0.6,0.1v0c0,0,0,0,0.1,0c0.1,0,0.1,0,0.2,0
		s0.1,0,0.2,0.1c0,0,0.1,0,0.1,0.1c0.1,0,0.1,0,0.2,0.1c0.1,0,0.1,0,0.1,0.1c0,0,0.1,0,0.1,0c0,0,0.1,0,0.2,0.1
		c0.1,0,0.1,0.1,0.2,0.1l0,0c0,0,0,0,0,0c0,0,0.1,0,0.1,0c0,0,0.1,0,0.1,0c0,0,0.1,0,0.1,0.1c0,0,0.1,0.1,0.1,0.1c0,0,0,0,0.1,0
		s0.1,0,0.1,0c0,0,0,0,0,0.1c0,0,0,0,0,0.1c0.1,0.1,0.1,0.1,0.2,0.2c0.1,0.1,0.2,0.1,0.2,0.2c0.1,0.1,0.1,0.2,0.2,0.2
		c0,0.1,0.1,0.2,0.1,0.3c0,0,0,0,0.1,0.1s0,0,0,0.1c0,0,0,0.1,0,0.1c0,0,0,0,0,0.1c0,0,0,0.1,0,0.1s0,0,0.1,0c0,0,0,0,0,0.1
		c0,0,0,0,0,0.1c0,0,0.1,0.1,0.1,0.3c0.1,0.1,0.1,0.3,0.1,0.4c0,0.1,0,0.1,0,0.2c0,0,0,0.1,0,0.2v0.1h0h0c0,0.3,0,0.6,0,1
		c0,0.4,0,0.8,0,1.1v4.3c0,0.4,0,0.8,0,1.1c0,0.4,0,0.7-0.1,1h0c0,0,0,0,0,0.1s0,0.1,0,0.1s0,0.1,0,0.1c0,0,0,0,0,0s0,0,0,0v0.1
		c0,0,0,0.1,0,0.1s0,0.1-0.1,0.2c0,0.1,0,0.1-0.1,0.2s-0.1,0.1-0.1,0.2c0,0,0,0,0,0c0,0,0,0,0,0c0,0,0,0.1-0.1,0.1
		c0,0.1-0.1,0.1-0.1,0.1c0,0,0,0.1-0.1,0.1c0,0,0,0-0.1,0v0.1c0,0-0.1,0.1-0.1,0.1S89,120,89,120c0,0-0.1,0.1-0.1,0.1
		c0,0.1-0.1,0.1-0.1,0.1c0,0-0.1,0.1-0.1,0.1s-0.1,0.1-0.2,0.1c0,0-0.1,0-0.1,0.1h-0.1c0,0-0.1,0-0.1,0.1s0,0.1-0.1,0.1
		c0,0-0.1,0-0.1,0c0,0-0.1,0-0.1,0c0,0,0,0,0,0.1s0,0,0,0c-0.1,0-0.1,0.1-0.2,0.1c-0.1,0-0.1,0.1-0.2,0.1c0,0-0.1,0-0.1,0s0,0-0.1,0
		c0,0-0.1,0-0.2,0.1c0,0-0.1,0-0.2,0.1c-0.1,0-0.2,0.1-0.3,0.1h-0.1c0,0.1-0.1,0.1-0.2,0s-0.1,0-0.2,0v0.1c-0.4,0-0.7,0-1.2,0
		c-0.4,0-0.8,0-1.3,0h-2.4v-15.3C81.3,106.1,81.3,106,81.3,106z M81.8,112.4c0.1,0,0.3,0,0.3,0c0.1,0,0.1,0.1,0.1,0.3
		c-0.1,0-0.3,0.1-0.4,0.1c-0.1,0-0.2,0.1-0.2,0.3c0,0,0.1,0,0.2,0c0.1,0,0.2-0.1,0.2-0.1c0.1,0,0.2,0,0.2,0c0.1,0,0.1-0.1,0.2-0.1
		c0-0.1,0-0.2,0-0.3c0-0.1,0-0.2-0.1-0.3c-0.1,0-0.1,0-0.1,0s0,0.1-0.1,0.1c0-0.1-0.1-0.1-0.2-0.1c-0.1,0-0.2,0-0.3,0
		c0-0.1-0.1-0.2-0.2-0.2c0,0.1,0,0.2,0,0.3C81.7,112.2,81.8,112.3,81.8,112.4z M81.7,114.2c0.1,0,0.2,0,0.2,0.1s0.1,0.1,0.2,0.1
		c0.1,0,0.1,0.1,0.2,0.1c0.1,0,0.2,0,0.3,0c0-0.1,0-0.2-0.1-0.3c-0.1-0.1-0.1-0.1-0.2-0.2c-0.1,0-0.2-0.1-0.2-0.1
		c-0.1,0-0.1-0.1-0.2-0.2c0,0.1-0.1,0.1-0.1,0.1C81.7,114,81.6,114.1,81.7,114.2z M82,110.9c0,0,0,0.1,0,0.1c0,0,0,0.1,0,0.1
		c0,0,0,0,0,0c0,0,0,0,0.1,0c0,0,0.1,0,0.1,0c-0.1,0-0.1,0-0.1,0.1c0,0,0,0-0.1,0c0,0-0.1,0-0.1,0s0,0-0.1,0c-0.1,0-0.1,0-0.1,0
		c0,0,0,0,0,0.1c0.2,0,0.4,0,0.5,0c0.1,0,0.3-0.1,0.4-0.1c0-0.1,0-0.2,0-0.2s-0.1-0.1-0.1-0.1c0,0,0-0.1,0-0.1s0,0,0-0.1
		c0,0,0-0.1-0.1-0.1c0,0,0,0-0.1-0.1c0.1,0,0.1,0,0.1-0.1c0-0.1,0-0.1,0-0.2c-0.1,0-0.1-0.1-0.1-0.1s0-0.1-0.1,0
		c0,0.1-0.1,0.2-0.1,0.3C82,110.7,82,110.8,82,110.9z M82.4,115.5c0.1,0,0.1,0,0.2-0.1c0,0,0.1-0.1,0.1-0.1c-0.1,0-0.1,0-0.2,0
		c0,0-0.1,0-0.2,0c-0.1-0.1-0.1-0.2-0.2-0.2c-0.1-0.1-0.1-0.2-0.1-0.3c0,0-0.1,0-0.1-0.1c-0.1-0.1-0.1,0-0.1,0.1
		c0.1,0,0.1,0.1,0.2,0.2s0.1,0.1,0.1,0.2c0,0.1,0.1,0.1,0.1,0.2C82.2,115.5,82.3,115.5,82.4,115.5z M90.1,109.5
		C90.2,109.5,90.2,109.5,90.1,109.5c0.2,0.1,0.2,0.1,0.3,0.2c0.1,0.1,0.1,0.1,0.1,0.2c0.1,0.1,0.1,0.1,0.2,0.2
		c0.1,0,0.1,0.1,0.1,0.2c0,0.1,0.1,0.1,0.1,0.2c0,0.1,0,0.2,0,0.3c0.1,0.9,0.1,1.9,0,2.8s0,1.9,0,2.8c0,0.4,0,0.7,0,1s0,0.7,0,1l0,0
		l0,0v0.2h0c0,0,0,0,0,0.1c0,0.1,0,0.2,0,0.2c0,0,0,0.1-0.1,0.2c0,0,0,0,0,0.1s0,0.1,0,0.1c0,0,0,0-0.1,0.1s0,0-0.1,0.1v0.1h0h0
		c0,0,0,0.1,0,0.1c0,0.1,0,0.1-0.1,0.1c0,0,0,0-0.1,0c0,0,0,0-0.1,0.1c0,0-0.1,0.1-0.1,0.1c0,0,0,0.1-0.1,0.1c0,0,0,0,0,0
		c0,0,0,0,0,0c0,0.1-0.1,0.1-0.1,0.1c-0.1,0-0.1,0.1-0.1,0.1c0,0,0,0,0,0.1c0,0,0,0.1,0,0.1c0,0,0,0-0.1,0s0,0-0.1,0
		c-0.1,0.1-0.2,0.3-0.3,0.3c-0.1,0.1-0.2,0.2-0.3,0.3c0,0-0.1,0.1-0.2,0.1c0,0-0.1,0-0.1,0.1c0,0,0,0,0,0.1c0,0-0.1,0-0.1,0
		c0,0-0.1,0-0.1,0c0,0,0,0,0,0c0,0,0,0,0,0.1c0,0-0.1,0-0.1,0c0,0-0.1,0-0.1,0c0,0-0.1,0-0.1,0.1c0,0-0.1,0-0.1,0.1
		c-0.4,0.2-0.9,0.3-1.4,0.5c-0.3,0.1-0.6,0.1-1.1,0.1s-1,0-1.5,0c-0.2,0-0.5,0-0.9,0.1c-0.3,0-0.6,0-0.9,0c-0.1,0-0.2-0.1-0.2-0.1
		c0,0-0.1-0.1-0.1-0.1c0-0.1,0-0.2,0-0.2s0.1-0.1,0.1-0.2h2.1c0.4,0,0.9,0,1.4,0c0.5,0,0.9,0,1.2-0.1c0,0,0,0,0,0s0,0,0,0
		c0.1,0,0.1,0,0.1,0s0,0,0.1,0c0.1,0,0.1-0.1,0.2-0.1c0.1,0,0.1,0,0.2-0.1c0,0,0,0,0,0c0,0,0,0,0,0c0,0,0.1,0,0.1,0
		c0.1,0,0.1,0,0.1-0.1c0,0,0-0.1,0.1-0.1c0,0,0.1,0,0.2-0.1c0,0,0,0,0,0c0,0,0,0,0,0s0.1,0,0.1,0c0,0,0.1,0,0.1-0.1l0.1-0.1
		c0,0,0,0,0.1,0s0.1,0,0.1-0.1c0,0,0.1-0.1,0.1-0.1s0.1-0.1,0.1-0.1c0.1-0.1,0.2-0.2,0.3-0.2c0.1-0.1,0.2-0.2,0.3-0.3c0,0,0,0,0,0
		s0,0,0,0c0,0,0-0.1,0.1-0.1c0,0,0.1-0.1,0.1-0.1c0,0,0-0.1,0.1-0.1s0-0.1,0-0.1s0-0.1,0.1-0.1c0,0,0.1,0,0.1-0.1v-0.1
		c0,0,0,0,0.1,0s0,0,0.1,0v-0.1v-0.1H90v-0.1v-0.1H90v-0.1h0h0c0,0,0,0,0-0.1s0,0,0-0.1c0,0,0,0,0.1,0v-0.1V119c0,0,0.1-0.1,0.1-0.1
		c0,0,0-0.1,0.1-0.2c0.1-0.2,0.1-0.5,0.1-1s0-0.8,0-1.2v-4.2c0-0.5,0-1,0-1.4c0-0.4,0-0.8-0.1-1.2C90.2,109.7,90.1,109.6,90.1,109.5
		z M82.2,109.7c0-0.1,0-0.1,0-0.2c0,0,0-0.1,0-0.2c-0.1,0-0.2,0-0.2,0.1S82,109.7,82.2,109.7z M82.3,113.4c0,0.2,0.1,0.4,0.4,0.4
		c0-0.1,0-0.2-0.1-0.2c-0.1,0-0.1-0.1-0.1-0.2C82.4,113.3,82.3,113.3,82.3,113.4z M82.3,116.2c0.2,0,0.2-0.1,0.2-0.3h-0.2
		c0,0.1,0,0.1-0.1,0.1C82.3,116.1,82.3,116.1,82.3,116.2z M82.6,117.3C82.6,117.3,82.6,117.2,82.6,117.3c-0.1-0.1-0.2-0.1-0.2-0.1
		c0,0.1,0,0.1,0,0.1s0.1,0.1,0.1,0.1s0.1,0,0.1,0C82.6,117.4,82.6,117.3,82.6,117.3z M82.5,118.9c0,0.1,0,0.1,0.1,0.1
		c0.1,0,0.1,0,0.2,0c0-0.1,0-0.1,0-0.2C82.6,118.8,82.6,118.9,82.5,118.9z M83.4,107c0.1,0,0.1,0,0.2,0c0,0,0-0.1,0.1-0.1
		C83.5,106.8,83.4,106.9,83.4,107z M84.3,108.8v10.2c0.1,0,0.3,0,0.5,0c0.2,0,0.4,0,0.6,0s0.4,0,0.5,0s0.3-0.1,0.3-0.1h0.1h0.1
		c0,0,0,0,0-0.1s0,0,0-0.1c0.1-0.1,0.1-0.1,0.2-0.2c0.1-0.1,0.1-0.1,0.1-0.2c0,0,0,0,0,0c0,0,0,0,0,0c0.1-0.2,0.1-0.4,0.2-0.7
		c0-0.2,0-0.5,0-0.8c0-0.9,0-1.9,0-2.8s0-1.9,0-2.8c0-0.2,0-0.4,0-0.6s0-0.4-0.1-0.5v-0.1c0-0.1,0-0.2,0-0.2c0-0.1,0-0.1-0.1-0.2
		c0-0.1,0-0.1-0.1-0.1c0,0-0.1-0.1-0.1-0.1v-0.1v-0.1c0,0-0.1-0.1-0.2-0.2c-0.1-0.1-0.1-0.1-0.2-0.1c0,0,0,0,0,0c0,0,0,0,0,0
		c-0.1,0-0.1-0.1-0.2-0.1s-0.1,0-0.2,0c-0.2-0.1-0.5-0.1-0.8-0.1c-0.3,0-0.5,0-0.8,0C84.3,108.6,84.3,108.7,84.3,108.8z M86.4,109.5
		h-1.1v8.9c0,0-0.1,0-0.1,0s0,0-0.1,0c0,0,0,0,0,0c0,0,0,0,0-0.1c0,0-0.1,0-0.1,0c0,0-0.1,0-0.1-0.1c0,0-0.1-0.1-0.1-0.1
		c0,0,0-0.1-0.1-0.1c0-0.1-0.1-0.1-0.1-0.1c0,0-0.1,0-0.1-0.1v-8.9c0.2,0,0.4,0,0.6,0s0.4,0,0.5,0.1c0,0,0,0,0,0c0,0,0,0,0,0
		c0,0,0,0,0.1,0c0,0,0.1,0,0.1,0c0,0,0,0,0,0c0,0,0,0,0,0c0,0,0,0,0,0.1h0.1c0,0,0.1,0.1,0.1,0.1C86.3,109.4,86.3,109.4,86.4,109.5
		C86.4,109.5,86.4,109.5,86.4,109.5C86.4,109.5,86.4,109.5,86.4,109.5z M87.9,107.8c0,0.1,0.1,0.2,0.2,0.2v-0.2
		C88,107.7,88,107.7,87.9,107.8z M88.7,113.7c0,0.1-0.1,0.1-0.1,0.2c-0.1,0-0.1,0.1-0.2,0.2c0.1,0,0.1,0.1,0.1,0.2
		c-0.1,0-0.1,0-0.1,0.1c0,0.1,0,0.1-0.1,0.1c-0.1,0-0.2,0-0.2,0.1c0,0.1,0.1,0.2,0.2,0.3c0.1,0.1,0.2,0.2,0.2,0.3
		c0.1,0,0.2-0.1,0.3-0.1c0.1,0,0.1,0,0.2-0.1c0,0-0.1-0.1-0.1-0.1c0-0.1,0-0.1,0-0.2c-0.1,0-0.1-0.1-0.2-0.1c-0.1,0-0.1-0.1-0.1-0.1
		c0.1-0.1,0.1-0.2,0.1-0.3c0.1,0,0.2-0.1,0.3-0.2c0-0.1,0.1-0.2,0.1-0.3c-0.1,0-0.1,0-0.1-0.1c0,0-0.1-0.1-0.1-0.1
		C88.8,113.6,88.8,113.6,88.7,113.7C88.7,113.6,88.7,113.7,88.7,113.7z M88.5,115.5c0,0.1-0.1,0.1-0.1,0.1c-0.1,0-0.1,0-0.1,0.1
		c0.1,0.1,0.2,0.2,0.4,0.1c0.2-0.1,0.3-0.1,0.5-0.1c0-0.1,0.1-0.2,0.1-0.2c0-0.1,0.1-0.2,0.1-0.3c0-0.1,0-0.1-0.1-0.1
		c0,0.1-0.1,0.2-0.2,0.3C88.8,115.4,88.6,115.5,88.5,115.5z M88.5,108.3c0,0-0.1,0-0.1-0.1c-0.1,0-0.1,0-0.1,0.1
		C88.3,108.3,88.4,108.4,88.5,108.3C88.5,108.4,88.5,108.4,88.5,108.3z M88.3,112.2h0.2V112h-0.2V112.2z M88.5,117
		c0.1,0,0.2,0,0.2-0.1c0-0.1,0.1-0.1,0.1-0.2c0-0.1,0-0.1-0.1-0.2s-0.1-0.1-0.2-0.1c0,0.1,0,0.2-0.1,0.2S88.5,117,88.5,117z
		 M88.5,113.4c0.2,0,0.3,0,0.2-0.2c0-0.1,0-0.2,0-0.3h-0.2c0,0-0.1,0.1-0.1,0.2C88.5,113.2,88.5,113.3,88.5,113.4z M88.7,117.5
		L88.7,117.5h-0.1c0,0,0,0,0,0.1c0,0,0,0.1,0,0.1c0.2,0,0.3-0.1,0.3-0.3C88.9,117.3,88.8,117.3,88.7,117.5
		C88.8,117.4,88.8,117.5,88.7,117.5z"/>
	<path d="M99.8,106c0.7,0,1.4,0,2.1,0s1.4,0,2.2,0c0.1,0,0.1,0,0.1,0s0.1,0,0.1,0c0.2,0,0.3,0,0.4,0c0.1,0,0.2,0,0.4,0
		c0.2,0,0.5,0.1,0.8,0.2c0.3,0.1,0.6,0.2,0.8,0.3c0.1,0,0.1,0.1,0.2,0.1c0,0,0.1,0.1,0.1,0.1s0.1,0,0.1,0.1c0,0,0,0.1,0.1,0.1
		c0,0,0.1,0,0.1,0.1c0,0,0.1,0.1,0.2,0.1c0.1,0.1,0.2,0.1,0.2,0.1c0,0,0,0.1,0,0.1c0,0,0,0.1,0,0.1c0,0,0.1,0.1,0.1,0.1
		c0.1,0,0.1,0.1,0.1,0.1s0,0.1,0,0.1c0,0,0,0.1,0,0.1c0,0,0,0,0.1,0c0,0,0,0,0.1,0.1c0.1,0.2,0.3,0.5,0.3,0.9v0.1
		c0,0.1,0,0.2,0.1,0.3s0,0.3,0,0.5s0,0.4,0,0.6s0,0.3,0,0.5c0,0.2-0.1,0.6-0.1,0.9s-0.1,0.7-0.3,0.9c0,0,0,0,0,0s0,0,0,0
		c0,0,0,0.1-0.1,0.1c0,0,0,0.1,0,0.1c0,0,0,0,0,0.1c0,0,0,0-0.1,0c0,0,0,0-0.1,0c0,0,0,0.1,0,0.1c0,0,0,0.1-0.1,0.1
		c-0.1,0.1-0.2,0.2-0.2,0.2c-0.1,0.1-0.2,0.1-0.3,0.2c0.1,0.1,0.2,0.2,0.3,0.2c0.1,0,0.2,0.1,0.3,0.2c0.2,0.2,0.3,0.4,0.4,0.7
		c0.1,0.3,0.2,0.6,0.2,0.9c0,0.2,0,0.3,0.1,0.6c0,0.2,0,0.4,0,0.7c0,0.2,0,0.5,0,0.7s0,0.4-0.1,0.5c0,0.1-0.1,0.2-0.1,0.4
		c0,0.1-0.1,0.2-0.1,0.4v0.1v0.1c-0.1,0.1-0.1,0.1-0.1,0.2v0.1v0.1c0,0,0,0-0.1,0.1c0,0-0.1,0.1-0.1,0.1s0,0.1-0.1,0.1
		c0,0.1-0.1,0.1-0.1,0.1c0,0,0,0.1-0.1,0.1s0,0.1,0,0.1c0,0.1-0.1,0.2-0.2,0.3c-0.1,0.1-0.2,0.2-0.3,0.3c0,0-0.1,0-0.1,0.1
		c0,0,0,0.1,0,0.1c0,0-0.1,0-0.1,0c0,0-0.1,0-0.1,0c0,0,0,0,0,0s0,0,0,0c0,0,0,0-0.1,0l-0.1,0c0,0,0,0-0.1,0.1c0,0,0,0-0.1,0
		c0,0-0.1,0-0.1,0c0,0-0.1,0-0.1,0c0,0,0,0,0,0s0,0,0,0c0,0-0.1,0-0.1,0.1c-0.1,0-0.1,0.1-0.2,0.1s-0.1,0-0.2,0.1c0,0,0,0,0,0
		s0,0,0,0h-0.1c0,0-0.1,0-0.3,0.1v0c0,0,0,0-0.1,0h-0.2c-0.4,0.1-0.8,0.1-1.3,0.1c-0.5,0-1,0-1.5,0h-2.6v-15.3
		C99.8,106.1,99.8,106,99.8,106z M108.6,108.2c0.1-0.1,0.1-0.1,0.2,0c0.1,0.1,0.2,0.1,0.3,0c0,0.1,0,0.1,0,0.1s0.1,0,0.1,0.1v0.1
		c0,0,0,0,0.1,0.1c0,0,0,0,0.1,0.1v0.1c0,0,0.1,0.1,0.1,0.1s0,0.1,0.1,0.2h0c0,0,0,0,0,0.1c0,0,0,0.1,0,0.1c0,0,0,0,0,0.1
		c0,0.2,0,0.4,0,0.7c0,0.3,0,0.5,0,0.8c0,0.6-0.1,1.2-0.3,1.7c0,0,0,0.1,0,0.1c0,0.1,0,0.1-0.1,0.1c0,0,0,0,0,0.1c0,0,0,0.1-0.1,0.1
		c0,0,0,0.1,0,0.1s0,0,0,0.1c0,0,0,0.1-0.1,0.1c0,0,0,0,0,0.1c0,0,0,0.1,0,0.1c0,0,0,0,0,0.1c0,0,0,0-0.1,0c0,0,0,0-0.1,0.1
		c0,0-0.1,0.1-0.1,0.1c0,0-0.1,0.1-0.1,0.1c0.1,0.1,0.2,0.3,0.3,0.3c0.1,0.1,0.2,0.2,0.3,0.4c0,0,0,0,0,0.1c0,0,0,0.1,0,0.1
		c0,0,0,0,0.1,0.1s0,0,0,0.1c0,0.1,0,0.1,0,0.1s0,0.1,0,0.2c0,0,0,0.1,0,0.1c0,0,0,0.1,0,0.2c0,0.2,0,0.5,0.1,0.8s0,0.6,0.1,0.9
		s0,0.6,0,0.9c0,0.3,0,0.6-0.1,0.8c0,0.1-0.1,0.2-0.1,0.3c0,0.1-0.1,0.2-0.1,0.3c0,0.1,0,0.1,0,0.1c0,0,0,0.1,0,0.1c0,0,0,0,0,0.1
		c0,0,0,0-0.1,0.1v0.1c0,0.1-0.1,0.2-0.1,0.3s-0.1,0.2-0.2,0.3c-0.1,0.2-0.3,0.4-0.4,0.6c-0.1,0.2-0.3,0.3-0.4,0.5
		c0,0-0.1,0.1-0.3,0.2c0,0-0.1,0.1-0.1,0.1c-0.1,0.1-0.2,0.1-0.4,0.2c-0.2,0.1-0.3,0.2-0.5,0.2c-0.1,0-0.2,0.1-0.2,0.1
		c-0.1,0-0.2,0-0.3,0.1c-0.1,0-0.1,0.1-0.2,0.1c-0.1,0-0.1,0-0.2,0.1h-0.1c-0.1,0.1-0.1,0.1-0.3,0.1c-0.1,0-0.3,0-0.5,0
		s-0.3,0-0.5,0c-0.2,0-0.3,0-0.4,0c-0.6,0-1.1,0-1.7,0c-0.6,0-1.2,0-1.8,0h-0.3c0,0-0.1,0-0.2,0c-0.1,0-0.1,0-0.1-0.1
		c0-0.1,0-0.1,0-0.2c0-0.1,0-0.1,0.1-0.1c0.1,0,0.1,0,0.2,0c0,0,0.1,0,0.2,0c0.1,0,0.2-0.1,0.3-0.1c0.1,0,0.2,0,0.3-0.1
		c0.4-0.1,0.7-0.1,1,0s0.7,0,1,0c0.4,0,0.8,0,1.3,0c0.4,0,0.8,0,1.1-0.1c0,0,0.1,0,0.1,0c0,0,0.1,0,0.1,0c0.1,0,0.1-0.1,0.2-0.1
		c0,0,0.1,0,0.2-0.1c0.1,0,0.2-0.1,0.3-0.1c0.1,0,0.2-0.1,0.3-0.1c0.1,0,0.1,0,0.2-0.1c0-0.1,0-0.1,0.1-0.1h0.1v0c0,0,0,0,0,0h0.1
		v-0.1c0,0,0,0,0.1,0s0.1,0,0.1,0c0,0,0,0,0-0.1s0,0,0-0.1c0.1,0,0.2-0.1,0.2-0.1c0.1-0.1,0.2-0.2,0.3-0.3c0.1-0.1,0.2-0.3,0.3-0.4
		l0.1-0.1c0,0,0-0.1,0-0.1s0-0.1,0-0.1c0,0,0,0,0.1-0.1s0,0,0-0.1c0-0.1,0.1-0.1,0.1-0.2s0-0.1,0.1-0.2c0,0,0,0,0,0c0,0,0,0,0,0
		v-0.1c0,0,0-0.1,0.1-0.3c0,0,0.1,0,0.1-0.1c0-0.1,0-0.2,0-0.3s0-0.3,0.1-0.4c0-0.2,0-0.5,0-0.8c0-0.3,0-0.6-0.1-0.9
		c0-0.3,0-0.5,0-0.8c0-0.3-0.1-0.5-0.1-0.7c-0.1-0.1-0.1-0.3-0.2-0.4c-0.1-0.1-0.2-0.2-0.3-0.3c0,0-0.1,0-0.1-0.1
		c0,0-0.1-0.1-0.1-0.1c-0.1,0-0.1,0-0.2-0.1c-0.1-0.1-0.1-0.2-0.2-0.2c0-0.1,0.1-0.1,0.2-0.2c0.1,0,0.1-0.1,0.2-0.1
		c0,0,0.1-0.1,0.1-0.1c0,0,0,0,0.1-0.1v-0.1v-0.1c0,0,0.1-0.1,0.1-0.1c0,0,0,0,0-0.1c0,0,0,0,0-0.1c0,0,0,0,0.1,0v-0.1v-0.1
		c0,0,0,0,0.1-0.1s0.1-0.1,0.1-0.2c0,0,0,0,0-0.1s0,0,0-0.1c0-0.1,0.1-0.1,0.1-0.2c0-0.1,0-0.1,0.1-0.2c0,0,0,0,0,0c0,0,0,0,0,0
		c0-0.1,0-0.2,0.1-0.3c0-0.1,0.1-0.3,0.1-0.4c0-0.1,0-0.3,0-0.4s0-0.3,0-0.5c0-0.2,0-0.5,0-0.8c0-0.3,0-0.6,0-0.9v-0.1
		c0,0-0.1-0.1-0.1-0.3c0-0.1-0.1-0.2-0.1-0.2C108.8,108.3,108.7,108.3,108.6,108.2z M100.8,118.4h0.2c0,0,0-0.1,0-0.1
		c0,0,0-0.1-0.1-0.1C100.9,118.3,100.9,118.4,100.8,118.4C100.8,118.3,100.7,118.3,100.8,118.4z M100.8,119.3c0.1,0,0.1,0,0.1,0
		s0-0.1,0.1-0.1s0-0.1,0-0.1c0,0-0.1-0.1-0.1-0.1c0,0.1,0,0.1,0,0.2C100.8,119.1,100.8,119.2,100.8,119.3z M100.8,117.8
		c0.1,0.1,0.2,0,0.2-0.1c0-0.1,0-0.2-0.1-0.2c0,0.1,0,0.1,0,0.1C100.8,117.7,100.8,117.7,100.8,117.8z M100.9,110.5
		C100.9,110.5,101,110.5,100.9,110.5c0.1,0,0.1,0.1,0.1,0.1v0.1c0,0,0.1,0.1,0.1,0.1c0,0,0.1,0,0.1,0c0.1-0.1,0.1-0.1,0.3-0.1
		c0,0.1,0,0.1,0,0.1c0.1,0,0.1,0,0.1,0.1c0,0.1,0,0.1-0.1,0.1c0,0-0.1,0.1-0.1,0.1h0.3c0,0,0-0.1,0-0.2s0-0.2,0-0.3
		c-0.1,0-0.3,0-0.4-0.1c-0.1,0-0.2-0.1-0.3-0.1c0,0,0-0.1-0.1-0.1c0,0,0,0-0.1,0c0,0,0-0.1-0.1-0.1c0,0,0,0-0.1,0
		c0.1,0,0.1,0,0.1,0.1S100.9,110.4,100.9,110.5z M100.9,108h0.1c0,0,0-0.1,0.1-0.1c0,0-0.1,0-0.1,0c0,0-0.1,0-0.1,0V108z
		 M101.3,109.4h-0.2c0,0.1,0,0.2,0.1,0.1C101.2,109.5,101.3,109.5,101.3,109.4z M101.4,108c0,0.1,0,0.2-0.1,0.2
		c-0.1,0-0.1,0.1-0.1,0.2c0.1,0,0.3,0,0.3-0.1c0.1-0.1,0.1-0.2,0.2-0.2c-0.1,0-0.1,0-0.1,0C101.5,108,101.5,108,101.4,108z
		 M101.4,118.5c-0.1,0-0.2,0-0.2,0.1h0.3c0.1-0.1,0.1-0.2,0.1-0.2c0-0.1,0-0.1,0.1-0.2c-0.1,0-0.2,0-0.2,0.1
		S101.4,118.5,101.4,118.5z M101.2,108.9c0.4,0.1,0.6-0.1,0.6-0.4c-0.1,0-0.1,0-0.2-0.1c0,0.1-0.1,0.2-0.2,0.2
		C101.3,108.8,101.3,108.8,101.2,108.9z M101.2,110.1c0.2,0,0.3,0,0.4-0.1c0-0.1,0.1-0.2,0.2-0.3c-0.1,0-0.1-0.1-0.1-0.2
		c0-0.1,0-0.1-0.1-0.1c0,0.2-0.1,0.3-0.2,0.4C101.3,109.9,101.3,110,101.2,110.1z M101.4,112c0.1,0,0.1-0.1,0.1-0.3
		c0-0.2,0-0.2-0.1-0.2c0,0-0.1,0.1-0.1,0.3S101.3,112,101.4,112z M101.3,107.5h0.2c0-0.1,0-0.1-0.2-0.1V107.5z M101.4,112.5h0.2
		c0-0.1-0.1-0.2-0.2-0.2V112.5z M102.1,117.6c0-0.1,0-0.2-0.1-0.2c-0.1-0.1-0.2,0-0.3,0c0.1,0,0.1,0.1,0.1,0.1
		C101.9,117.6,102,117.6,102.1,117.6z M101.9,116.7c0-0.1,0-0.1,0-0.1c0,0,0.1,0,0.1-0.1c-0.1,0-0.1,0-0.2,0.1
		C101.8,116.6,101.8,116.6,101.9,116.7z M102.4,119.9v0.1c0.1,0,0.1,0,0.1-0.1S102.5,119.9,102.4,119.9
		C102.5,119.9,102.5,119.9,102.4,119.9z M102.8,119.6c0-0.1,0-0.1-0.1-0.1c-0.1,0-0.1,0-0.1,0.1c0,0,0.1,0,0.1,0.1
		S102.8,119.6,102.8,119.6z M104.5,112.6c0,0,0.1-0.1,0.1-0.1c0.1,0,0.1,0,0.1,0c0,0,0,0,0.1,0c0,0,0,0,0.1-0.1
		c0.1,0,0.1-0.1,0.1-0.1c0,0,0.1,0,0.1-0.1c0,0,0-0.1,0.1-0.1c0,0,0.1,0,0.1-0.1c0,0,0,0,0,0s0,0,0,0c0-0.1,0.1-0.1,0.1-0.2
		s0-0.2,0.1-0.2c0.2-0.5,0.2-1.1,0.1-1.6c0-0.2-0.1-0.3-0.1-0.5c-0.1-0.2-0.2-0.3-0.2-0.4c-0.1-0.2-0.2-0.3-0.4-0.3
		c-0.1,0-0.1-0.1-0.2-0.1c0,0-0.1,0-0.2,0c0,0,0,0,0,0l0,0c-0.1,0-0.2,0-0.4,0c-0.2,0-0.3,0-0.5,0c-0.2,0-0.3,0-0.5,0
		c-0.1,0-0.3,0-0.4,0v0.2c0.1,0.5,0.1,1.1,0,1.8c-0.1,0.7-0.1,1.2,0,1.8c0,0.1,0,0.2,0,0.3c0,0.1,0.1,0.1,0.2,0.1
		c0.1,0,0.1,0,0.1-0.1c0-0.1,0-0.2,0-0.2c0-0.6,0-1.1,0-1.7c0-0.6,0-1.1,0-1.6c0.1,0,0.3,0,0.4-0.1c0.1,0,0.2,0,0.3,0
		c0.2,0,0.3,0.1,0.4,0.2c0.1,0.1,0.2,0.2,0.3,0.3c0,0,0.1,0,0.1,0.1s0.1,0.1,0,0.1h-1v3.1c0.1,0,0.3,0,0.5,0
		C104.3,112.7,104.4,112.7,104.5,112.6z M104.5,118.9c0.1,0,0.1,0,0.1,0c0,0,0,0,0.1,0h0.1v-0.1h0.1c0,0,0.1-0.1,0.1-0.1h0.1
		c0,0,0.1,0,0.1-0.1c0,0,0-0.1,0.1-0.1c0,0,0.1-0.1,0.1-0.1c0,0,0.1,0,0.1-0.1c0,0,0-0.1,0-0.1c0-0.1,0-0.1,0-0.2c0,0,0-0.1,0-0.1
		c0,0,0,0,0-0.1c0,0,0-0.1,0-0.1h0c0-0.2,0-0.4,0-0.5s0-0.3,0-0.4c0-0.1,0-0.2,0-0.2s0-0.1,0-0.1c0-0.1-0.1-0.2-0.1-0.3
		s0-0.1-0.1-0.2l-0.1-0.1c0,0,0-0.1,0-0.1s0,0,0-0.1c0,0,0,0,0-0.1c0,0,0,0-0.1-0.1c0,0-0.1-0.1-0.1-0.1c0,0-0.1,0-0.1-0.1
		c0,0,0,0,0-0.1c0,0,0-0.1,0-0.1h-0.1c0,0-0.1,0-0.1,0c0,0-0.1,0-0.1,0c0,0,0,0,0,0l0,0c-0.2,0-0.5,0-0.8,0c-0.3,0-0.6,0-0.8,0v3.7
		c0.4,0,0.7,0,1,0C104.1,119,104.3,119,104.5,118.9z M103,119.4c0,0.1,0,0.1,0.2,0.1c0.1,0,0.2-0.1,0.1-0.2c-0.1,0-0.1,0-0.2,0
		C103.1,119.4,103.1,119.4,103,119.4z M103,114.2c0.1,0,0.1,0,0.2,0c0.1,0,0.1,0,0.1-0.1H103V114.2z M103.1,115.6
		c0.3,0.1,0.5,0.2,0.8,0.3s0.5,0.2,0.7,0.3c-0.1,0.1-0.1,0.1-0.2,0.1s-0.2,0-0.3,0h-0.5v2.3h-0.6c-0.1-0.4-0.1-0.9-0.1-1.4
		S103.1,116.1,103.1,115.6z M103.6,114.1c0,0.1,0,0.2,0,0.2c0,0,0.1,0,0.2,0c0.1,0,0.1,0,0.2-0.1s0.1-0.1,0.1-0.1
		c-0.1,0-0.2,0-0.2,0S103.7,114.1,103.6,114.1z M105.4,107.6h0.2c0-0.2,0-0.2-0.2-0.2V107.6z M105.6,112.6c0.1,0,0.1,0,0.2-0.1
		c0-0.1,0-0.1,0.1-0.2c-0.1,0-0.1,0-0.2,0.1S105.7,112.6,105.6,112.6z M105.9,114.8c-0.1,0-0.1,0-0.2,0c-0.1,0-0.1,0-0.1,0.1
		c0.1,0.1,0.2,0.1,0.3,0.1c0.1,0,0.2,0,0.3,0v0.1c0,0,0,0.1,0.1,0.1c0,0,0.1,0,0.1,0c0-0.1,0-0.2-0.1-0.2
		C106.1,114.8,106,114.8,105.9,114.8z M106,107.6h0.1c0,0,0-0.1,0-0.1c0,0,0,0,0-0.1c0,0-0.1,0-0.1,0c0,0,0,0-0.1,0V107.6z
		 M106.1,108.2c0.1,0,0.1,0,0.2,0c0.1,0,0.1,0,0-0.1h-0.2V108.2z M106.3,111.3c0.1,0,0.3,0,0.3,0c0.1,0,0.1-0.1,0.1-0.2
		c-0.1,0-0.2,0.1-0.3,0.1S106.3,111.1,106.3,111.3z M106.3,108.7c0.3,0,0.5-0.1,0.5-0.5c0,0-0.1,0-0.1,0c0,0,0,0-0.1-0.1
		c0,0.1,0,0.2,0,0.2c0,0-0.1,0.1-0.1,0.1c0,0-0.1,0.1-0.1,0.1C106.3,108.6,106.3,108.6,106.3,108.7z M106.7,109.2
		c-0.1,0-0.2,0-0.2-0.1s-0.1-0.1-0.2-0.1c0,0.1,0,0.2,0.1,0.3c0.1,0,0.1,0.1,0.1,0.3c0.1,0,0.2,0,0.3-0.1c0.1-0.1,0.1-0.2,0.1-0.2
		c0,0,0-0.1,0.1-0.3s0-0.2-0.1-0.2C106.9,109,106.8,109.1,106.7,109.2z M106.9,110c0,0.1-0.1,0.1-0.1,0.1c0,0-0.1,0-0.1,0
		c0,0,0,0.1,0,0.1s0,0,0,0c0,0,0,0,0,0s0,0-0.1,0c0,0.1,0,0.3,0,0.3c0,0.1,0.1,0.1,0.3,0.1c0.1-0.1,0.1-0.1,0.1-0.1
		c0,0-0.1-0.1-0.1-0.1c0.1,0,0.2-0.1,0.2-0.1s0.1-0.1,0.2-0.1c0-0.1,0-0.2,0-0.3s0-0.1-0.1-0.1C106.9,109.8,106.9,109.8,106.9,110z
		 M106.5,119.6C106.5,119.6,106.6,119.5,106.5,119.6c0.2-0.1,0.1-0.1,0.1-0.2C106.6,119.5,106.6,119.5,106.5,119.6
		C106.5,119.6,106.5,119.6,106.5,119.6z M106.7,115.8c0-0.1,0-0.1,0-0.1s0.1,0,0.1-0.1c-0.1,0-0.1,0-0.2,0.1
		S106.6,115.7,106.7,115.8z M106.9,115.3c0.1-0.1,0.1-0.2,0-0.3c0-0.1-0.1-0.1-0.2-0.1c0,0.1,0,0.2,0,0.3
		C106.8,115.3,106.8,115.3,106.9,115.3z M107.3,117.4c-0.1-0.1-0.2-0.1-0.3-0.1c-0.1,0-0.2,0.1-0.2,0.2c0.1,0,0.2,0,0.3,0
		c0.1,0,0.2,0,0.3-0.1c0,0.1,0,0.2,0.1,0.2c0-0.1,0-0.2,0-0.4c0-0.1,0-0.2-0.1-0.3C107.5,117.2,107.5,117.3,107.3,117.4z
		 M107.2,118.3c-0.1,0-0.1,0-0.1-0.1h-0.2c0,0.1,0,0.1,0.1,0.2C107.1,118.4,107.2,118.3,107.2,118.3z M106.9,116.3
		c0.1,0,0.1,0,0.1,0c0,0,0.1,0,0.1,0c0-0.1-0.1-0.2-0.2-0.2c0,0.1,0,0.1,0,0.1C106.9,116.2,106.9,116.3,106.9,116.3z M107.1,116.9
		c0.1,0,0.2,0,0.3-0.1c0-0.1,0-0.2-0.1-0.2c0,0.1-0.1,0.1-0.1,0.1C107.1,116.8,107.1,116.8,107.1,116.9z M107.3,118v-0.2h-0.2
		C107.1,118,107.1,118,107.3,118z"/>
	<path d="M112.2,107.9L112.2,107.9l0.1-0.2c0,0,0.1,0,0.1-0.1c0,0,0.1-0.1,0.1-0.1c0-0.1,0.1-0.2,0.2-0.3s0.2-0.2,0.3-0.3
		c0,0,0,0,0-0.1c0,0,0,0,0,0h0.1c0,0,0.1-0.1,0.1-0.1s0-0.1,0.1-0.1h0.1c0.1-0.1,0.1-0.1,0.2-0.2c0.1-0.1,0.2-0.1,0.3-0.2
		c0.2-0.1,0.4-0.2,0.6-0.3c0.2-0.1,0.5-0.1,0.8-0.2c0,0,0.1,0,0.1,0c0,0,0.1,0,0.1,0c0.1,0,0.3-0.1,0.6-0.1c0.3,0,0.6,0,0.8,0
		c0.1,0,0.2,0,0.3,0.1c0.1,0,0.2,0.1,0.3,0.1c0.1,0,0.2,0.1,0.3,0.1c0,0,0.1,0,0.1,0c0.1,0,0.1,0,0.2,0.1c0,0,0,0,0.1,0
		c0,0,0,0,0.1,0.1c0,0,0.1,0,0.1,0s0,0,0.1,0c0,0,0.1,0,0.1,0c0,0,0,0,0.1,0.1h0.1c0,0,0.1,0.1,0.1,0.1c0.1,0,0.1,0,0.2,0.1
		c0,0,0.1,0,0.1,0.1s0,0,0.1,0.1h0.1v0.1c0,0,0,0,0.1,0c0,0,0.1,0,0.1,0c0,0,0,0,0,0s0,0,0,0.1c0,0,0.1,0,0.1,0c0,0,0,0,0.1,0
		c0,0,0,0,0,0.1s0,0,0,0.1c0.1,0.1,0.2,0.1,0.3,0.2c0.1,0.1,0.2,0.2,0.2,0.3c0,0,0.1,0.1,0.1,0.1c0,0,0.1,0.1,0.1,0.1
		c0,0,0,0.1,0.1,0.1c0,0,0,0.1,0.1,0.1s0,0,0.1,0.1v0.1v0.1h0.1v0.1v0.1h0.1v0.1c0,0,0,0,0,0c0,0,0,0,0,0.1l0,0.1h0
		c0,0.1,0.1,0.2,0.1,0.3c0,0.1,0,0.2,0,0.3c0.1,0.3,0.1,0.6,0.1,1s0,0.7,0,1.1c0,1.1,0,2.3,0,3.4c0,1.2,0,2.3,0,3.5
		c0,0.1,0,0.2,0,0.3c0,0.1,0,0.2-0.1,0.3c0,0.1,0,0.2-0.1,0.3c0,0.1-0.1,0.2-0.1,0.3c0,0,0,0.1,0,0.1c0,0,0,0.1,0,0.1
		c0,0,0,0.1-0.1,0.2c0,0,0,0-0.1,0.1c0,0,0,0,0,0.1c0,0,0,0.1,0,0.1s0,0,0,0.1c0,0,0,0.1-0.1,0.1s0,0-0.1,0.1c0,0,0,0-0.1,0
		c0,0,0,0-0.1,0.1c0,0,0,0,0,0.1s0,0.1,0,0.1c0,0-0.1,0.1-0.2,0.2c-0.1,0.1-0.2,0.1-0.2,0.1c0,0-0.1,0-0.1,0.1
		c0,0.1-0.1,0.1-0.1,0.1c0,0-0.1,0-0.1,0s0,0-0.1,0c0,0,0,0,0,0c0,0,0,0,0,0c0,0-0.1,0-0.1,0c0,0-0.1,0-0.1,0.1c0,0-0.1,0.1-0.1,0.1
		c-0.1,0-0.2,0.1-0.3,0.1c0,0-0.1,0-0.1,0s0,0,0,0.1c0,0,0,0-0.1,0s0,0-0.1,0c0,0-0.1,0.1-0.2,0.1h-0.1c0,0-0.1,0.1-0.3,0.1
		c-0.2,0-0.3,0.1-0.4,0.1c-0.5,0.1-1,0.1-1.6,0.1c-0.6,0-1.1-0.1-1.5-0.3h-0.1v0v0c0,0,0,0-0.1,0c0,0,0,0-0.1,0c0,0-0.1-0.1-0.2-0.1
		c-0.1-0.1-0.2-0.1-0.2-0.1c0,0-0.1,0-0.1-0.1s0,0,0-0.1c-0.1,0-0.1,0-0.1,0c0,0-0.1,0-0.1-0.1c0,0,0,0,0,0s0,0,0,0s-0.1,0-0.1-0.1
		c0,0-0.1-0.1-0.1-0.1c-0.1,0-0.1-0.1-0.2-0.1c0-0.1-0.1-0.1-0.1-0.2c0,0-0.1-0.1-0.1-0.1c-0.1,0-0.1-0.1-0.1-0.1c0,0,0-0.1,0-0.1
		c0,0,0,0,0-0.1c-0.1-0.1-0.1-0.1-0.1-0.1c0,0,0-0.1-0.1-0.1c0,0,0,0-0.1-0.1v-0.1v-0.1c0,0-0.1,0-0.1-0.1s0-0.1-0.1-0.1
		c0,0,0,0-0.1-0.1s0,0,0-0.1v-0.1l-0.1-0.2c0,0-0.1-0.1-0.1-0.1l-0.1-0.1c-0.1-0.4-0.1-0.8-0.1-1.2c0-0.4,0-0.8,0-1.2v-5
		c0-0.4,0-0.9,0-1.4c0-0.5,0-0.9,0.1-1.2c0-0.1,0-0.2,0-0.2c0-0.1,0-0.1,0-0.2c0-0.1,0-0.2,0.1-0.3v-0.1v-0.1h0.1v-0.1h0.1v-0.1
		c0,0,0.1,0,0.1-0.1C112.2,108,112.2,108,112.2,107.9C112.2,108,112.2,108,112.2,107.9z M112.4,108.3c0.1,0,0.1-0.1,0.1-0.2
		s-0.1-0.1-0.2-0.1c0,0.1-0.1,0.1-0.1,0.2C112.2,108.3,112.2,108.3,112.4,108.3z M112.5,118.5c0,0.1,0,0.1,0,0.1c0,0,0.1,0,0,0.1
		c0.2,0,0.3-0.1,0.3-0.3c-0.1-0.1-0.1-0.1-0.2,0S112.6,118.5,112.5,118.5z M112.6,108.6c0.1,0,0.2,0,0.2-0.1s-0.1-0.2-0.2-0.1V108.6
		z M112.7,117.9l0.1,0.1c0,0.1,0.1,0.1,0.1,0.1h0.1h0.1c0.1,0.1,0.1,0.1,0.3,0.1s0.2-0.1,0.2-0.2c-0.1,0-0.2,0-0.3,0
		c-0.1,0-0.1-0.1-0.1-0.2c0-0.1-0.1-0.1-0.1-0.2c0-0.1-0.1-0.1-0.2-0.1c0,0.1,0,0.2,0,0.3S112.7,117.9,112.7,117.9z M113,116.1
		c0-0.1,0-0.2,0.1-0.2c0-0.1,0-0.1-0.1-0.2h-0.2C112.7,116,112.8,116.1,113,116.1z M112.9,112.7c0.1,0.1,0.3,0.1,0.4,0
		c0.1-0.1,0.2-0.2,0.2-0.3c-0.1,0-0.3,0-0.4,0S112.8,112.5,112.9,112.7z M113.3,111.7c0-0.2-0.1-0.2-0.3-0.2c0,0.1,0,0.2,0.1,0.2
		C113.1,111.7,113.2,111.7,113.3,111.7z M113.3,118.6c0,0.1,0,0.1-0.1,0.2c0,0.1,0,0.1,0,0.2c0,0-0.1,0-0.1-0.1s-0.1,0-0.1-0.1
		c0,0.2,0,0.3,0.2,0.3s0.3,0.1,0.3,0.2c0-0.1,0-0.2,0.1-0.2c0-0.1,0-0.2,0-0.2c0,0,0-0.1,0-0.2c0.1,0,0.1-0.1,0.1-0.2
		c0.1-0.1,0.1-0.1,0.2-0.2c0.1-0.1,0.1-0.2,0.1-0.3h-0.3c0,0.2,0,0.3-0.1,0.3C113.5,118.6,113.4,118.6,113.3,118.6z M113,119.8
		C113,119.8,113,119.9,113,119.8c0,0.1,0.1,0.1,0.1,0.1c0,0.1,0.1,0.1,0.2,0.1c0.1,0,0.2,0,0.3,0c0-0.1,0-0.2-0.2-0.3
		C113.2,119.7,113.1,119.8,113,119.8z M113.1,116.9c0.1,0,0.2,0,0.2-0.1c-0.1,0-0.1,0-0.1-0.1s0-0.1-0.1-0.1c0,0.1,0,0.1,0,0.1
		S113.1,116.8,113.1,116.9z M113.4,115c0-0.1,0-0.1-0.1-0.1c-0.1,0-0.1,0-0.2,0C113.1,115,113.2,115,113.4,115z M121,107.9
		C121,107.9,121,108,121,107.9c0.1,0.2,0.2,0.2,0.3,0.3c0.1,0.1,0.1,0.2,0.2,0.3c0.1,0.1,0.1,0.2,0.2,0.3c0.1,0.1,0.1,0.2,0.1,0.3
		v0.1v0.1h0.1c0,0.1,0,0.2,0,0.3s0,0.2,0,0.3c0.1,0.2,0.1,0.6,0.1,1s0,0.9,0,1.3v4.5c0,0.5,0,1,0,1.4c0,0.5,0,0.8-0.1,1.1
		c0,0,0,0,0,0.1s0,0,0,0.1h0h0c0,0,0,0.1,0,0.1c0,0.1,0,0.1,0,0.1c0,0,0,0-0.1,0s0,0,0,0v0.1v0.1h-0.1v0.1v0.1h-0.1c0,0,0,0,0,0.1
		c0,0,0,0,0,0.1c0,0-0.1,0.1-0.1,0.1c0,0-0.1,0.1-0.1,0.1l-0.1,0.2c0,0,0,0-0.1,0c0,0,0,0,0,0c0,0,0,0,0,0.1c0,0,0,0,0,0.1h0h0v0.1
		c0,0-0.1,0-0.1,0.1c0,0-0.1,0.1-0.1,0.1c0,0,0,0.1-0.1,0.2c-0.1,0.1-0.1,0.2-0.2,0.2c-0.1,0.1-0.1,0.1-0.2,0.2
		c-0.1,0.1-0.1,0.1-0.2,0.1c0,0,0,0,0,0s0,0-0.1,0c0,0-0.1,0.1-0.1,0.1c0,0,0,0-0.1,0.1c0,0-0.1,0-0.1,0.1c0,0-0.1,0-0.1,0.1
		c0,0-0.1,0-0.1,0.1l-0.1,0.1c0,0-0.1,0-0.1,0.1c0,0-0.1,0-0.1,0c0,0,0,0-0.1,0s0,0-0.1,0c0,0-0.1,0-0.1,0.1s-0.1,0-0.1,0.1
		c-0.1,0-0.1,0-0.1,0c0,0-0.1,0-0.1,0c0,0,0,0,0,0c0,0,0,0,0,0h-0.1c-0.1,0-0.1,0.1-0.2,0.1c0,0-0.1,0-0.2,0.1
		c-0.1,0-0.1,0.1-0.2,0.1c-0.1,0-0.2,0.1-0.3,0.1c-0.1,0-0.2,0-0.3,0.1h-0.1c-0.1,0-0.3,0.1-0.6,0.1c-0.2,0-0.5,0-0.7,0
		c-0.2,0-0.3,0-0.4,0c-0.1,0-0.3,0-0.4,0c0,0-0.1,0-0.1,0c0,0,0,0-0.1,0c-0.1,0-0.1-0.1-0.2-0.1h-0.1c0,0-0.1,0-0.1,0
		c0,0-0.1,0-0.1,0v-0.1c-0.1,0-0.2-0.1-0.2-0.1c-0.1,0-0.1,0-0.2-0.1c0,0,0-0.1-0.1-0.1h-0.1c0,0,0,0,0,0c0,0,0,0,0,0
		c0,0-0.1,0-0.1,0c0,0-0.1,0-0.1,0c0,0,0,0,0,0c0,0,0,0,0,0c0,0-0.1,0-0.1,0c-0.1,0-0.1-0.1-0.1-0.2c0.2-0.1,0.4-0.2,0.6-0.2
		s0.4,0,0.6,0.1c0.1,0,0.1,0,0.2,0.1c0.1,0,0.1,0,0.2,0.1c0.1,0,0.3,0,0.5,0c0.2,0,0.3,0,0.5,0c0.2,0,0.4,0,0.6,0c0.2,0,0.4,0,0.6,0
		c0.2,0,0.3-0.1,0.5-0.1s0.3-0.1,0.5-0.2c0.3-0.1,0.6-0.2,0.8-0.3s0.4-0.2,0.7-0.4c0.3-0.3,0.6-0.7,0.9-1.2c0,0,0.1-0.1,0.1-0.2
		c0,0,0,0,0,0s0,0,0,0c0,0,0-0.1,0.1-0.1s0.1-0.1,0.1-0.1c0,0,0-0.1,0.1-0.1c0,0,0.1-0.1,0.1-0.1v-0.1c0-0.1,0.1-0.3,0.1-0.5
		s0-0.4,0-0.6s0-0.5,0-0.7c0-0.2,0-0.4,0-0.6v-2.3c0-0.8,0-1.6,0-2.4c0-0.8,0-1.5,0-2.1c0-0.1,0-0.2,0-0.3c0-0.1,0-0.2,0-0.3l0,0
		c0,0,0,0,0,0c0-0.1,0-0.1,0-0.2s0-0.2,0-0.3c0-0.2-0.1-0.3-0.1-0.5c0-0.1,0-0.3-0.1-0.4h0.1V107.9z M113.7,119.8h0.4
		c0-0.1,0-0.1,0-0.2c0,0,0.1-0.1,0.1-0.1c-0.1-0.1-0.2-0.1-0.4,0C113.7,119.5,113.7,119.6,113.7,119.8z M114.5,120.5
		c0-0.1-0.1-0.1-0.2-0.1c-0.1,0-0.2,0-0.4,0c0,0.1,0.1,0.2,0.3,0.3C114.3,120.7,114.4,120.6,114.5,120.5z M115.7,108.6h-0.1
		c0,0,0,0-0.1,0.1c0,0,0,0-0.1,0.1c0,0-0.1,0-0.1,0s-0.1,0-0.1,0l-0.1,0.1c0,0,0,0-0.1,0s0,0,0,0.1c0,0,0,0,0,0c0,0,0,0,0,0
		c0,0,0,0.1,0,0.1s0,0.1,0,0.1c0,0,0,0-0.1,0s0,0,0,0.1c0,0.1-0.1,0.1-0.1,0.2c0,0.1-0.1,0.1-0.1,0.2c0,0.1-0.1,0.2-0.1,0.3
		c0,0.1,0,0.2,0,0.2c-0.1,0.3-0.1,0.7-0.1,1.1c0,0.4,0,0.9,0,1.3c0,0.7,0,1.5,0,2.4s0,1.6,0,2.4c0,0.1,0,0.3,0,0.5
		c0,0.2,0,0.3,0.1,0.3v0.1c0,0.1,0.1,0.3,0.1,0.3s0.1,0.2,0.2,0.3c0.1,0.1,0.2,0.2,0.2,0.2c0,0,0.1,0,0.1,0s0,0,0,0
		c0.1,0.1,0.2,0.1,0.3,0.1h0.1l0.1,0v0c0,0,0.1,0,0.1,0c0.1,0,0.1,0,0.2,0c0,0,0.1,0,0.1,0c0,0,0.1,0,0.1,0c0,0,0.1,0,0.1,0
		c0,0,0,0,0.1,0c0.2,0,0.3,0,0.3-0.1c0,0,0.1,0,0.1,0s0,0,0.1,0c0.1,0,0.1,0,0.2-0.1c0,0,0.1-0.1,0.1-0.1c0.1,0,0.1-0.1,0.2-0.1
		s0.1-0.1,0.1-0.1c0,0,0,0,0,0c0,0,0,0,0,0c0.1-0.2,0.2-0.5,0.3-0.8s0.1-0.6,0.1-1c0-1.1,0-2,0-3s0-1.9,0-3c0-0.2,0-0.5,0-0.7
		s0-0.5-0.1-0.7c0-0.2-0.1-0.2-0.1-0.3v-0.1c0,0,0-0.1,0-0.1s0,0-0.1,0v-0.1c0,0-0.1-0.1-0.2-0.2c-0.1-0.1-0.2-0.2-0.2-0.2
		c0,0-0.1,0-0.1,0s-0.1,0-0.1,0v-0.1h-0.1c-0.1,0-0.2-0.1-0.4-0.1c-0.2,0-0.3,0-0.3,0l-0.1,0c0,0,0,0,0,0
		C115.9,108.6,115.8,108.6,115.7,108.6z M115.2,120.7c0-0.1,0-0.1-0.1-0.2c-0.1,0-0.1,0-0.2,0c0,0.1,0,0.2,0.1,0.2
		C115,120.7,115.1,120.7,115.2,120.7z M117,109.4c-0.1,0-0.1,0-0.2,0c-0.1,0-0.2,0-0.2,0v0c0,0,0,0-0.1,0c0,0,0,0-0.1,0s0,0-0.1,0
		c-0.1,0.1-0.2,0.2-0.3,0.3c-0.1,0.2-0.2,0.3-0.2,0.5c0,0,0,0.1,0,0.1c0,0,0,0.1,0,0.1c-0.1,0.2-0.1,0.5-0.1,0.9c0,0.4,0,0.8,0,1.2
		v1.9c0,0.7,0,1.4,0,2.1c0,0.7,0,1.2,0.1,1.8c-0.1,0-0.2-0.1-0.3-0.1c-0.1,0-0.2-0.1-0.3-0.1v-5.8c0-0.4,0-0.7,0-1
		c0-0.3,0-0.6,0-0.9c0-0.1,0.1-0.3,0.1-0.5s0.1-0.3,0.2-0.5c0-0.1,0.1-0.1,0.1-0.2c0.1-0.1,0.1-0.1,0.2-0.2c0.1-0.1,0.2-0.2,0.3-0.2
		c0,0,0.1,0,0.1-0.1c0,0,0.1,0,0.1-0.1c0,0,0.1,0,0.1,0s0.1,0,0.1,0c0.1,0,0.1,0,0.1,0s0,0,0,0c0.1,0,0.1,0.1,0.1,0.1
		c0,0.1,0,0.1,0.1,0.2c0,0,0.1,0,0.1,0.1c0,0,0,0.1,0.1,0.1C117,109.4,117,109.4,117,109.4z M117.4,120.7c0.1,0,0.1,0,0.1-0.1
		c0-0.1,0-0.1-0.1-0.1V120.7z M118.5,108.3c0,0.1,0,0.2,0,0.3c0,0.1,0.1,0.1,0.2,0.1c0-0.1,0.1-0.1,0.1-0.2c0-0.1,0.1-0.1,0.1-0.2
		C118.7,108.3,118.6,108.3,118.5,108.3z M118.7,111.1c0.1,0,0.2,0,0.2,0.1s0.1,0.1,0.2,0.1c0.1-0.1,0.1-0.2,0-0.3
		c-0.1-0.1-0.2-0.2-0.2-0.2c0,0.1,0,0.1,0,0.1c0,0,0,0-0.1,0.1s-0.1,0-0.1,0.1S118.7,111,118.7,111.1z M118.8,109.8
		c-0.1,0.1,0,0.1,0,0.1c0.1,0,0.1,0.1,0.2,0.1c0.2,0.1,0.3,0.1,0.5,0.1c0-0.2-0.1-0.3-0.3-0.3S118.9,109.8,118.8,109.8z
		 M119.1,119.3c0.2,0,0.3,0,0.3-0.2c-0.1-0.1-0.2-0.1-0.3,0C119.1,119,119.1,119.1,119.1,119.3z M119.6,113.3c0-0.3-0.1-0.4-0.3-0.4
		c0,0.1,0,0.2,0.1,0.3C119.4,113.3,119.5,113.3,119.6,113.3z M119.6,114.6C119.6,114.5,119.6,114.5,119.6,114.6
		c-0.1-0.1-0.1-0.1-0.2-0.1c0,0-0.1,0-0.1-0.1c0,0-0.1,0-0.1,0c0,0.1,0,0.2,0.1,0.2C119.4,114.6,119.5,114.6,119.6,114.6z
		 M119.3,108.7h0.5c0-0.2,0-0.3,0.1-0.3c0.1-0.1,0.1-0.1,0-0.2c0,0-0.1-0.1-0.2-0.1c0,0.2,0,0.3-0.1,0.3
		C119.4,108.5,119.3,108.6,119.3,108.7z M119.5,112.2c0.1,0,0.1,0,0.1,0c0,0,0.1,0,0.1,0c0-0.2-0.1-0.3-0.3-0.3
		C119.4,112.1,119.4,112.2,119.5,112.2z"/>
	<path d="M123.3,106h3c0.1,0.2,0.2,0.4,0.2,0.6c0.1,0.2,0.1,0.4,0.2,0.6c0,0,0,0.1,0.1,0.1c0,0,0,0.1,0.1,0.1
		c0.1,0.2,0.1,0.4,0.2,0.6s0.1,0.4,0.2,0.6c0,0,0,0.1,0.1,0.1s0,0.1,0.1,0.2c0.1,0.5,0.3,1,0.5,1.6s0.4,1.1,0.5,1.6
		c0.1-0.1,0.1-0.2,0.1-0.3c0-0.1,0-0.2,0.1-0.4c0,0,0,0,0,0s0,0,0,0c0,0,0-0.1,0-0.1s0-0.1,0-0.1c0-0.1,0.1-0.2,0.1-0.3
		c0-0.1,0.1-0.3,0.1-0.4c0.2-0.8,0.5-1.5,0.7-2.3c0.2-0.8,0.5-1.6,0.7-2.3h3c0,0.1,0,0.2,0,0.2c0,0.1-0.1,0.1-0.1,0.2
		c0,0.1,0,0.1,0,0.2c0,0.1,0,0.1-0.1,0.2c0,0-0.1,0.1-0.1,0.2c0,0-0.1,0.1-0.1,0.2c0,0-0.1,0.1-0.1,0.2c0,0,0,0.1-0.1,0.2
		c0,0,0,0.1-0.1,0.2l-0.1,0.2c0,0,0,0.1-0.1,0.2c0,0,0,0.1-0.1,0.2c0,0,0,0.1-0.1,0.2l-0.1,0.1c0,0.1-0.1,0.1-0.1,0.2
		c0,0.1,0,0.1-0.1,0.2c0,0-0.1,0.1-0.1,0.2c0,0.1-0.1,0.1-0.1,0.2c0,0,0,0.1,0,0.1s0,0,0,0.1c0,0,0,0.1-0.1,0.2c0,0,0,0.1-0.1,0.2
		c0,0,0,0,0,0c0,0,0,0,0,0c0,0,0,0.1,0,0.2s0,0.1,0,0.2c0,0,0,0,0,0s0,0,0,0.1c0,0.1,0,0.1-0.1,0.1c0,0,0,0.1-0.1,0.2
		c0,0.1,0,0.1-0.1,0.2s0,0.1-0.1,0.2v0.1c0,0,0,0-0.1,0.1s0,0-0.1,0.1c0,0.1,0,0.1,0,0.2c0,0.1,0,0.1,0,0.2h0c0,0,0,0,0,0.1
		c0,0.1,0,0.1-0.1,0.1c0,0,0,0.1-0.1,0.2c0,0.1,0,0.1-0.1,0.2c0,0.1,0,0.1-0.1,0.2c0,0.1,0,0.1-0.1,0.1s0,0.1-0.1,0.2
		c0,0.1-0.1,0.2-0.1,0.3c0,0.1-0.1,0.2-0.1,0.4c0,0,0,0-0.1,0.1c0,0.1,0,0.1-0.1,0.1s0,0.1-0.1,0.2c0,0.1,0,0.1,0,0.1
		c0,0,0,0.1,0,0.2h0c0,0,0,0,0,0.1v0.1c-0.1,0.3-0.2,0.6-0.3,0.9c-0.1,0.3-0.2,0.7-0.3,1c0,0.1-0.1,0.2-0.1,0.3
		c-0.1,0.1-0.1,0.2-0.1,0.3c0,0.2,0,0.4,0,0.6c0,0.2,0,0.4,0,0.7v3.9h-3v-3.8c0-0.2,0-0.4,0-0.6s0-0.4,0-0.6c0-0.1,0-0.2-0.1-0.3
		s-0.1-0.2-0.1-0.3c-0.2-0.5-0.3-0.9-0.5-1.4c-0.2-0.5-0.3-1-0.5-1.5l-0.5-1.4v-0.1v-0.1c0,0-0.1-0.1-0.1-0.1c0,0,0-0.1-0.1-0.2
		c0,0,0-0.1,0-0.1s0,0,0-0.1c0,0,0-0.1,0-0.1c0,0,0-0.1-0.1-0.1c0-0.1-0.1-0.2-0.1-0.3s0-0.2-0.1-0.3v-0.1v-0.1c0,0-0.1-0.1-0.1-0.1
		c0,0-0.1-0.1-0.1-0.2c0-0.1-0.1-0.1-0.1-0.2c0-0.1-0.1-0.1-0.1-0.2c0,0-0.1-0.1-0.1-0.2l-0.1-0.2c0,0,0,0,0,0s0,0,0,0
		c0-0.1,0-0.2,0-0.2s0-0.1-0.1-0.2c0,0,0-0.1,0-0.1s0,0,0-0.1c0-0.1-0.1-0.1-0.1-0.2c0-0.1-0.1-0.1-0.1-0.2c0-0.1-0.1-0.1-0.1-0.2
		c0-0.1-0.1-0.1-0.1-0.2c0,0,0-0.1-0.1-0.1c0-0.1,0-0.1,0-0.2c0-0.1,0-0.1,0-0.2h0c0,0,0,0,0-0.1c0-0.1,0-0.1-0.1-0.1
		c0,0,0-0.1-0.1-0.2s0-0.1-0.1-0.2c0,0,0-0.1-0.1-0.2v-0.1c0,0,0,0-0.1-0.1s0,0,0-0.1c0-0.1-0.1-0.2-0.1-0.3c0,0-0.1,0-0.1-0.1
		C123.3,106.1,123.3,106,123.3,106z M124.9,108.4c-0.1,0-0.1-0.1-0.1-0.2s-0.1-0.1-0.2-0.2c0,0.1,0,0.2,0.1,0.3
		C124.7,108.5,124.8,108.5,124.9,108.4z M125,109.3c0,0,0.1-0.1,0.1-0.2c0-0.1,0-0.2-0.1-0.1c0,0,0,0.1,0,0.2
		C125,109.3,125,109.3,125,109.3z M125.3,110.1c0-0.1,0-0.2,0-0.2s0-0.1-0.1-0.1C125.2,109.9,125.2,110,125.3,110.1z M125.4,109v0.3
		c0.1,0,0.1,0,0.1-0.1c0-0.1,0-0.1,0-0.2c0.1-0.1,0.1-0.3,0.1-0.4c-0.1,0-0.2,0-0.2,0c0,0-0.1-0.1-0.2,0c0,0.1,0,0.2,0,0.2
		C125.3,108.9,125.3,108.9,125.4,109z M125.6,108.3c0-0.1,0-0.1-0.1-0.1c-0.1,0-0.1,0-0.2,0c0,0.1,0,0.1,0.1,0.2
		C125.5,108.5,125.6,108.4,125.6,108.3z M125.8,111.5h0.2v-0.2h-0.2V111.5z M125.9,112.8c0,0,0.1,0,0.2,0.1c0-0.1,0-0.1,0.1-0.1
		c0,0,0-0.1,0-0.2C126,112.5,125.9,112.6,125.9,112.8z M126.2,112.4v-0.2c0,0-0.1,0-0.1,0c0,0-0.1,0-0.1,0.1
		C126.1,112.3,126.1,112.3,126.2,112.4C126.1,112.4,126.1,112.4,126.2,112.4z M126.6,109.8c0.1,0,0.2,0,0.2-0.2
		C126.6,109.6,126.6,109.6,126.6,109.8z M126.7,109.4c0.1-0.1,0-0.1-0.1-0.1c-0.1,0-0.1,0-0.1,0.1l0.1,0.1H126.7z M128.3,111
		c-0.1-0.1-0.1-0.1-0.2-0.2c0-0.1,0-0.2-0.1-0.3c0-0.1-0.1-0.3-0.2-0.4c0,0,0,0,0-0.1s0,0,0-0.1c0,0-0.1-0.1-0.1-0.2
		c0-0.1,0-0.2-0.1-0.3h0c0,0,0,0,0-0.1c0-0.1,0-0.1,0-0.1c0,0,0-0.1,0-0.1v-0.1c-0.1,0-0.1-0.1-0.1-0.2s0-0.2-0.1-0.3c0,0,0,0,0,0
		c0,0,0,0,0,0c0-0.1,0-0.2-0.1-0.3c-0.1-0.2-0.1-0.4-0.1-0.5c0-0.2-0.1-0.3-0.2-0.5v-0.1V107c-0.1-0.1-0.1-0.1-0.1-0.2
		s0-0.2-0.1-0.3c0,0,0,0,0,0c0,0,0,0,0,0c0,0,0,0,0-0.1c0-0.1,0-0.2,0-0.2c0,0,0,0,0.1-0.1c0-0.1,0.1-0.1,0.1-0.1c0,0,0.1,0,0.1,0
		s0.1,0,0.1,0s0,0,0-0.1s0,0,0,0c0,0,0.1,0,0.1,0.1c0.2,0.7,0.5,1.5,0.7,2.2c0.2,0.7,0.5,1.4,0.7,2.1
		C128.6,110.6,128.5,110.8,128.3,111z M134.2,106.4c0,0.1,0,0.2,0,0.4c0,0.1-0.1,0.2-0.1,0.3c-0.1,0.3-0.2,0.6-0.3,0.9
		c-0.1,0.3-0.2,0.6-0.3,1c-0.2,0.4-0.3,0.8-0.5,1.3c-0.2,0.4-0.3,0.9-0.4,1.3c-0.1,0.2-0.1,0.4-0.2,0.6c-0.1,0.2-0.2,0.4-0.2,0.7
		c-0.1,0.3-0.2,0.6-0.3,1s-0.2,0.6-0.3,1c-0.1,0.2-0.1,0.4-0.2,0.6c-0.1,0.2-0.2,0.4-0.2,0.7c0,0.1-0.1,0.2-0.1,0.3
		c0,0.1-0.1,0.2-0.1,0.3c0,0.2,0,0.5,0,0.8c0,0.3,0,0.5,0,0.8v4.4H127c0-0.1,0.1-0.3,0.1-0.4s0.1-0.2,0.2-0.3
		c0.4,0.1,0.9,0.1,1.4,0.1c0.5,0,1,0,1.4,0c0.1,0,0.1-0.1,0.1-0.1c0-0.1,0-0.1,0-0.1c0-0.6,0-1.2,0-1.8c0-0.6,0-1.2,0-1.9
		c0-0.2,0-0.4,0-0.7c0-0.2,0-0.4,0-0.6c0-0.1,0-0.2,0.1-0.3s0.1-0.2,0.1-0.3c0.1-0.3,0.2-0.6,0.3-0.9c0.1-0.3,0.2-0.6,0.3-0.9V114
		c0,0,0.1-0.1,0.1-0.1l0.1-0.2c0,0,0-0.1,0.1-0.2c0,0,0-0.1,0.1-0.2c0,0,0-0.1,0-0.1s0,0,0-0.1c0,0,0-0.1,0.1-0.2c0,0,0-0.1,0.1-0.2
		c0,0,0-0.1,0-0.1c0,0,0,0,0-0.1c0,0,0-0.1,0-0.1s0,0,0-0.1c0-0.1,0.1-0.1,0.1-0.2c0-0.1,0.1-0.1,0.1-0.2c0-0.1,0.1-0.1,0.1-0.2
		c0-0.1,0.1-0.1,0.1-0.2c0-0.1,0.1-0.1,0.1-0.2l0.1-0.1c0-0.1,0-0.1,0-0.2c0-0.1,0-0.1,0-0.2c0,0,0,0,0,0s0,0,0,0
		c0-0.1,0-0.1,0.1-0.2s0-0.1,0.1-0.2c0-0.1,0-0.1,0.1-0.1c0,0,0-0.1,0.1-0.2c0-0.1,0-0.1,0.1-0.2c0,0,0-0.1,0.1-0.2s0.1-0.2,0.1-0.3
		c0-0.1,0-0.1,0.1-0.2c0,0,0-0.1,0.1-0.2c0-0.1,0-0.1,0.1-0.2c0-0.1,0-0.1,0.1-0.2c0-0.1,0-0.1,0-0.1c0,0,0-0.1,0-0.1l0.1-0.1
		c0-0.1,0-0.1,0-0.2s0-0.1,0-0.2h0c0,0,0,0,0-0.1c0-0.1,0.1-0.2,0.1-0.3c0-0.1,0.1-0.2,0.1-0.3c0-0.1,0-0.1,0-0.1s0-0.1,0-0.1
		c0,0,0,0,0,0s0,0,0-0.1v-0.1c0-0.1,0.1-0.2,0.1-0.3c0-0.1,0.1-0.2,0.1-0.3c0.1-0.1,0.1-0.2,0.1-0.3c0-0.1,0.1-0.2,0.2-0.2
		c0.1,0,0.2,0,0.3,0S134.1,106.3,134.2,106.4z M127.8,117.6c0.1-0.1,0.1-0.1,0.1-0.3h-0.2c0,0.1,0,0.1,0,0.2
		C127.6,117.6,127.7,117.6,127.8,117.6z M127.9,119.8c0.1,0,0.1-0.1,0.1-0.2c0-0.1-0.1-0.1-0.2-0.1
		C127.8,119.7,127.8,119.8,127.9,119.8z M127.9,118.7c0.1,0,0.1,0.1,0.2,0.1c0.1,0,0.1,0,0.2-0.1c-0.1,0-0.1-0.1-0.2-0.1
		C128,118.6,127.9,118.6,127.9,118.7z M128,119.1c0,0.1,0.1,0.2,0.2,0.2C128.3,119.1,128.2,119.1,128,119.1
		C128.1,119.1,128.1,119.1,128,119.1z M128.2,115.1C128.2,115.2,128.1,115.2,128.2,115.1c-0.1,0-0.1,0-0.1,0.1
		c0.1,0,0.1,0.1,0.1,0.1c0,0.1,0,0.1,0.1,0.1c0-0.1,0-0.2,0.1-0.2c0.1,0,0.1-0.1,0.1-0.2c-0.1,0-0.2,0-0.2,0
		C128.3,115.1,128.3,115.1,128.2,115.1z M128.1,116c0.1,0,0.2,0,0.2-0.1s0-0.2-0.1-0.2C128.1,115.8,128.1,115.9,128.1,116z
		 M128.1,116.4v0.3c0.1,0,0.1,0,0.1,0s0.1,0,0.2,0c0,0,0.1,0.1,0.1,0.1c0,0.1,0,0.1,0.1,0.1c0-0.1,0.1-0.1,0.1-0.1c0,0,0-0.1,0-0.1
		l0-0.1h0c0,0-0.1-0.1-0.1-0.1c0,0-0.1-0.1-0.1-0.1s0,0-0.1-0.1c0,0,0-0.1,0-0.1c0,0,0-0.1-0.1,0
		C128.3,116.4,128.3,116.4,128.1,116.4z M128.3,118.3c0,0.1,0.1,0.1,0.1,0.2c0.1,0,0.1,0.1,0.2,0.1c0-0.1,0-0.1,0.1-0.1
		c0,0,0-0.1,0-0.2c0-0.1-0.1-0.1-0.1-0.1c-0.1,0-0.1,0,0-0.1c0,0,0-0.1-0.1-0.1c0,0-0.1,0.1-0.1,0.1
		C128.3,118.2,128.2,118.2,128.3,118.3z M128.5,119.2c0-0.1,0.1-0.1,0.1-0.1c0.1,0,0.1-0.1,0-0.1c-0.1,0-0.2,0-0.2,0.1
		S128.4,119.2,128.5,119.2z M128.6,117.6c0,0,0-0.1,0-0.1c0-0.1,0-0.1-0.1-0.1c0,0-0.1,0.1-0.1,0.2
		C128.5,117.5,128.5,117.6,128.6,117.6z M128.7,114.4c0-0.1,0.1-0.1,0.1-0.1c0.1,0,0.1-0.1,0-0.2h-0.2c0,0-0.1,0.1-0.1,0.2
		C128.6,114.3,128.6,114.4,128.7,114.4z M129.1,113.4c0,0-0.1-0.1-0.2-0.1c-0.1,0-0.1,0-0.1,0.1c0,0,0.1,0.1,0.2,0.1
		C129,113.5,129.1,113.5,129.1,113.4z M128.9,115.1h0.2c0-0.1-0.1-0.1-0.2-0.1V115.1z M129.2,113.8c0.1,0,0.1,0,0.2,0
		c0.1,0,0.1,0,0.1-0.1C129.3,113.6,129.3,113.7,129.2,113.8z M129.3,110.6c0,0.2,0.1,0.3,0.2,0.2v-0.3c-0.1,0-0.1,0-0.1,0
		S129.3,110.6,129.3,110.6z M131.1,107.8h-0.3c0,0.1,0,0.2,0.1,0.2C131,107.9,131.1,107.9,131.1,107.8z"/>
	<path d="M143.2,106v2.5c-0.3,0-0.6,0-0.9,0c-0.3,0-0.7-0.1-1-0.1s-0.7,0-1,0c-0.3,0-0.6,0.1-0.9,0.2h-0.1h-0.1v0.1h-0.1v0.1h-0.1
		v0.1c-0.1,0-0.1,0.1-0.2,0.1c-0.1,0-0.1,0.1-0.2,0.2v0.1v0.1c-0.1,0.1-0.1,0.1-0.2,0.2v0.1v0.1h-0.1c0,0.1,0,0.2,0,0.4
		s0,0.3,0.1,0.4v0.1v0.1c0,0,0,0,0.1,0.1l0.1,0.2h0h0c0,0,0,0.1,0,0.1c0,0,0,0,0,0.1c0,0,0,0.1,0.1,0.1s0,0,0,0c0,0,0,0.1,0,0.1
		s0,0,0,0.1c0,0,0,0,0.1,0s0,0,0.1,0c0,0,0,0.1,0,0.1c0,0,0,0,0,0.1c0,0,0,0,0.1,0s0,0,0.1,0c0,0,0,0.1,0,0.1s0,0.1,0,0.1
		c0.1,0.1,0.1,0.1,0.2,0.2c0.1,0.1,0.2,0.2,0.3,0.2c0.3,0.3,0.5,0.6,0.8,0.8c0.2,0.2,0.5,0.5,0.7,0.7c0.1,0.1,0.3,0.2,0.4,0.4
		c0.1,0.1,0.2,0.3,0.4,0.4c0.1,0.1,0.1,0.1,0.2,0.2c0.1,0.1,0.1,0.1,0.2,0.2c0,0,0,0.1,0,0.1c0,0,0,0,0,0.1c0,0,0.1,0.1,0.1,0.1
		c0.1,0,0.1,0.1,0.1,0.1c0,0,0,0,0,0.1c0,0,0,0.1,0,0.1c0,0,0,0,0.1,0c0,0,0,0,0.1,0c0,0,0,0.1,0,0.1s0,0,0,0.1c0,0,0,0,0.1,0
		s0,0,0,0c0,0,0,0.1,0,0.1s0,0.1,0,0.1c0,0,0,0,0,0c0,0,0,0,0,0c0,0,0,0.1,0.1,0.1s0,0,0.1,0.1v0.1c0,0,0,0,0.1,0.1
		c0,0,0.1,0.1,0.1,0.1v0.1l0.1,0.1l0.1,0.1c0,0,0,0,0,0.1c0,0,0,0.1,0,0.1c0,0,0,0,0.1,0.1c0,0,0,0,0,0.1c0,0,0,0.1,0,0.1
		c0,0,0,0,0,0.1c0,0,0,0,0,0c0,0,0,0,0,0v0.2c0.1,0.1,0.1,0.2,0.1,0.3s0,0.4,0,0.6s0,0.4-0.1,0.6s0,0.3-0.1,0.4c0,0.1,0,0.2,0,0.3
		s0,0.2-0.1,0.3h0c0,0,0,0,0,0.1c0,0.1,0,0.1-0.1,0.2c0,0.1-0.1,0.1-0.1,0.2c-0.1,0.2-0.2,0.4-0.2,0.5c0,0,0,0.1-0.1,0.1v0.1
		c-0.1,0.1-0.2,0.2-0.3,0.3c-0.1,0.1-0.2,0.2-0.3,0.3c0,0-0.1,0.1-0.1,0.1s0,0.1-0.1,0.1h-0.1v0.1c0,0,0,0-0.1,0c0,0,0,0-0.1,0
		c0,0,0,0-0.1,0.1c-0.1,0-0.1,0.1-0.2,0.1c-0.1,0-0.2,0-0.3,0.1c-0.4,0.1-0.8,0.2-1.4,0.3c-0.6,0.1-1.1,0.1-1.6,0.1
		c-0.2,0-0.5-0.1-0.7-0.1c-0.2,0-0.5-0.1-0.7-0.2c-0.1,0-0.2,0-0.2-0.1c-0.1,0-0.1,0-0.2-0.1h-0.1c0,0,0,0-0.1-0.1s0-0.1-0.1-0.1
		h-0.1c-0.1,0-0.1-0.1-0.2-0.1c-0.1-0.1-0.2-0.1-0.3-0.1v-2.3c0.3,0.1,0.6,0.1,1,0.2c0.3,0.1,0.7,0.1,1,0.2c0.1,0,0.1,0,0.2,0
		c0.1,0,0.1,0,0.2,0c0,0,0.1,0,0.1,0s0.1,0,0.2,0c0.1,0,0.2,0,0.4,0c0.1,0,0.2,0,0.4,0c0.3,0,0.5-0.1,0.7-0.2s0.4-0.2,0.6-0.4
		c0.1-0.1,0.1-0.1,0.2-0.2c0-0.1,0.1-0.2,0.1-0.3c0,0,0-0.1,0-0.1s0-0.1,0-0.1c0.1-0.1,0.1-0.2-0.1-0.4s-0.4-0.3-0.5-0.5
		c-0.1-0.1-0.1-0.2-0.2-0.2c-0.1-0.1-0.1-0.1-0.2-0.2c0,0-0.1,0-0.1,0c0,0,0,0-0.1,0c0,0-0.1-0.1-0.1-0.1c-0.1-0.1-0.1-0.1-0.1-0.2
		c-0.1-0.1-0.2-0.1-0.2-0.2s-0.1-0.1-0.2-0.2c0,0,0,0-0.1,0c0,0-0.1,0-0.1,0c0,0-0.1-0.1-0.1-0.1c-0.1-0.1-0.1-0.1-0.2-0.1
		c-0.1-0.1-0.1-0.1-0.2-0.2c-0.1-0.1-0.1-0.2-0.2-0.2c-0.1-0.1-0.1-0.1-0.2-0.2c-0.1-0.1-0.1-0.1-0.2-0.2c0,0,0-0.1-0.1-0.1
		c0,0,0,0-0.1-0.1c0,0,0,0,0-0.1s0-0.1,0-0.1c0,0-0.1-0.1-0.1-0.1s-0.1,0-0.1-0.1c0,0,0-0.1,0-0.1c0,0,0,0,0-0.1
		c0,0-0.1-0.1-0.1-0.1c0,0,0-0.1,0-0.1s0-0.1,0-0.1c0,0,0,0-0.1,0s0,0-0.1,0c0,0,0-0.1,0-0.1c0,0,0,0,0-0.1c0,0,0-0.1-0.1-0.1
		c0,0,0,0,0,0c0-0.1-0.1-0.1-0.1-0.2s0-0.1,0-0.1c0,0,0,0-0.1-0.1s0,0-0.1-0.1s0,0,0-0.1c0,0,0,0,0-0.1c0-0.1-0.1-0.1-0.1-0.1
		c0,0,0-0.1-0.1-0.1l-0.1-0.1c0,0,0-0.1,0-0.1s0,0,0-0.1c-0.1-0.1-0.1-0.2-0.2-0.4c-0.1-0.1-0.1-0.3-0.2-0.4
		c-0.1-0.4-0.2-0.8-0.3-1.2c-0.1-0.5,0-1,0.1-1.4c0,0,0,0,0,0s0,0,0,0c0-0.1,0-0.1,0-0.2c0-0.1,0-0.1,0-0.2h0c0,0,0,0,0-0.1v-0.1
		c0,0,0,0,0.1-0.1s0,0,0-0.1c0-0.1,0.1-0.1,0.1-0.2c0-0.1,0-0.1,0.1-0.2c0,0,0,0,0,0c0,0,0,0,0.1-0.1c0,0,0.1-0.1,0.1-0.1
		c0,0,0-0.1,0.1-0.1c0-0.1,0.1-0.1,0.1-0.2c0-0.1,0.1-0.1,0.1-0.2c0.3-0.3,0.6-0.6,1-0.8c0.2-0.1,0.4-0.2,0.6-0.3
		c0.2-0.1,0.4-0.1,0.7-0.2c0.3-0.1,0.7-0.1,1.2-0.1c0.5,0,0.9,0,1.3,0l0,0c0,0,0,0,0,0c0.3,0,0.7,0,1,0
		C142.6,105.9,142.9,105.9,143.2,106z M136.5,119.6c0,0.1,0,0.2,0.1,0.2c0.1,0,0.2,0,0.2,0.1c0-0.1,0-0.1,0-0.2c0,0,0-0.1,0-0.1
		c-0.1,0-0.1,0-0.1,0C136.6,119.6,136.6,119.6,136.5,119.6z M144.1,118c0.1,0,0.2,0,0.3,0.1c0.1,0,0.2,0.1,0.2,0.1
		c0,0.1,0.1,0.2,0.1,0.3c0,0.1,0,0.2,0,0.3c0,0.1,0,0.2,0,0.2s0,0.2-0.1,0.3c0,0.1-0.1,0.2-0.1,0.3c0,0.1,0,0.2-0.1,0.3
		c0,0,0,0.1,0,0.1c0,0,0,0,0,0.1c0,0,0,0-0.1,0.1s0,0-0.1,0.1c0,0,0,0.1,0,0.1s0,0,0,0.1c0,0,0,0.1,0,0.1c0,0,0,0-0.1,0
		c0,0.1-0.1,0.1-0.1,0.1c0,0,0,0.1-0.1,0.2c0,0,0,0,0,0c0,0,0,0,0,0s0,0.1,0,0.1c0,0,0,0-0.1,0c0,0,0,0,0,0.1c0,0,0,0,0,0
		c0,0-0.1,0.1-0.1,0.1s0,0-0.1,0.1c-0.1,0-0.1,0.1-0.1,0.2s-0.1,0.1-0.1,0.2c0,0,0,0-0.1,0c0,0-0.1,0-0.1,0c0,0,0,0.1-0.1,0.1
		c0,0.1-0.1,0.1-0.1,0.1h-0.1c0,0-0.1,0.1-0.1,0.1c0,0,0,0-0.1,0.1c-0.1,0.1-0.3,0.2-0.6,0.3c-0.2,0.1-0.5,0.2-0.7,0.2
		c-0.1,0-0.2,0.1-0.3,0.1c-0.1,0-0.2,0-0.3,0.1v0c0,0,0,0-0.1,0c0,0,0,0-0.1,0s-0.1,0-0.1,0c0,0-0.1,0.1-0.2,0.1h-0.1
		c0,0-0.1,0.1-0.2,0.1c-0.1,0-0.2,0-0.3,0.1c-0.1,0-0.1,0.1-0.1,0.1c-0.1,0-0.1,0-0.2,0c-0.1,0-0.1,0-0.1,0c-0.1,0-0.2,0-0.2,0.1
		c-0.1,0-0.2,0-0.3,0c0,0-0.1,0-0.1,0c0,0,0,0-0.1,0c-0.1,0-0.1,0-0.2,0c-0.1,0-0.1,0-0.2,0c-0.3,0-0.6-0.1-1-0.2
		c-0.3-0.1-0.6-0.2-0.9-0.3c0.1-0.2,0.3-0.3,0.5-0.3c0.2,0,0.4,0,0.6,0c0.2,0,0.3,0,0.5,0.1c0.2,0,0.3,0.1,0.5,0.1
		c0.3,0,0.6,0,0.8,0c0.1,0,0.2,0,0.4-0.1c0.1,0,0.3-0.1,0.4-0.1c0,0,0.1,0,0.1,0c0,0,0.1,0,0.1,0c0,0,0.1,0,0.1-0.1
		c0.3-0.1,0.6-0.2,0.9-0.3c0.3-0.1,0.6-0.2,0.9-0.4c0.1,0,0.1-0.1,0.2-0.1s0.1-0.1,0.2-0.2c0,0,0,0,0,0s0,0,0,0c0.1,0,0.1,0,0.1-0.1
		c0,0,0-0.1,0.1-0.1c0,0,0.1-0.1,0.1-0.1c0,0,0,0,0,0l0,0c0,0,0-0.1,0.1-0.1s0-0.1,0-0.1c0,0,0-0.1,0.1-0.1s0.1,0,0.1-0.1v-0.1
		c0,0,0,0,0.1-0.1s0,0,0.1-0.1c0,0,0,0,0-0.1s0,0,0-0.1c0,0,0-0.1,0.1-0.2s0.1-0.2,0.1-0.2c0-0.1,0-0.2,0-0.2c0-0.1,0-0.1,0-0.2h0
		c0,0,0,0,0-0.1c0-0.1,0-0.2,0-0.4s0-0.3,0-0.4V118z M137,111.2c0-0.1,0-0.1,0-0.2c0-0.1,0-0.1-0.1-0.1c-0.1,0.1-0.1,0.1-0.1,0.2
		S136.9,111.2,137,111.2z M136.8,109.5c0,0.1,0,0.2,0.1,0.2c0.1,0,0.1,0.1,0.2,0.1c0,0,0.1-0.1,0.1-0.2s0-0.1,0-0.2
		c-0.1,0-0.1,0-0.2,0C137,109.5,136.9,109.5,136.8,109.5z M137.2,110.1c0,0.1,0,0.2,0.1,0.3c0.1,0.1,0.1,0.1,0.2,0.2
		c0,0.1,0,0.2,0.1,0.2c0.1,0,0.1,0.1,0,0.2c0.2,0,0.3-0.1,0.3-0.3c0-0.1-0.1-0.2-0.1-0.2c-0.1,0-0.1-0.1-0.1-0.2
		c0-0.1,0-0.1,0.1-0.2c0-0.1,0-0.2-0.1-0.2c0,0.1,0,0.1-0.1,0.2C137.4,110.1,137.3,110.1,137.2,110.1z M137.4,111.4
		c0.1,0,0.1-0.1,0-0.1c0-0.1-0.1-0.1-0.2-0.1C137.2,111.3,137.3,111.4,137.4,111.4z M137.2,120.2c0,0.1,0,0.1,0,0.1s0.1,0,0.1,0
		s0.1,0,0.1-0.1s0-0.1,0-0.1C137.4,120.1,137.3,120.1,137.2,120.2z M137.2,109.2c0.1,0,0.2,0,0.3,0c0.1,0,0.1,0,0.2,0.1
		c0-0.1,0-0.2,0.1-0.3c0.1-0.1,0.1-0.2,0.1-0.2c0,0,0-0.1,0-0.1c0,0,0-0.1,0-0.1c0,0,0,0-0.1,0c0,0-0.1,0-0.1,0
		c-0.1,0.1-0.1,0.3-0.2,0.4S137.3,109,137.2,109.2z M137.5,109.5c0.1,0,0.2,0,0.2,0c0.1,0,0.1,0,0.1-0.1c-0.1,0-0.2,0-0.2,0
		S137.5,109.4,137.5,109.5z M137.6,111.9c0.1,0,0.2,0,0.2-0.1c0-0.1,0-0.1,0.1-0.2c0,0-0.1,0-0.1,0c0,0,0,0-0.1,0
		c0,0.1-0.1,0.1-0.1,0.1S137.6,111.9,137.6,111.9z M138,112.5c0.1,0,0.1,0,0.1,0c0,0,0.1,0,0.1,0c0-0.1,0-0.2-0.1-0.2
		C138,112.4,138,112.4,138,112.5z M138.1,120.5C138.2,120.5,138.2,120.5,138.1,120.5c0-0.2,0-0.2,0.1-0.3H138c0,0.1,0,0.1,0,0.2
		C138,120.5,138,120.5,138.1,120.5z M138.2,108.1h0.2c0-0.1,0-0.2-0.1-0.2c0,0.1,0,0.1,0,0.1S138.2,108,138.2,108.1z M144.1,106.3
		c0.1,0,0.1,0,0.1,0.1c0,0.1,0,0.2,0,0.2c0,0.4,0,0.9,0,1.4c0,0.5,0,1,0,1.5c0,0-0.1,0-0.2,0c-0.1,0-0.2,0-0.4,0c-0.2,0-0.4,0-0.6,0
		s-0.4,0-0.6,0c-0.4,0-0.9-0.1-1.4-0.1c-0.5,0-0.9,0.1-1.2,0.3c-0.1,0.1-0.1,0.1-0.2,0.2c-0.1,0.1-0.1,0.1-0.2,0.2
		c0,0.1-0.1,0.2-0.1,0.3c0,0,0,0.1,0,0.1c0,0.1,0,0.1-0.1,0.2c0,0-0.1,0-0.1,0s-0.1,0-0.1,0c0,0,0,0-0.1-0.1c0-0.1,0-0.2,0-0.2
		c0,0-0.1-0.1-0.1-0.1c0,0,0-0.1,0-0.2c0-0.1,0-0.1,0.1-0.2c0-0.1,0.1-0.2,0.2-0.3c0.1-0.1,0.2-0.2,0.3-0.3c0,0,0.1,0,0.1,0
		c0,0,0.1,0,0.1,0c0-0.1,0-0.1,0.1-0.1c0,0,0.1-0.1,0.2-0.1c0.1,0,0.1,0,0.2-0.1l0.1-0.1c0.1,0,0.1,0,0.1,0c0,0,0.1,0,0.1,0
		c0.2-0.1,0.5-0.1,0.7-0.1c0.3,0,0.6,0,0.9,0c0.3,0,0.6,0,0.9,0.1c0.3,0,0.5,0,0.8,0v-2.2c0.1,0,0.1-0.1,0.1-0.2
		c0.1,0,0.1-0.1,0.2-0.1C143.9,106.4,144,106.3,144.1,106.3L144.1,106.3z M139.5,106.2h0.1v-0.1h-0.1V106.2z M139.7,106.5
		c0.1,0,0.1,0,0.2,0c0.1,0,0.1,0,0-0.1h-0.2V106.5z M140.4,119.6h0.2c0-0.1,0-0.1-0.2-0.1V119.6z M141.2,107.7
		C141.2,107.6,141.1,107.6,141.2,107.7c-0.1-0.1-0.2-0.1-0.2-0.1c0,0.1,0,0.1,0,0.1s0.1,0,0.1,0.1c0,0,0.1,0,0.1,0
		C141.2,107.8,141.2,107.7,141.2,107.7z M141.5,118.8c0.1,0,0.2,0,0.2,0s0.1-0.1,0.1-0.2c-0.1,0-0.2,0-0.2,0s-0.1-0.1-0.1-0.1
		c0,0.1,0,0.1,0,0.2S141.5,118.8,141.5,118.8z M142.1,118c-0.1,0-0.1,0-0.2,0c0,0-0.1,0.1-0.1,0.1c0,0,0,0-0.1,0.1c0,0,0,0.1,0,0.1
		c0,0,0.1,0.1,0.2,0.1c0.1,0,0.1,0,0.2,0.1c0.1,0,0.1,0,0.2,0c0-0.1,0-0.2,0.1-0.3c0-0.1,0-0.2-0.2-0.2
		C142.1,118,142.1,118,142.1,118C142.1,118,142.1,118,142.1,118z M141.8,116.2c0.1,0,0.2,0,0.2-0.2c0-0.1-0.1-0.2-0.2-0.2
		c0,0.1,0,0.1,0,0.2C141.8,116.1,141.8,116.1,141.8,116.2z M142.2,117.2c0,0.1-0.1,0.1-0.1,0.1s-0.1,0.1,0,0.2h0.3
		c0-0.1,0-0.1,0.1-0.2c0.1,0,0.1-0.1,0.1-0.2c0,0,0,0,0,0s0,0,0,0l-0.1-0.1c-0.1-0.1-0.1-0.2-0.1-0.2s0.1-0.1,0.1-0.2h-0.2
		c0,0.1,0,0.2,0,0.3C142.2,117,142.2,117.1,142.2,117.2z M142.5,116.6c0.1-0.1,0.1-0.2,0-0.3s-0.2-0.1-0.3-0.1
		c0,0.1,0.1,0.2,0.1,0.2C142.4,116.5,142.4,116.6,142.5,116.6z M142.6,117.9c0,0,0.1-0.1,0.1-0.2c0-0.1,0-0.2-0.1-0.2
		c-0.1,0-0.1,0.1-0.1,0.2C142.4,117.9,142.5,117.9,142.6,117.9z M142.7,117.2c0-0.1,0-0.1,0-0.2c0-0.1,0-0.1-0.1-0.1
		c0,0.1,0,0.2,0,0.3S142.6,117.2,142.7,117.2z"/>
</g>
<g>
	<path d="M49.4,134l1.1-6h1.7c0.3,0,0.5,0,0.7,0.1s0.4,0.1,0.6,0.2c0.2,0.1,0.3,0.3,0.3,0.5c0,0.1,0.1,0.2,0.1,0.4
		c0,0.1,0,0.2,0,0.3c-0.1,0.5-0.2,0.8-0.3,1.1c-0.1,0.2-0.2,0.5-0.5,0.6c0.2,0.1,0.3,0.3,0.3,0.5c0,0,0,0.1,0,0.2
		c0,0.2,0,0.4-0.1,0.8c-0.1,0.3-0.2,0.6-0.3,0.8c-0.1,0.2-0.3,0.4-0.5,0.5c-0.2,0.1-0.4,0.2-0.6,0.2s-0.5,0.1-0.7,0.1H49.4z
		 M50.4,133.2h0.8c0.4,0,0.6-0.1,0.8-0.2c0.2-0.1,0.3-0.3,0.3-0.7c0-0.1,0-0.2,0-0.3c0-0.2,0-0.3-0.1-0.4c-0.1-0.1-0.4-0.2-0.7-0.2
		h-0.8L50.4,133.2z M50.8,130.7h0.8c0.4,0,0.6-0.1,0.8-0.2s0.3-0.4,0.3-0.7l0-0.2c0-0.1,0-0.2,0-0.2c0-0.2,0-0.3-0.1-0.4
		c-0.1-0.1-0.4-0.2-0.7-0.2h-0.8L50.8,130.7z"/>
	<path d="M54.2,134l1-6h1.8c0.2,0,0.4,0,0.6,0.1c0.2,0.1,0.4,0.2,0.5,0.3s0.3,0.3,0.3,0.6c0,0.1,0.1,0.3,0.1,0.4c0,0.1,0,0.3,0,0.4
		l-0.1,0.4c-0.1,0.7-0.5,1.2-1.1,1.5l0.5,2.2h-1l-0.5-2h-0.1h-0.9l-0.4,2H54.2z M55.6,131.1h0.9c0.3,0,0.6-0.1,0.8-0.3
		c0.2-0.2,0.3-0.4,0.4-0.7l0.1-0.4c0-0.1,0-0.2,0-0.3c0-0.2,0-0.3-0.1-0.4c-0.1-0.2-0.3-0.3-0.7-0.3H56L55.6,131.1z"/>
	<path d="M59,134l1-6h2.8l-0.1,0.8h-1.9l-0.3,1.8h1.5l-0.1,0.8h-1.5l-0.3,1.7H62l-0.1,0.8H59z"/>
	<path d="M63.8,128h0.9l-0.1,4.8l1.9-4.8h0.8l0.2,4.8l1.6-4.8h0.9c-0.3,0.7-0.6,1.7-1.1,3s-0.8,2.3-1.1,3h-1.1l-0.2-3.9L65,134h-1.1
		c0-0.8-0.1-1.8-0.1-3.2C63.8,129.5,63.8,128.5,63.8,128z"/>
	<path d="M70.1,134l1-6h0.9l-1,6H70.1z"/>
	<path d="M72.5,134l1-6h0.9l1.3,4.2l0.7-4.2h0.9l-1,6h-1.1l-1.2-3.9l-0.7,3.9H72.5z"/>
	<path d="M78,132.5l0.5-2.8c0.1-0.3,0.1-0.6,0.2-0.8s0.2-0.4,0.4-0.5s0.3-0.2,0.5-0.3c0.2-0.1,0.4-0.1,0.6-0.1s0.4,0,0.6,0
		c0.3,0,0.5,0,0.8,0.1s0.4,0.1,0.6,0.2s0.3,0.3,0.4,0.5c0,0.1,0,0.3,0,0.4c0,0.1,0,0.3,0,0.4h-0.9c0-0.1,0-0.2,0-0.3
		c0-0.2,0-0.3-0.1-0.4c-0.1-0.1-0.4-0.2-0.8-0.2c-0.4,0-0.8,0.1-0.9,0.2c-0.2,0.1-0.3,0.4-0.3,0.8l-0.4,2.5c0,0.1,0,0.2,0,0.3
		c0,0.2,0,0.3,0.1,0.4c0.1,0.2,0.4,0.2,0.8,0.2c0.7,0,1.1-0.3,1.2-1l0.1-0.7h-0.6l0.1-0.7h1.5l-0.5,3.1h-0.4l-0.1-0.4
		c-0.1,0.1-0.2,0.2-0.4,0.3c-0.1,0.1-0.3,0.1-0.4,0.1s-0.3,0-0.4,0s-0.2,0-0.4,0c-0.2,0-0.4,0-0.6,0c-0.2,0-0.3-0.1-0.5-0.1
		c-0.2-0.1-0.3-0.2-0.4-0.3c-0.1-0.1-0.2-0.3-0.2-0.4c0-0.1,0-0.2,0-0.3C78,132.8,78,132.6,78,132.5z"/>
	<path d="M86,132.1c0,0,0-0.1,0-0.2c0-0.3,0-0.5,0.1-0.9c0.1-0.5,0.2-1,0.4-1.4s0.4-0.7,0.6-0.9s0.4-0.4,0.7-0.5s0.5-0.2,0.7-0.3
		s0.4-0.1,0.6-0.1c0.3,0,0.6,0,0.8,0l-0.1,0.8c-0.1,0-0.2,0-0.5,0c-0.6,0-1.1,0.2-1.5,0.6s-0.6,0.9-0.7,1.7c0,0.3-0.1,0.5-0.1,0.7
		c0,1,0.5,1.5,1.6,1.5c0.1,0,0.3,0,0.4,0l-0.1,0.8c0,0,0,0-0.1,0s-0.1,0-0.1,0c-0.1,0-0.2,0-0.4,0c-0.2,0-0.4,0-0.6-0.1
		s-0.4-0.1-0.6-0.2s-0.3-0.2-0.5-0.4s-0.2-0.3-0.3-0.6S86,132.4,86,132.1z"/>
	<path d="M90.1,132.5l0.5-3.1c0.1-0.5,0.3-0.9,0.7-1.1s0.9-0.4,1.5-0.4c0.6,0,1.1,0.1,1.3,0.4c0.2,0.2,0.3,0.5,0.3,0.8
		c0,0.1,0,0.2,0,0.3l-0.5,3.1c-0.1,0.3-0.1,0.5-0.3,0.7c-0.1,0.2-0.3,0.4-0.5,0.5c-0.2,0.1-0.4,0.2-0.6,0.2c-0.2,0-0.5,0.1-0.7,0.1
		c-0.2,0-0.5,0-0.7-0.1c-0.2,0-0.4-0.1-0.6-0.2c-0.2-0.1-0.3-0.3-0.4-0.5c0-0.1-0.1-0.2-0.1-0.4C90.1,132.8,90.1,132.6,90.1,132.5z
		 M91,132.3c0,0.1,0,0.2,0,0.3c0,0.2,0,0.3,0.1,0.4c0.1,0.1,0.4,0.2,0.7,0.2c0.4,0,0.6-0.1,0.8-0.2c0.2-0.1,0.3-0.3,0.3-0.6l0.5-2.9
		c0-0.1,0-0.2,0-0.2c0-0.2,0-0.3-0.1-0.4c-0.1-0.1-0.4-0.2-0.7-0.2c-0.3,0-0.6,0.1-0.8,0.2c-0.2,0.1-0.3,0.3-0.3,0.6L91,132.3z"/>
	<path d="M95.2,134l0.2-0.8h0.9l-0.2,0.8H95.2z"/>
</g>
<g>
	<g>
		<path d="M93.9,46.8c1,0.1,2.1,1.9,2.4,2.7c0.4,0.8,0.5,2,0.7,2.9c0.5,2.4,0.5,4.8-0.4,7.2c-0.9,2.1-2.2,4-1.3,6.3
			c0.8,2.3,2.4,4.1,2.9,6.6c0.8,3.9,1.1,4.8,0.6,1.2c-0.2-1.4-0.5-2.9-1.1-4.2c-0.9-2.2-2.6-3.8-2.1-6.4c0.3-1.6,1.3-2.8,1.8-4.3
			c0.6-1.9,0.5-3.9,0.2-5.8c-0.4-2.2-0.8-6.1-3.5-6.3C93.8,46.5,93.6,46.8,93.9,46.8L93.9,46.8z"/>
	</g>
	<path d="M94.5,81.2c-0.4-3.8-3.2-4.8-3.2-4.8c1.1,1.1,1.7,4.4-0.2,4.6c-2.2,0.1-3.6-0.9-5.7-2.2c-2.8-1.7-5.6-4.8-9.7-2.9
		c-1.5,0.6-2.8,1.6-2.8,1.6s-1.4-1-2.8-1.6c-4-2-6.9,1.1-9.7,2.9c-2.1,1.3-3.6,2.3-5.7,2.2c-1.9-0.2-1.3-3.5-0.2-4.6
		c0,0-2.8,0.9-3.2,4.8c-0.2,2.2,1.4,3.7,3.2,3.9c1.8,0.2,3.5,0.3,6.4-0.7c10-3.4,12.1-0.5,12.1-0.6c0,0.1,2-2.8,12.1,0.6
		c2.8,0.9,4.6,0.9,6.4,0.7C93,84.9,94.7,83.4,94.5,81.2z"/>
	<g>
		<g>
			<circle cx="88.7" cy="52.5" r="8.3"/>
		</g>
		<g>
			<defs>
				<circle id="SVGID_1_" cx="88.7" cy="52.5" r="7.6"/>
			</defs>
			<clipPath id="SVGID_2_">
				<use xlink:href="#SVGID_1_"  style="overflow:visible;"/>
			</clipPath>
			<g class="st0">
				<g>
					<polygon class="st1" points="88.7,69.5 88.7,69.5 100.4,45.1 100.5,45.1 					"/>
				</g>
				<g>
					<polygon class="st1" points="87.3,68.3 87.2,68.3 98.8,44.1 99,44.1 					"/>
				</g>
				<g>
					<polygon class="st1" points="85.9,67.2 85.7,67.1 97.3,43.1 97.4,43.2 					"/>
				</g>
				<g>
					<polygon class="st1" points="84.4,66 84.2,65.9 95.7,42.1 95.9,42.2 					"/>
				</g>
				<g>
					
						<rect x="75.4" y="52.8" transform="matrix(0.4337 -0.9011 0.9011 0.4337 2.4153 109.7957)" class="st1" width="26.2" height="0.4"/>
				</g>
				<g>
					
						<rect x="74" y="51.7" transform="matrix(0.4336 -0.9011 0.9011 0.4336 2.5351 107.8347)" class="st1" width="26" height="0.4"/>
				</g>
				<g>
					
						<rect x="72.6" y="50.6" transform="matrix(0.4336 -0.9011 0.9011 0.4336 2.6538 105.8719)" class="st1" width="25.8" height="0.5"/>
				</g>
				<g>
					
						<rect x="71.2" y="49.5" transform="matrix(0.4335 -0.9011 0.9011 0.4335 2.7716 103.9079)" class="st1" width="25.6" height="0.6"/>
				</g>
				<g>
					
						<rect x="69.8" y="48.3" transform="matrix(0.4335 -0.9012 0.9012 0.4335 2.889 101.9432)" class="st1" width="25.4" height="0.7"/>
				</g>
			</g>
		</g>
	</g>
	<path d="M72.8,38.3H39.2c0,0-15.4,0.2-5.9-3s8.3-1.2,8.3-1.2S39.3-0.5,70.6,0l4.4,0c31.3-0.5,29,34.1,29,34.1s-1.2-2.1,8.3,1.2
		s-5.9,3-5.9,3H72.8"/>
</g>
<g>
	<g>
		<line class="st2" x1="5.2" y1="97" x2="5.4" y2="97"/>
		<line class="st3" x1="6.9" y1="97" x2="139.5" y2="97"/>
		<line class="st2" x1="140.3" y1="97" x2="140.5" y2="97"/>
	</g>
</g>
</svg>
