<svg id="Layer_1" xmlns="http://www.w3.org/2000/svg" xmlns:xlink="http://www.w3.org/1999/xlink" viewBox="0 0 145.7 136.5"><style>.st0{clip-path:url(#SVGID_2_)}.st1{fill:#fff}.st2,.st3{fill:none;stroke:#000;stroke-width:.25;stroke-linecap:round;stroke-miterlimit:10}.st3{stroke-dasharray:.4975,1.4926}</style><path d="M10.7 108.6c.1.2.1.5.1.7v.8h-3v-.5c0-.1-.1-.2-.1-.3-.1-.2-.2-.3-.4-.5h-.2c-.1-.1-.2-.1-.4-.1s-.3-.1-.5-.1h-.6c-.2 0-.4.1-.5.2-.1 0-.2.1-.2.1l-.1.1-.1.1-.1.1-.1.1v.1l-.1.1c0 .1 0 .1-.1.3-.1.2-.1.5-.1.9v6.5c0 .4 0 .7.1.9v.4l.1.1v.2h.2v.1s0 .1.1.1h.4l.1.1h.1c.1 0 .1.1.2.1h.3c.3.1.6.1 1 0 .3-.1.6-.2.8-.4 0 0 0-.1.1-.1l.1-.1v-.2l.1-.1v-.5c.1-.3.1-.7.1-1.2v-1.4H6.5v-2.5h4.3v8.8h-.7c-.1 0-.1 0-.1-.1s0-.1-.1-.1v-.2h-.1c-.1 0 0 0 0 0v-.2h-.2v-.3c-.1 0-.2.1-.2.1l-.4.4c0 .1-.1.1-.1.1h-.1l-.1.1s-.1 0-.1.1h-.2s-.1 0-.1.1h-.1c-.1.1-.2.1-.4.1-.1 0-.3.1-.4.1-.1 0-.2.1-.4.1-.1 0-.3 0-.4.1H5.1c-.5-.1-.9-.1-1.3-.3h-.1c-.1 0-.1 0-.2-.1-.1 0-.1-.1-.3-.1-.1 0-.2-.1-.3-.1l-.1-.1s-.1 0-.1-.1c-.1 0-.1-.1-.2-.1 0 0-.1-.1-.2-.1s-.2-.1-.2-.1l-.1-.1c0-.1 0-.1-.1-.2l-.1-.1s-.1 0-.1-.1c0 0 0-.1-.1-.1s0 0-.1-.1v-.2l-.1-.1v-.1c-.1-.1-.1-.1-.1-.3v-.4c-.1-.5-.1-1-.1-1.6v-7.2c0-.6.1-1.3.4-1.8 0 0 0-.1.1-.1 0 0 0-.1.1-.1 0-.1 0-.1.1-.1l.1-.1s0-.1.1-.1l.1-.1v-.2h.1c.1-.1.2-.3.3-.3l.3-.3.1-.1s.1-.1.2-.1v-.1l.1-.1h.4v-.1h.2c.1-.1.2-.1.3-.1.2-.1.5-.2.7-.2.2 0 .5-.1.7-.1.2 0 .5-.1.9-.1.3 0 .6 0 .9.1h.1s.1.1.3.1c.1 0 .2 0 .3.1s0 0 .1 0 .2 0 .3.1c.1.1.2.1.3.1H9v.1h.1v.1h.1v.1h.4v.1l.1.1s.1 0 .1.1c.1 0 .1.1.2.2s.2.2.2.3c.1 0 .1.1.2.1s.1.1.2.1v.1s0 .1.1.1v.1l.1.1s0 .1.1.1c0 0 .1.1.1.2-.4-.1-.3 0-.3.1zm-8.4 3.7l.2.2c.1.1.1.1.2 0-.1 0-.1-.1-.1-.1v-.5h-.2s-.1.2-.1.4zm.3-.9c.1-.1.1-.1 0-.2 0-.1-.1-.1-.2-.1-.1.1-.1.2-.1.2.2.1.2.1.3.1zm.5 1.3c-.1.1-.3.2-.4.3-.2.1-.2.2-.2.4.2 0 .3 0 .4-.1s.2-.1.4-.1v-.2c0-.1 0-.2.1-.2v-.2s0-.1-.1-.2c0 .1 0 .2-.1.2s-.2 0-.1.1zm-.7 3.4c.1 0 .2 0 .2-.1s0-.2.1-.2c-.2 0-.3.1-.3.3zm.1-6.6h.2v-.2c0-.1 0-.1-.1-.2h-.1c0 .1 0 .2-.1.2 0 .1 0 .1.1.2zm0 4.3c0 .1 0 .2.2.2.1 0 .3 0 .3-.1s0-.1-.1-.2v-.2c-.1 0-.2 0-.2.1-.1.2-.1.3-.2.2zm6.9 7.7h.1v.4c0 .1 0 .1-.1.1s-.1.1-.2.1-.1.1-.2.1c0 .1 0 .1-.1.1h-.1l-.1.1h-.1.1s-.1.1-.2.1c-.1.1-.3.1-.5.1s-.3.1-.5.1h-.1s-.1 0-.3.1c-.1 0-.3.1-.6.1H5c-.1 0-.2-.1-.4-.1s-.3 0-.5-.1 0 0-.1 0-.2 0-.3-.1c-.1 0-.2-.1-.3-.1v-.1h-.1v-.1h-.1v-.1h-.1s-.1 0-.1-.1l-.1-.1h-.1s-.1-.1-.2-.1-.1-.1-.1-.1v-.3s.1.1.1 0c.1.1.2.1.3.1.1 0 .2.1.3.1h.1s.1 0 .1.1c.1 0 .1.1.2.1s.2 0 .2.1c.1 0 .1 0 .2.1 0 0 .1 0 .4.1.2 0 .5.1.9.1h1c.2 0 .5-.1.7-.1s.4-.1.6-.2h.7c.1 0 .2-.1.4-.2 0 0 .1 0 .1-.1l.1-.1h.3c.1-.1.1-.1.2-.1zM3 115c0-.1 0-.1-.1-.1h-.2v.1l.1.1h.1l.1-.1zm.1-6.1v-.3h-.4c.1.1.2.2.4.3zm-.2 8.7c.1 0 .2 0 .2-.1s.1-.1.1-.2h-.4c0 .1 0 .1.1.2s0 0 0 .1zm.1 2.3c.1 0 .1 0 .2.1s.1 0 .2 0c-.1 0-.1-.1-.1-.2s0-.1-.1-.2l-.1.1-.1.2zm0-8c.2 0 .3 0 .3-.1h-.2c-.1 0-.1 0-.1.1zm.1-.8v.3c.1 0 .2-.1.4-.2.1-.1.1-.2 0-.3 0 .1-.1.1-.1.2-.2.1-.3.1-.3 0zm0-1.8c0 .1 0 .1 0 0v.2c.2.1.2 0 .3-.1 0-.1 0-.2-.1-.3 0 .1-.1.1-.1.1s-.1 0-.1.1zm1.5-2.1c0-.2 0-.2-.2-.2 0 .2.1.2.2.2zm2.1 2.3c0 .1-.1.1-.3 0s-.3 0-.3 0-.1.1-.3.1c0 0 0 .1-.1.1 0 0-.1 0-.1.1-.1 0-.1.1-.1.1v.2l-.1.1-.1.1v.3c-.1.2-.1.5-.1.9v7.3c-.1 0-.1-.1-.1-.1-.2-.1-.4-.3-.5-.6v-7.4c0-.2.1-.4.2-.7v-.1h.1v-.2h.2v-.1c.1-.1.2-.2.4-.3.2-.1.3-.2.5-.2h.3c.2 0 .3 0 .5.1s.2.2.2.3c-.2-.1-.2-.1-.3 0 .1 0 .1 0 0 0zm.2 11.8c0-.1 0-.1-.1-.2h-.2c0 .1 0 .1.1.2s.1 0 .2 0zm.7-7.1h.3c.1 0 .1 0 .1-.2 0-.1-.1-.1-.2-.1h-.2v.3zm0-6.8c.2 0 .3 0 .3-.1s-.1-.2-.2-.2v.1c-.2 0-.2.1-.1.2zm0 13.5v.2s.1 0 .1.1h.4c.1 0 .1-.1.1-.1 0-.1-.1-.2-.3-.2h-.3zm3.3-12.3c0-.2 0-.4-.1-.5-.1-.1-.1-.2-.2-.3 0-.1.1-.1.1-.1l.1.1c.1.1.2.3.4.5l.1.1v.3s.1.1.1.2c.1.1.1.2.1.2 0 .1 0 .2.1.3 0 .1.1.2.1.3v.2c0 .1.1.3.1.6v.8H8.3c-.1 0-.1 0-.1-.1v-.2l.1-.1s.1 0 .3-.1c.2-.1.3-.1.3-.1h2.2c.1-.1.1-.2.1-.3s0-.2-.1-.3v-.4c0-.1 0-.2-.1-.3v-.1c-.1-.1-.1-.1 0-.2 0-.2 0-.3-.1-.5zm-2.6-.5c0 .1.1.2.4.2 0-.1 0-.1.1-.1v-.2c-.1 0-.2 0-.3.1h-.2zm.2 11.5v.2h.3c.1 0 .1-.1.1-.2-.1 0-.1-.1-.2-.1s-.1.1-.2.1zm.5-.7l-.1.1s-.1 0-.1.1 0 0-.1.1h-.1c-.1 0-.1 0 0 .1.1 0 .2 0 .3.1h.3v-.3c0-.1 0-.2-.1-.2 0 .1 0 .1-.1.1.1-.2 0-.2 0-.1zm-.4-2.4c0 .2.2.3.5.3l.1-.1s.1-.1.1-.2h-.2c-.1 0-.1 0-.1-.1h-.1c-.2 0-.2.1-.3.1zm.4 1.9c-.1 0-.1-.1-.1-.1 0-.1-.1-.1-.2-.1 0 .1 0 .2.1.2H9zm-.1-3.1c.2 0 .3-.1.3-.3 0 0-.1 0-.1-.1 0 0 0-.1-.1 0-.1 0-.1.2-.1.4zm.5 2.3c0-.1.1-.1.1-.2s.1-.1.1-.2h-.3c0 .2 0 .3.1.4zm.1-1.1c.2 0 .3-.1.2-.3h-.2v.3zm2.2-3.6c0 .9 0 1.9.1 2.8s.1 1.9.1 2.9v1.9l-.1.1c0 .1-.1.2-.1.2 0 .1 0 .2-.1.2v.1s0 .1-.1.1c0 0-.1.1-.1.2-.1 0-.1-.1-.1-.2v-7.7c0-.2 0-.4.1-.7 0 0 .1-.1.2-.1s0 .1.1.2c0-.1 0-.1 0 0 0-.1 0-.1 0 0zm3.4-5l.1-.2s.1 0 .1-.1l.1-.1c0-.1.1-.2.2-.3l.3-.3v-.1h.1l.1-.1s0-.1.1-.1h.1l.2-.2c.1-.1.2-.1.3-.2l.6-.3c.2-.1.5-.1.8-.2h.2c.1 0 .3-.1.6-.1h.8c.1 0 .2 0 .3.1.1 0 .2.1.3.1s.2.1.3.1h.1s.1 0 .2.1h.1l.1.1h.3l.1.1h.1l.1.1c.1 0 .1 0 .2.1 0 0 .1 0 .1.1l.1.1h.1v.1h.2v.1h.2v.2c.1.1.2.1.3.2.1.1.2.2.2.3l.1.1.1.1s0 .1.1.1c0 0 0 .1.1.1l.1.1v.2h.1v.2h.1v.3c0 .1.1.2.1.3v.3c.1.3.1.6.1 1v8.3c0 .1 0 .2-.1.3 0 .1 0 .2-.1.3 0 .1-.1.2-.1.3v.2s0 .1-.1.2l-.1.1v.3s0 .1-.1.1 0 0-.1.1h-.1l-.1.1v.2l-.2.2c-.1.1-.2.1-.2.1s-.1 0-.1.1-.1.1-.1.1h-.3s-.1 0-.1.1l-.1.1c-.1 0-.2.1-.3.1h-.1v.1h-.2s-.1.1-.2.1H21s-.1.1-.3.1c-.2 0-.3.1-.4.1-.5.1-1 .1-1.6.1-.6 0-1.1-.1-1.5-.3h-.3s-.1-.1-.2-.1c-.1-.1-.2-.1-.2-.1s-.1 0-.1-.1v-.1h-.1s-.1 0-.1-.1c0 0-.1 0-.1-.1l-.1-.1c-.1 0-.1-.1-.2-.1 0-.1-.1-.1-.1-.2l-.1-.1c-.1 0-.1-.1-.1-.1v-.2l-.1-.1s0-.1-.1-.1l-.1-.1v-.2s-.1 0-.1-.1 0-.1-.1-.1l-.1-.1c-.1-.1 0 0 0-.1v-.1l-.1-.2-.1-.1-.1-.1c-.1-.4-.1-.8-.1-1.2v-7.6c0-.5 0-.9.1-1.2v-.4c0-.1 0-.2.1-.3v-.2h.1v-.1h.1v-.1s.1 0 .1-.1c0 .2.1.2.1.1 0 .1 0 .1 0 0zm.1.4c.1 0 .1-.1.1-.2s-.1-.1-.2-.1c0 .1-.1.1-.1.2.1.1.1.1.2.1zm.1 10.2v.1s.1 0 0 .1c.2 0 .3-.1.3-.3-.1-.1-.1-.1-.2 0s0 .1-.1.1zm.2-9.9c.1 0 .2 0 .2-.1s-.1-.2-.2-.1v.2zm.1 9.3l.1.1c0 .1.1.1.1.1h.2c.1.1.1.1.3.1.1 0 .2-.1.2-.2h-.3c-.1 0-.1-.1-.1-.2s-.1-.1-.1-.2-.1-.1-.2-.1v.3c-.2 0-.2.1-.2.1zm.2-1.8c0-.1 0-.2.1-.2 0-.1 0-.1-.1-.2h-.2c0 .3 0 .4.2.4zm-.1-3.4c.1.1.3.1.4 0 .1-.1.2-.2.2-.3h-.4c-.2 0-.2.1-.2.3zm.5-1c0-.2-.1-.2-.3-.2 0 .1 0 .2.1.2h.2zm-.1 6.9c0 .1 0 .1-.1.2v.2s-.1 0-.1-.1c0 0-.1 0-.1-.1 0 .2 0 .3.2.3.1 0 .3.1.3.2 0-.1 0-.2.1-.2v-.4c.1 0 .1-.1.1-.2l.2-.2c.1-.1.1-.2.1-.3h-.3c0 .2 0 .3-.1.3-.1.3-.2.3-.3.3zm-.3 1.2s.1.1 0 0c0 .1.1.1.1.1 0 .1.1.1.2.1h.3c0-.1 0-.2-.2-.3-.2 0-.3.1-.4.1zm.2-2.9c.1 0 .2 0 .2-.1-.1 0-.1 0-.1-.1s0-.1-.1-.1v.1s-.1.1 0 .2zm.2-1.9c0-.1 0-.1-.1-.1h-.2c.1.1.1.1.3.1zm7.6-7.1c.1 0 .1.1 0 0 .1.2.2.2.3.3.1.1.1.2.2.3.1.1.1.2.2.3.1.1.1.2.1.3v.2h.1v.6c.1.2.1.6.1 1v7.2c0 .5 0 .8-.1 1.1v.4h-.1v.2h-.1v.2h-.1v.2l-.1.1-.1.1-.1.2H24v.3s-.1 0-.1.1l-.1.1s0 .1-.1.2-.1.2-.2.2l-.2.2c-.1.1-.1.1-.2.1H23l-.1.1-.1.1s-.1 0-.1.1c0 0-.1 0-.1.1s-.1 0-.1.1l-.1.1s-.1 0-.1.1H22s-.1 0-.1.1c0 0-.1 0-.1.1s-.1 0-.1 0h-.2c-.1 0-.1.1-.2.1 0 0-.1 0-.2.1s-.1.1-.2.1-.2.1-.3.1-.2 0-.3.1h-.1c-.1 0-.3.1-.6.1h-1.7c-.1 0-.1-.1-.2-.1h-.3v-.1c-.1 0-.2-.1-.2-.1-.1 0-.1 0-.2-.1 0 0 0-.1-.1-.1h-.4c-.1 0-.1-.1-.1-.2.2-.1.4-.2.6-.2s.4 0 .6.1c.1 0 .1 0 .2.1.1 0 .1 0 .2.1h2.2c.2 0 .3-.1.5-.1s.3-.1.5-.2c.3-.1.6-.2.8-.3s.4-.2.7-.4c.3-.3.6-.7.9-1.2 0 0 .1-.1.1-.2 0 0 0-.1.1-.1l.1-.1s0-.1.1-.1l.1-.1v-.1c0-.1.1-.3.1-.5v-9.8c0-.2-.1-.3-.1-.5 0-.1 0-.3-.1-.4h.1v-.7zm-7.2 11.9h.4v-.2l.1-.1c-.1-.1-.2-.1-.4 0-.1 0-.2.1-.1.3zm.7.7c0-.1-.1-.1-.2-.1h-.4c0 .1.1.2.3.3.2 0 .3-.1.3-.2zm1.3-11.9h-.1l-.1.1-.1.1h-.2l-.1.1h-.1v.3h-.1v.1c0 .1-.1.1-.1.2s-.1.1-.1.2-.1.2-.1.3v.2c-.1.3-.1.7-.1 1.1v6.6c0 .2 0 .3.1.3v.1c0 .1.1.3.1.3 0 .1.1.2.2.3l.2.2h.1c.1.1.2.1.3.1h.9c.2 0 .3 0 .3-.1h.2c.1 0 .1 0 .2-.1l.1-.1s.1-.1.2-.1.1-.1.1-.1c.1-.2.2-.5.3-.8 0-.3.1-.6.1-1v-6.7c0-.2 0-.5-.1-.7 0-.2-.1-.2-.1-.3v-.2h-.1v-.1l-.2-.2-.2-.2h-.2v-.1h-.1c-.1 0-.2-.1-.4-.1H19c-.3.3-.4.3-.4.3zm-.6 12.1c0-.1 0-.1-.1-.2h-.2c0 .1 0 .2.1.2h.2zm1.8-11.3h-.7l-.3.3c-.1.1-.2.3-.2.5v.2c-.1.2-.1.5-.1.9v5.2c0 .7 0 1.2.1 1.8-.1 0-.2-.1-.3-.1s-.2-.1-.3-.1v-7.7c0-.1.1-.3.1-.5.1-.2.1-.3.2-.5 0-.1.1-.1.1-.2l.2-.2c.1-.1.2-.2.3-.2 0 0 .1 0 .1-.1 0 0 .1 0 .1-.1h.3c.1 0 .1.1.1.1 0 .1 0 .1.1.2 0 0 .1 0 .1.1 0 0 0 .1.1.1.1.3.1.3 0 .3zm.4 11.3c.1 0 .1 0 .1-.1s0-.1-.1-.1v.2zm1.2-12.4v.3c0 .1.1.1.2.1 0-.1.1-.1.1-.2s.1-.1.1-.2h-.4zm.2 2.8c.1 0 .1 0 .2.1 0 .1.1.1.2.1.1-.1.1-.2 0-.3l-.2-.2v.1l-.1.1c-.1.1-.1 0-.1.1 0-.1 0-.1 0 0zm.1-1.3c-.1.1 0 .1 0 .1.1 0 .1.1.2.1.2.1.3.1.5.1 0-.2-.1-.3-.3-.3h-.4zm.3 9.5c.2 0 .3 0 .3-.2-.1-.1-.2-.1-.3 0s0 0 0 .2zm.4-6c0-.3-.1-.4-.3-.4 0 .1 0 .2.1.3.1.1.1.1.2.1zm.1 1.3c0-.1 0-.1 0 0-.1-.1-.1-.1-.2-.1 0 0-.1 0-.1-.1h-.1c0 .1 0 .2.1.2h.3zm-.3-5.9h.5c0-.2 0-.3.1-.3.1-.1.1-.1 0-.2 0 0-.1-.1-.2-.1 0 .2 0 .3-.1.3s-.3.2-.3.3zm.1 3.5h.2c0-.2-.1-.3-.3-.3.1.2.1.3.1.3zm5.4-4.3l.1-.2s.1 0 .1-.1l.1-.1c0-.1.1-.2.2-.3l.3-.3v-.1h.1l.1-.1s0-.1.1-.1h.1l.2-.2c.1-.1.2-.1.3-.2l.6-.3c.2-.1.5-.1.8-.2h.2c.1 0 .3-.1.6-.1h.8c.1 0 .2 0 .3.1.1 0 .2.1.3.1s.2.1.3.1h.1s.1 0 .2.1h.1l.1.1h.3l.1.1h.1l.1.1c.1 0 .1 0 .2.1 0 0 .1 0 .1.1l.1.1h.1v.1h.2v.1h.2v.2c.1.1.2.1.3.2.1.1.2.2.2.3l.1.1.1.1s0 .1.1.1c0 0 0 .1.1.1l.1.1v.2H36v.5c0 .1.1.2.1.3v.3c.1.3.1.6.1 1v8.3c0 .1 0 .2-.1.3 0 .1 0 .2-.1.3 0 .1-.1.2-.1.3v.2s0 .1-.1.2l-.1.1v.3s0 .1-.1.1 0 0-.1.1h-.1l-.1.1v.2l-.2.2c-.1.1-.2.1-.2.1s-.1 0-.1.1-.1.1-.1.1h-.3s-.1 0-.1.1l-.1.1c-.1 0-.2.1-.3.1h-.1v.1h-.2s-.1.1-.2.1h-.1s-.1.1-.3.1c-.2 0-.3.1-.4.1-.5.1-1 .1-1.6.1-.6 0-1.1-.1-1.5-.3h-.3s-.1-.1-.2-.1c-.1-.1-.2-.1-.2-.1s-.1 0-.1-.1v-.1h-.1s-.1 0-.1-.1c0 0-.1 0-.1-.1l-.1-.1c-.1 0-.1-.1-.2-.1 0-.1-.1-.1-.1-.2l-.1-.1c-.1 0-.1-.1-.1-.1v-.2l-.1-.1s0-.1-.1-.1l-.1-.1v-.2s-.1 0-.1-.1 0-.1-.1-.1l-.1-.1c-.1-.1 0 0 0-.1v-.1l-.1-.2-.1-.1-.1-.1c-.1-.4-.1-.8-.1-1.2v-7.6c0-.5 0-.9.1-1.2v-.4c0-.1 0-.2.1-.3v-.2h.1v-.1h.1v-.1s.1 0 .1-.1c.4.2.4.2.4.1 0 .1 0 .1 0 0zm.1.4c.1 0 .1-.1.1-.2s-.1-.1-.2-.1c0 .1-.1.1-.1.2.1.1.1.1.2.1zm.2 10.2v.1s.1 0 0 .1c.2 0 .3-.1.3-.3-.1-.1-.1-.1-.2 0s0 .1-.1.1zm.1-9.9c.1 0 .2 0 .2-.1s-.1-.2-.2-.1v.2zm.1 9.3l.1.1c0 .1.1.1.1.1h.2c.1.1.1.1.3.1.1 0 .2-.1.2-.2h-.3c-.1 0-.1-.1-.1-.2s-.1-.1-.1-.2-.1-.1-.2-.1v.3c-.2 0-.2.1-.2.1zm.2-1.8c0-.1 0-.2.1-.2 0-.1 0-.1-.1-.2h-.2c0 .3.1.4.2.4zm-.1-3.4c.1.1.3.1.4 0 .1-.1.2-.2.2-.3h-.4c-.1 0-.2.1-.2.3zm.5-1c0-.2-.1-.2-.3-.2 0 .1 0 .2.1.2h.2zm-.1 6.9c0 .1 0 .1-.1.2v.2s-.1 0-.1-.1c0 0-.1 0-.1-.1 0 .2 0 .3.2.3.1 0 .3.1.3.2 0-.1 0-.2.1-.2v-.4c.1 0 .1-.1.1-.2l.2-.2c.1-.1.1-.2.1-.3h-.3c0 .2 0 .3-.1.3-.1.3-.2.3-.3.3zm-.3 1.2c.1 0 .1.1 0 0 0 .1.1.1.1.1 0 .1.1.1.2.1h.3c0-.1 0-.2-.2-.3-.1 0-.3.1-.4.1zm.2-2.9c.1 0 .2 0 .2-.1-.1 0-.1 0-.1-.1s0-.1-.1-.1v.3zm.2-1.9c0-.1 0-.1-.1-.1h-.2c.1.1.2.1.3.1zm7.6-7.1c.1 0 .1.1 0 0 .1.2.2.2.3.3.1.1.1.2.2.3.1.1.1.2.2.3.1.1.1.2.1.3v.2h.1v.6c.1.2.1.6.1 1v7.2c0 .5 0 .8-.1 1.1v.4h-.1v.2h-.1v.2H37v.2l-.1.1-.1.1-.1.2h-.1v.3s-.1 0-.1.1l-.1.1s0 .1-.1.2-.1.2-.2.2l-.2.2c-.1.1-.1.1-.2.1h-.1l-.1.1-.1.1s-.1 0-.1.1c0 0-.1 0-.1.1s-.1 0-.1.1l-.1-.3s-.1 0-.1.1h-.3s-.1 0-.1.1c0 0-.1 0-.1.1s-.1 0-.1 0h-.2c-.1 0-.1.1-.2.1 0 0-.1 0-.2.1s-.1.1-.2.1-.2.1-.3.1-.2 0-.3.1h-.1c-.1 0-.3.1-.6.1h-1.7c-.1 0-.1-.1-.2-.1H30v-.1c-.1 0-.2-.1-.2-.1-.1 0-.1 0-.2-.1 0 0 0-.1-.1-.1h-.4c-.1 0-.1-.1-.1-.2.2-.1.4-.2.6-.2s.4 0 .6.1c.1 0 .1 0 .2.1.1 0 .1 0 .2.1h2.2c.2 0 .3-.1.5-.1s.3-.1.5-.2c.3-.1.6-.2.8-.3s.4-.2.7-.4c.3-.3.6-.7.9-1.2 0 0 .1-.1.1-.2 0 0 0-.1.1-.1l.1-.1s0-.1.1-.1l.1-.1v-.1c0-.1.1-.3.1-.5v-9.8c0-.2-.1-.3-.1-.5 0-.1 0-.3-.1-.4h.1v-.3zm-7.2 11.9h.4v-.2l.1-.1c-.1-.1-.2-.1-.4 0-.1 0-.2.1-.1.3zm.8.7c0-.1-.1-.1-.2-.1h-.4c0 .1.1.2.3.3.1 0 .2-.1.3-.2zm1.2-11.9h-.1l-.1.1-.1.1h-.2l-.1.1h-.1v.3h-.1v.1c0 .1-.1.1-.1.2s-.1.1-.1.2-.1.2-.1.3v.2c-.1.3-.1.7-.1 1.1v6.6c0 .2 0 .3.1.3v.1c0 .1.1.3.1.3 0 .1.1.2.2.3l.2.2h.1c.1.1.2.1.3.1h.9c.2 0 .3 0 .3-.1h.2c.1 0 .1 0 .2-.1l.1-.1s.1-.1.2-.1.1-.1.1-.1c.1-.2.2-.5.3-.8 0-.3.1-.6.1-1v-6.7c0-.2 0-.5-.1-.7 0-.2-.1-.2-.1-.3v-.2h-.1v-.1l-.2-.2-.2-.2h-.2v-.1h-.1c-.1 0-.2-.1-.4-.1h-.4c-.2.3-.3.3-.4.3zm-.5 12.1c0-.1 0-.1-.1-.2h-.2c0 .1 0 .2.1.2h.2zm1.7-11.3h-.7l-.3.3c-.1.1-.2.3-.2.5v.2c-.1.2-.1.5-.1.9v5.2c0 .7 0 1.2.1 1.8-.1 0-.2-.1-.3-.1s-.2-.1-.3-.1v-7.7c0-.1.1-.3.1-.5.1-.2.1-.3.2-.5 0-.1.1-.1.1-.2l.2-.2c.1-.1.2-.2.3-.2 0 0 .1 0 .1-.1 0 0 .1 0 .1-.1h.3c.1 0 .1.1.1.1 0 .1 0 .1.1.2 0 0 .1 0 .1.1 0 0 0 .1.1.1.1.3.1.3 0 .3zm.4 11.3c.1 0 .1 0 .1-.1s0-.1-.1-.1v.2zm1.2-12.4v.3c0 .1.1.1.2.1 0-.1.1-.1.1-.2s.1-.1.1-.2H34zm.2 2.8c.1 0 .1 0 .2.1 0 .1.1.1.2.1.1-.1.1-.2 0-.3l-.2-.2v.1l-.1.1c-.1.1-.1 0-.1.1 0-.1 0-.1 0 0zm.1-1.3c-.1.1 0 .1 0 .1.1 0 .1.1.2.1.2.1.3.1.5.1 0-.2-.1-.3-.3-.3h-.4zm.3 9.5c.2 0 .3 0 .3-.2-.1-.1-.2-.1-.3 0s0 0 0 .2zm.4-6c0-.3-.1-.4-.3-.4 0 .1 0 .2.1.3.1.1.2.1.2.1zm.1 1.3c0-.1 0-.1 0 0-.1-.1-.1-.1-.2-.1 0 0-.1 0-.1-.1h-.1c0 .1 0 .2.1.2h.3zm-.3-5.9h.5c0-.2 0-.3.1-.3.1-.1.1-.1 0-.2 0 0-.1-.1-.2-.1 0 .2 0 .3-.1.3s-.3.2-.3.3zm.1 3.5h.2c0-.2-.1-.3-.3-.3.1.2.1.3.1.3zm5.2-6.2h4.6c.2 0 .4 0 .6.1h.3c.1 0 .1 0 .2.1 0 0 .1 0 .1.1.1 0 .1 0 .2.1.1 0 .1 0 .1.1h.1s.1 0 .2.1c.1 0 .1.1.2.1h.2s.1 0 .1.1l.1.1h.2v.2l.2.2c.1.1.2.1.2.2.1.1.1.2.2.2 0 .1.1.2.1.3l.1.1c.1.1 0 0 0 .1v.3h.1v.2s.1.1.1.3.1.3.1.4v8c0 .4 0 .7-.1 1v.5s0 .1-.1.2c0 .1 0 .1-.1.2s-.1.1-.1.2c0 0 0 .1-.1.1 0 .1-.1.1-.1.1s0 .1-.1.1h-.1v.1l-.1.1-.1.1-.1.1c0 .1-.1.1-.1.1l-.1.1c-.1 0-.1.1-.2.1 0 0-.1 0-.1.1h.2s-.1 0-.1.1c0 0 0 .1-.1.1h-.2v.1c0 .1 0 0 0 0-.1 0-.1.1-.2.1s-.1.1-.2.1H46s-.1 0-.2.1c0 0-.1 0-.2.1-.1 0-.2.1-.3.1h-.1c0 .1-.1.1-.2 0h-.2v.1H40v-15.3c0-.1.1-.2.1-.2zm.5 6.4h.3s.1.1.1.3c-.1 0-.3.1-.4.1-.1 0-.2.1-.2.3h.2c.1 0 .1-.1.2-.1h.2c.1 0 .1-.1.2-.1v-.3c0-.1 0-.2-.1-.3H41s0 .1-.1.1c0-.1-.1-.1-.2-.1h-.3c0-.1-.1-.2-.2-.2v.3c.3-.2.4-.1.4 0zm-.2 1.8c.1 0 .2 0 .2.1.1 0 .1.1.2.1s.1.1.2.1h.3c0-.1 0-.2-.1-.3l-.2-.2c-.1 0-.2-.1-.2-.1l-.2-.2c0 .1-.1.1-.1.1-.1.2-.1.3-.1.4zm.4-3.3v.2h.2c-.1 0-.1 0-.1.1h-.4v.1h.5c.1 0 .3-.1.4-.1v-.2l-.1-.1v-.2s0-.1-.1-.1l-.1-.1c.1 0 .1 0 .1-.1v-.2c-.1 0-.1-.1-.1-.1s0-.1-.1 0c0 .1-.1.2-.1.3-.1.3-.1.4-.1.5zm.4 4.6c.1 0 .1 0 .2-.1l.1-.1h-.4c-.1-.1-.1-.2-.2-.2-.1-.1-.1-.2-.1-.3 0 0-.1 0-.1-.1-.1-.1-.1 0-.1.1.1 0 .1.1.2.2 0 .1.1.1.1.2s.1.1.1.2.1.1.2.1zm7.7-6c.1 0 .1 0 0 0 .2.1.2.1.3.2.1.1.1.1.1.2l.2.2c.1 0 .1.1.1.2s.1.1.1.2v.3c.1.9.1 1.9 0 2.8v5.3s0 .1-.1.2v.2l-.1.1-.1.1v.2c0 .1 0 .1-.1.1h-.1l-.1.1-.1.1s0 .1-.1.1c0 .1-.1.1-.1.1-.1 0-.1.1-.1.1v.2h-.2c-.1.1-.2.3-.3.3l-.3.3s-.1.1-.2.1c0 0-.1 0-.1.1v.1h-.2v.1h-.2s-.1 0-.1.1c0 0-.1 0-.1.1-.4.2-.9.3-1.4.5-.3.1-.6.1-1.1.1H43c-.2 0-.5 0-.9.1h-.9c-.1 0-.2-.1-.2-.1l-.1-.1v-.2c.1 0 .1-.1.1-.2h3.4c.5 0 .9 0 1.2-.1h.2c.1 0 .1-.1.2-.1s.1 0 .2-.1h.1s.1 0 .1-.1c0 0 0-.1.1-.1 0 0 .1 0 .2-.1h.1s.1 0 .1-.1l.1-.1h.1c.1 0 .1 0 .1-.1l.1-.1.1-.1c.1-.1.2-.2.3-.2l.3-.3s0-.1.1-.1l.1-.1s0-.1.1-.1v-.1s0-.1.1-.1c0 0 .1 0 .1-.1v-.1h.2v-.2h.1v-.2h.1v-.3h.1v-.1.3l.1-.1s0-.1.1-.2c.1-.2.1-.5.1-1v-6.8c0-.4 0-.8-.1-1.2-.3 0-.3-.1-.3-.2zm-8 .2v-.4c-.1 0-.2 0-.2.1.1.2.1.3.2.3zm.2 3.7c0 .2.1.4.4.4 0-.1 0-.2-.1-.2s-.1-.1-.1-.2c-.1-.1-.2-.1-.2 0zm0 2.8c.2 0 .2-.1.2-.3h-.2c0 .1 0 .1-.1.1.1.1.1.1.1.2zm.3 1.1s-.1-.1 0 0c-.1-.1-.2-.1-.2-.1v.1l.1.1h.1v-.1zm-.1 1.6c0 .1 0 .1.1.1h.2v-.2c0-.1-.2.1-.3.1zm.9-11.9h.2s0-.1.1-.1c-.2-.1-.3 0-.3.1zm.8 1.8V119h1.6c.1 0 .3-.1.3-.1h.2v-.2l.2-.2c.1-.1.1-.1.1-.2.1-.2.1-.4.2-.7v-7c0-.2 0-.4-.1-.5v-.3c0-.1 0-.1-.1-.2 0-.1 0-.1-.1-.1l-.1-.1v-.2l-.2-.2c-.1-.1-.1-.1-.2-.1s-.1-.1-.2-.1h-.2c-.2-.1-.5-.1-.8-.1h-.8c.3-.1.2 0 .2.1zm2.1.7H44v8.9h-.2v-.1h-.1s-.1 0-.1-.1l-.1-.1s0-.1-.1-.1c0-.1-.1-.1-.1-.1s-.1 0-.1-.1v-8.9h.6c.2 0 .4 0 .5.1h.2v.1h.1l.1.1c.4.2.4.2.4.3.1 0 .1 0 0 0 .1 0 .1 0 0 0zm1.6-1.7c0 .1.1.2.2.2v-.2c-.1-.1-.1-.1-.2 0zm.8 5.9c0 .1-.1.1-.1.2-.1 0-.1.1-.2.2.1 0 .1.1.1.2-.1 0-.1 0-.1.1s0 .1-.1.1-.2 0-.2.1.1.2.2.3c.1.1.2.2.2.3.1 0 .2-.1.3-.1s.1 0 .2-.1l-.1-.1v-.2c-.1 0-.1-.1-.2-.1s-.1-.1-.1-.1c.1-.1.1-.2.1-.3.1 0 .2-.1.3-.2 0-.1.1-.2.1-.3-.1 0-.1 0-.1-.1l-.1-.1-.2.2c0-.1 0 0 0 0zm-.2 1.8c0 .1-.1.1-.1.1s-.1 0-.1.1c.1.1.2.2.4.1.1-.1.3-.1.5-.1 0-.1.1-.2.1-.2 0-.1.1-.2.1-.3 0-.1 0-.1-.1-.1 0 .1-.1.2-.2.3-.3 0-.5.1-.6.1zm0-7.2s-.1 0-.1-.1c-.1 0-.1 0-.1.1 0 0 .1.1.2 0 0 .1 0 .1 0 0zm-.2 3.9h.2v-.2h-.2v.2zm.2 4.8c.1 0 .2 0 .2-.1s.1-.1.1-.2 0-.1-.1-.2-.1-.1-.2-.1c0 .1 0 .2-.1.2 0 .3.1.4.1.4zm0-3.6c.2 0 .3 0 .2-.2v-.3h-.2s-.1.1-.1.2c.1.1.1.2.1.3zm.2 4.1h-.1v.2c.2 0 .3-.1.3-.3 0-.1-.1-.1-.2.1.1-.1 0 0 0 0zm11.3-9.6l.1-.2s.1 0 .1-.1l.1-.1c0-.1.1-.2.2-.3l.3-.3v-.1h.1l.1-.1s0-.1.1-.1h.1l.2-.2c.1-.1.2-.1.3-.2l.6-.3c.2-.1.5-.1.8-.2h.2c.1 0 .3-.1.6-.1h.8c.1 0 .2 0 .3.1.1 0 .2.1.3.1s.2.1.3.1h.1s.1 0 .2.1h.1l.1.1h.3l.1.1h.1l.1.1c.1 0 .1 0 .2.1 0 0 .1 0 .1.1l.1.1h.1v.1h.2v.1h.2v.2c.1.1.2.1.3.2.1.1.2.2.2.3l.1.1.1.1s0 .1.1.1c0 0 0 .1.1.1l.1.1v.2h.1v.2h.1v.3c0 .1.1.2.1.3v.3c.1.3.1.6.1 1v8.3c0 .1 0 .2-.1.3 0 .1 0 .2-.1.3 0 .1-.1.2-.1.3v.2s0 .1-.1.2l-.1.1v.3s0 .1-.1.1 0 0-.1.1H67l-.1.1v.2l-.2.2c-.1.1-.2.1-.2.1s-.1 0-.1.1-.1.1-.1.1H66s-.1 0-.1.1l-.1.1c-.1 0-.2.1-.3.1h-.1v.1h-.2s-.1.1-.2.1h-.1s-.1.1-.3.1c-.2 0-.3.1-.4.1-.5.1-1 .1-1.6.1-.6 0-1.1-.1-1.5-.3h-.3s-.1-.1-.2-.1c-.1-.1-.2-.1-.2-.1s-.1 0-.1-.1v-.1h-.1s-.1 0-.1-.1c0 0-.1 0-.1-.1l-.1-.1c-.1 0-.1-.1-.2-.1 0-.1-.1-.1-.1-.2l-.1-.1c-.1 0-.1-.1-.1-.1v-.2l-.1-.1s0-.1-.1-.1l-.1-.1v-.2s-.1 0-.1-.1 0-.1-.1-.1l-.1-.1c-.1-.1 0 0 0-.1v-.1l-.1-.2-.1-.1-.1-.1c-.1-.4-.1-.8-.1-1.2v-7.6c0-.5 0-.9.1-1.2v-.4c0-.1 0-.2.1-.3v-.2h.1v-.1h.1v-.1s.1 0 .1-.1c-.1.2-.1.2-.1.1 0 .1 0 .1 0 0zm.1.4c.1 0 .1-.1.1-.2s-.1-.1-.2-.1c0 .1-.1.1-.1.2.1.1.1.1.2.1zm.2 10.2v.1s.1 0 0 .1c.2 0 .3-.1.3-.3-.1-.1-.1-.1-.2 0s0 .1-.1.1zm.1-9.9c.1 0 .2 0 .2-.1s-.1-.2-.2-.1v.2zm.1 9.3l.1.1c0 .1.1.1.1.1h.2c.1.1.1.1.3.1.1 0 .2-.1.2-.2h-.3c-.1 0-.1-.1-.1-.2s-.1-.1-.1-.2-.1-.1-.2-.1v.3c-.2 0-.2.1-.2.1zm.3-1.8c0-.1 0-.2.1-.2 0-.1 0-.1-.1-.2h-.2c-.1.3 0 .4.2.4zm-.2-3.4c.1.1.3.1.4 0 .1-.1.2-.2.2-.3h-.4c-.1 0-.2.1-.2.3zm.5-1c0-.2-.1-.2-.3-.2 0 .1 0 .2.1.2h.2zm-.1 6.9c0 .1 0 .1-.1.2v.2s-.1 0-.1-.1c0 0-.1 0-.1-.1 0 .2 0 .3.2.3.1 0 .3.1.3.2 0-.1 0-.2.1-.2v-.4c.1 0 .1-.1.1-.2l.2-.2c.1-.1.1-.2.1-.3h-.3c0 .2 0 .3-.1.3 0 .3-.1.3-.3.3zm-.2 1.2s0 .1 0 0c0 .1.1.1.1.1 0 .1.1.1.2.1h.3c0-.1 0-.2-.2-.3-.2 0-.4.1-.4.1zm.1-2.9c.1 0 .2 0 .2-.1-.1 0-.1 0-.1-.1s0-.1-.1-.1v.3zm.3-1.9c0-.1 0-.1-.1-.1h-.2c0 .1.1.1.3.1zm7.6-7.1s0 .1 0 0c.1.2.2.2.3.3.1.1.1.2.2.3.1.1.1.2.2.3.1.1.1.2.1.3v.2h.1v.6c.1.2.1.6.1 1v7.2c0 .5 0 .8-.1 1.1v.4h-.1v.2h-.1v.2H68v.2l-.1.1-.1.1-.1.2h-.1v.3s-.1 0-.1.1l-.1.1s0 .1-.1.2-.1.2-.2.2l-.2.2c-.1.1-.1.1-.2.1h-.1l-.1.1-.1.1s-.1 0-.1.1c0 0-.1 0-.1.1s-.1 0-.1.1l-.1.1s-.1 0-.1.1h-.3s-.1 0-.1.1c0 0-.1 0-.1.1s-.1 0-.1 0h-.2c-.1 0-.1.1-.2.1 0 0-.1 0-.2.1s-.1.1-.2.1-.2.1-.3.1-.2 0-.3.1h.1c-.1 0-.3.1-.6.1h-1.7c-.1 0-.1-.1-.2-.1h-.3v-.1c-.1 0-.2-.1-.2-.1-.1 0-.1 0-.2-.1 0 0 0-.1-.1-.1h-.4c-.1 0-.1-.1-.1-.2.2-.1.4-.2.6-.2s.4 0 .6.1c.1 0 .1 0 .2.1.1 0 .1 0 .2.1H64c.2 0 .3-.1.5-.1s.3-.1.5-.2c.3-.1.6-.2.8-.3s.4-.2.7-.4c.3-.3.6-.7.9-1.2 0 0 .1-.1.1-.2 0 0 0-.1.1-.1l.1-.1s0-.1.1-.1l.1-.1v-.1c0-.1.1-.3.1-.5v-9.8c0-.2-.1-.3-.1-.5 0-.1 0-.3-.1-.4h.1v-.7zm-7.3 11.9h.4v-.2l.1-.1c-.1-.1-.2-.1-.4 0-.1 0-.1.1-.1.3zm.8.7c0-.1-.1-.1-.2-.1h-.4c0 .1.1.2.3.3.1 0 .2-.1.3-.2zm1.2-11.9h-.1l-.1.1-.1.1h-.2l-.1.1h-.1v.3h-.1v.1c0 .1-.1.1-.1.2s-.1.1-.1.2-.1.2-.1.3v.2c-.1.3-.1.7-.1 1.1v6.6c0 .2 0 .3.1.3v.1c0 .1.1.3.1.3 0 .1.1.2.2.3l.2.2h.1c.1.1.2.1.3.1h.9c.2 0 .3 0 .3-.1h.2c.1 0 .1 0 .2-.1l.1-.1s.1-.1.2-.1.1-.1.1-.1c.1-.2.2-.5.3-.8 0-.3.1-.6.1-1v-6.7c0-.2 0-.5-.1-.7 0-.2-.1-.2-.1-.3v-.2h-.1v-.1l-.2-.2-.2-.2h-.2v-.1h-.1c-.1 0-.2-.1-.4-.1h-.4c-.2.3-.3.3-.4.3zm-.5 12.1c0-.1 0-.1-.1-.2h-.2c0 .1 0 .2.1.2h.2zm1.8-11.3h-.7l-.3.3c-.1.1-.2.3-.2.5v.2c-.1.2-.1.5-.1.9v5.2c0 .7 0 1.2.1 1.8-.1 0-.2-.1-.3-.1s-.2-.1-.3-.1v-7.7c0-.1.1-.3.1-.5.1-.2.1-.3.2-.5 0-.1.1-.1.1-.2l.2-.2c.1-.1.2-.2.3-.2 0 0 .1 0 .1-.1 0 0 .1 0 .1-.1h.3c.1 0 .1.1.1.1 0 .1 0 .1.1.2 0 0 .1 0 .1.1 0 0 0 .1.1.1v.3zm.4 11.3c.1 0 .1 0 .1-.1s0-.1-.1-.1v.2zm1.1-12.4v.3c0 .1.1.1.2.1 0-.1.1-.1.1-.2s.1-.1.1-.2h-.4zm.2 2.8c.1 0 .1 0 .2.1 0 .1.1.1.2.1.1-.1.1-.2 0-.3l-.2-.2v.1l-.1.1c-.1.1-.1 0-.1.1 0-.1 0-.1 0 0zm.1-1.3c-.1.1 0 .1 0 .1.1 0 .1.1.2.1.2.1.3.1.5.1 0-.2-.1-.3-.3-.3h-.4zm.3 9.5c.2 0 .3 0 .3-.2-.1-.1-.2-.1-.3 0s0 0 0 .2zm.5-6c0-.3-.1-.4-.3-.4 0 .1 0 .2.1.3 0 .1.1.1.2.1zm0 1.3c0-.1 0-.1 0 0-.1-.1-.1-.1-.2-.1 0 0-.1 0-.1-.1h-.1c0 .1 0 .2.1.2h.3zm-.3-5.9h.5c0-.2 0-.3.1-.3.1-.1.1-.1 0-.2 0 0-.1-.1-.2-.1 0 .2 0 .3-.1.3s-.3.2-.3.3zm.1 3.5h.2c0-.2-.1-.3-.3-.3.1.2.1.3.1.3zm5.3-6.1h2.9c.1.2.1.5.1.7V119h4.1v2.6h-7.1v-15.3c-.1-.2-.1-.2 0-.2zm7.4 13h.2c.1.1.1.1.1.2s.1.1.1.2c0 0 0 .1.1.1 0 .1.1.1.1.1v2.6c-.1 0-.2 0-.2.1 0 0-.1.1-.2.1h-7.3c-.1 0-.2-.1-.3-.2.1-.2.3-.4.6-.4h6.8v-2.8zm-6.8.9h.1v-.2h-.2v.2zm.1-1.5h.3v-.2c0-.1 0-.1-.1-.1 0 .1-.1.1-.2.1s-.1.1 0 .2zm.2-1.1c.1 0 .2 0 .2-.1.1 0 .1-.1.2-.1h.1s.1 0 .1-.1c-.1-.1-.4-.2-.7-.2v.2c.1.2.1.2.1.3zm.2-9.5l.1-.1h.1v.2c.1 0 .1.1.1.2.1 0 .2 0 .2.1.1 0 .1.1.3 0 0-.1-.1-.2-.1-.3 0-.1-.1-.2-.2-.2v-.1s-.1 0-.1-.1v-.2c-.1-.1-.3-.1-.5-.1-.1.3 0 .5.1.6zm-.1.5c0 .2.1.3.3.3.1-.1.1-.1 0-.1s-.1-.1-.1-.2h-.1c.1 0 0 .1-.1 0zm.1 7.5c.1.1.1.1.2 0 .1 0 .1-.1.3 0v-.2c-.3 0-.5 0-.5.2zm.2-1.5h.1s0-.1.1-.1h-.2v.1zm.2 3.9h.3v-.3c-.1 0-.1 0-.2-.1s-.1 0-.2 0c-.1.1-.1.1 0 .2 0 .1 0 .1.1.2zm0-8.3s0-.1.1-.1c0-.1 0-.1-.1-.1 0 0 0 .1-.1.1 0 .1 0 .1.1.1zm.2 11c.2 0 .4-.1.5-.2h-.3c-.1 0-.2.1-.2.2zm.9-.4c.1 0 .1.1.1.1h.2v-.3c-.1 0-.2.1-.3.2zm1.5-2.2h-.5c-.1 0-.1 0-.1-.1v-12c.1-.1.1-.2.3-.3.1-.1.2-.1.3-.1 0 .1.1.1.1.2v12.1c-.1.1-.1.1-.1.2zm1.3 2.4c0 .1 0 .1 0 0 .1.1.2.1.2.1v-.2c0-.1 0-.1-.1-.1 0 .1 0 .1-.1.1v.1zm4.6-14.8h4.6c.2 0 .4 0 .6.1h.3c.1 0 .1 0 .2.1 0 0 .1 0 .1.1.1 0 .1 0 .2.1.1 0 .1 0 .1.1h.1s.1 0 .2.1c.1 0 .1.1.2.1h.2s.1 0 .1.1l.1.1h.2v.2l.2.2c.1.1.2.1.2.2.1.1.1.2.2.2 0 .1.1.2.1.3l.1.1c.1.1 0 0 0 .1v.3h.1v.2s.1.1.1.3c.1.1.1.3.1.4v8c0 .4 0 .7-.1 1v.5s0 .1-.1.2c0 .1 0 .1-.1.2s-.1.1-.1.2c0 0 0 .1-.1.1 0 .1-.1.1-.1.1s0 .1-.1.1h-.1v.1l-.1.1h.3l-.1.1c0 .1-.1.1-.1.1l-.1.1s-.1.1-.2.1c0 0-.1 0-.1.1h-.1s-.1 0-.1.1 0 .1-.1.1h-.2v.1c0 .1 0 0 0 0-.1 0-.1.1-.2.1s-.1.1-.2.1h-.2s-.1 0-.2.1c0 0-.1 0-.2.1-.1 0-.2.1-.3.1h-.1c0 .1-.1.1-.2 0s-.1 0-.2 0v.1h-4.9v-15.3c.1 0 .1-.1.1-.1zm.5 6.4h.3c.1 0 .1.1.1.3-.1 0-.3.1-.4.1-.1 0-.2.1-.2.3h.2c.1 0 .2-.1.2-.1h.2c.1 0 .1-.1.2-.1v-.3c0-.1 0-.2-.1-.3h-.1s0 .1-.1.1c0-.1-.1-.1-.2-.1h-.3c0-.1-.1-.2-.2-.2v.3c.3-.2.4-.1.4 0zm-.1 1.8c.1 0 .2 0 .2.1s.1.1.2.1.1.1.2.1h.3c0-.1 0-.2-.1-.3l-.2-.2c-.1 0-.2-.1-.2-.1-.1 0-.1-.1-.2-.2 0 .1-.1.1-.1.1-.1.2-.2.3-.1.4zm.3-3.3v.2h.2c-.1 0-.1 0-.1.1h-.4v.1h.5c.1 0 .3-.1.4-.1v-.2l-.1-.1v-.2s0-.1-.1-.1l-.1-.1c.1 0 .1 0 .1-.1v-.2c-.1 0-.1-.1-.1-.1s0-.1-.1 0c0 .1-.1.2-.1.3-.1.3-.1.4-.1.5zm.4 4.6c.1 0 .1 0 .2-.1l.1-.1h-.4c-.1-.1-.1-.2-.2-.2-.1-.1-.1-.2-.1-.3 0 0-.1 0-.1-.1-.1-.1-.1 0-.1.1.1 0 .1.1.2.2s.1.1.1.2.1.1.1.2.1.1.2.1zm7.7-6c.1 0 .1 0 0 0 .2.1.2.1.3.2.1.1.1.1.1.2l.2.2c.1 0 .1.1.1.2s.1.1.1.2v.3c.1.9.1 1.9 0 2.8s0 1.9 0 2.8v2.5s0 .1-.1.2v.2l-.1.1-.1.1v.2c0 .1 0 .1-.1.1h-.1l-.1.1-.1.1s0 .1-.1.1c0 .1-.1.1-.1.1-.1 0-.1.1-.1.1v.2h-.2c-.1.1-.2.3-.3.3l-.3.3s-.1.1-.2.1c0 0-.1 0-.1.1v.1h-.2v.1h-.2s-.1 0-.1.1c0 0-.1 0-.1.1-.4.2-.9.3-1.4.5-.3.1-.6.1-1.1.1h-1.5c-.2 0-.5 0-.9.1h-.9c-.1 0-.2-.1-.2-.1l-.1-.1v-.2s.1-.1.1-.2h3.5c.5 0 .9 0 1.2-.1h.2c.1 0 .1-.1.2-.1s.1 0 .2-.1h.1c.1 0 .1 0 .1-.1 0 0 0-.1.1-.1 0 0 .1 0 .2-.1s.1 0 .1 0 .1 0 .1-.1l.1-.1h.1c.1 0 .1 0 .1-.1l.1-.1.1-.1c.1-.1.2-.2.3-.2l.3-.3s0-.1.1-.1l.1-.1s0-.1.1-.1 0-.1 0-.1 0-.1.1-.1c0 0 .1 0 .1-.1v-.1h.2v-.7h.1v-.1.3l.1-.1s0-.1.1-.2c.1-.2.1-.5.1-1v-6.8c0-.4 0-.8-.1-1.2-.1 0-.2-.1-.2-.2zm-7.9.2v-.4c-.1 0-.2 0-.2.1s0 .3.2.3zm.1 3.7c0 .2.1.4.4.4 0-.1 0-.2-.1-.2s-.1-.1-.1-.2c-.1-.1-.2-.1-.2 0zm0 2.8c.2 0 .2-.1.2-.3h-.2c0 .1 0 .1-.1.1.1.1.1.1.1.2zm.3 1.1s0-.1 0 0c-.1-.1-.2-.1-.2-.1v.1l.1.1h.1v-.1zm-.1 1.6c0 .1 0 .1.1.1h.2v-.2c-.2 0-.2.1-.3.1zm.9-11.9h.2s0-.1.1-.1c-.2-.1-.3 0-.3.1zm.9 1.8V119h1.6c.1 0 .3-.1.3-.1h.2v-.2l.2-.2c.1-.1.1-.1.1-.2.1-.2.1-.4.2-.7v-7c0-.2 0-.4-.1-.5v-.3c0-.1 0-.1-.1-.2 0-.1 0-.1-.1-.1l-.1-.1v-.2l-.2-.2c-.1-.1-.1-.1-.2-.1s-.1-.1-.2-.1h-.2c-.2-.1-.5-.1-.8-.1h-.8c.2-.1.2 0 .2.1zm2.1.7h-1.1v8.9h-.2v-.1H85s-.1 0-.1-.1l-.1-.1s0-.1-.1-.1c0-.1-.1-.1-.1-.1s-.1 0-.1-.1v-8.9h.6c.2 0 .4 0 .5.1h.2v.1h.1l.1.1c.3.2.3.2.4.3zm1.5-1.7c0 .1.1.2.2.2v-.2c-.1-.1-.1-.1-.2 0zm.8 5.9c0 .1-.1.1-.1.2-.1 0-.1.1-.2.2.1 0 .1.1.1.2-.1 0-.1 0-.1.1s0 .1-.1.1-.2 0-.2.1.1.2.2.3c.1.1.2.2.2.3.1 0 .2-.1.3-.1.1 0 .1 0 .2-.1l-.1-.1v-.2c-.1 0-.1-.1-.2-.1s-.1-.1-.1-.1c.1-.1.1-.2.1-.3.1 0 .2-.1.3-.2 0-.1.1-.2.1-.3-.1 0-.1 0-.1-.1l-.1-.1-.2.2c0-.1 0 0 0 0zm-.2 1.8c0 .1-.1.1-.1.1-.1 0-.1 0-.1.1.1.1.2.2.4.1s.3-.1.5-.1c0-.1.1-.2.1-.2 0-.1.1-.2.1-.3 0-.1 0-.1-.1-.1 0 .1-.1.2-.2.3-.3 0-.5.1-.6.1zm0-7.2s-.1 0-.1-.1c-.1 0-.1 0-.1.1 0 0 .1.1.2 0 0 .1 0 .1 0 0zm-.2 3.9h.2v-.2h-.2v.2zm.2 4.8c.1 0 .2 0 .2-.1s.1-.1.1-.2 0-.1-.1-.2-.1-.1-.2-.1c0 .1 0 .2-.1.2s.1.4.1.4zm0-3.6c.2 0 .3 0 .2-.2v-.3h-.2s-.1.1-.1.2c.1.1.1.2.1.3zm.2 4.1h-.1v.2c.2 0 .3-.1.3-.3 0-.1-.1-.1-.2.1.1-.1.1 0 0 0zM99.8 106h5.3c.2 0 .5.1.8.2.3.1.6.2.8.3.1 0 .1.1.2.1l.1.1s.1 0 .1.1c0 0 0 .1.1.1 0 0 .1 0 .1.1 0 0 .1.1.2.1.1.1.2.1.2.1v.2l.1.1c.1 0 .1.1.1.1v.2h.1l.1.1c.1.2.3.5.3.9v.1c0 .1 0 .2.1.3s0 .3 0 .5v1.1c0 .2-.1.6-.1.9s-.1.7-.3.9c0 0 0 .1-.1.1v.2h-.2v.1s0 .1-.1.1l-.2.2c-.1.1-.2.1-.3.2.1.1.2.2.3.2.1 0 .2.1.3.2.2.2.3.4.4.7.1.3.2.6.2.9 0 .2 0 .3.1.6v1.4c0 .2 0 .4-.1.5 0 .1-.1.2-.1.4 0 .1-.1.2-.1.4v.2c-.1.1-.1.1-.1.2v.2l-.1.1-.1.1s0 .1-.1.1c0 .1-.1.1-.1.1s0 .1-.1.1 0 .1 0 .1c0 .1-.1.2-.2.3l-.3.3s-.1 0-.1.1v.1h-.4l-.1.1h-.3s-.1 0-.1.1c-.1 0-.1.1-.2.1s-.1 0-.2.1h-.1s-.1 0-.3.1h-.3c-.4.1-.8.1-1.3.1h-4.1v-15.3c.2 0 .2-.1.2-.1zm8.8 2.2c.1-.1.1-.1.2 0s.2.1.3 0v.1s.1 0 .1.1v.1l.1.1.1.1v.1l.1.1s0 .1.1.2v1.8c0 .6-.1 1.2-.3 1.7v.1c0 .1 0 .1-.1.1v.1s0 .1-.1.1v.2s0 .1-.1.1v.3h-.1l-.1.1-.1.1-.1.1c.1.1.2.3.3.3.1.1.2.2.3.4v.2l.1.1c.1.1 0 0 0 .1v.6c0 .2 0 .5.1.8s0 .6.1.9 0 .6 0 .9c0 .3 0 .6-.1.8 0 .1-.1.2-.1.3 0 .1-.1.2-.1.3v.3l-.1.1v.1c0 .1-.1.2-.1.3s-.1.2-.2.3c-.1.2-.3.4-.4.6-.1.2-.3.3-.4.5 0 0-.1.1-.3.2l-.1.1c-.1.1-.2.1-.4.2s-.3.2-.5.2c-.1 0-.2.1-.2.1-.1 0-.2 0-.3.1-.1 0-.1.1-.2.1s-.1 0-.2.1h-.1c-.1.1-.1.1-.3.1H100c-.1 0-.1 0-.1-.1v-.2c0-.1 0-.1.1-.1h.4c.1 0 .2-.1.3-.1.1 0 .2 0 .3-.1.4-.1.7-.1 1 0s.7 0 1 0h1.3c.4 0 .8 0 1.1-.1h.2c.1 0 .1-.1.2-.1 0 0 .1 0 .2-.1.1 0 .2-.1.3-.1.1 0 .2-.1.3-.1.1 0 .1 0 .2-.1 0-.1 0-.1.1-.1h.2v-.1h.2v-.2c.1 0 .2-.1.2-.1l.3-.3c.1-.1.2-.3.3-.4l.1-.1v-.2l.1-.1c.1-.1 0 0 0-.1s.1-.1.1-.2 0-.1.1-.2v-.1s0-.1.1-.3c0 0 .1 0 .1-.1v-.3c0-.1 0-.3.1-.4v-.8c0-.3 0-.6-.1-.9v-.8c0-.3-.1-.5-.1-.7-.1-.1-.1-.3-.2-.4l-.3-.3s-.1 0-.1-.1l-.1-.1c-.1 0-.1 0-.2-.1s-.1-.2-.2-.2c0-.1.1-.1.2-.2.1 0 .1-.1.2-.1l.1-.1.1-.1v-.2l.1-.1v-.2h.1v-.2l.1-.1c.1-.1.1-.1.1-.2v-.2c0-.1.1-.1.1-.2s0-.1.1-.2c0-.1 0-.2.1-.3 0-.1.1-.3.1-.4v-2.7s-.1-.1-.1-.3c0-.1-.1-.2-.1-.2.1.2 0 .2-.1.1zm-7.8 10.2h.2v-.1s0-.1-.1-.1c0 .1 0 .2-.1.2 0-.1-.1-.1 0 0zm0 .9h.1s0-.1.1-.1 0-.1 0-.1l-.1-.1v.2c-.1-.1-.1 0-.1.1zm0-1.5c.1.1.2 0 .2-.1s0-.2-.1-.2v.1c-.1.1-.1.1-.1.2zm.1-7.3s.1 0 0 0c.1 0 .1.1.1.1v.1l.1.1h.1c.1-.1.1-.1.3-.1v.1c.1 0 .1 0 .1.1s0 .1-.1.1l-.1.1h.3v-.5c-.1 0-.3 0-.4-.1-.1 0-.2-.1-.3-.1 0 0 0-.1-.1-.1h-.1s0-.1-.1-.1h-.1c.1 0 .1 0 .1.1s.2.1.2.2zm0-2.5h.1s0-.1.1-.1h-.2v.1zm.4 1.4h-.2c0 .1 0 .2.1.1 0 0 .1 0 .1-.1zm.1-1.4c0 .1 0 .2-.1.2s-.1.1-.1.2c.1 0 .3 0 .3-.1.1-.1.1-.2.2-.2h-.1c-.1-.1-.1-.1-.2-.1zm0 10.5c-.1 0-.2 0-.2.1h.3c.1-.1.1-.2.1-.2 0-.1 0-.1.1-.2-.1 0-.2 0-.2.1s-.1.2-.1.2zm-.2-9.6c.4.1.6-.1.6-.4-.1 0-.1 0-.2-.1 0 .1-.1.2-.2.2-.1.2-.1.2-.2.3zm0 1.2c.2 0 .3 0 .4-.1 0-.1.1-.2.2-.3-.1 0-.1-.1-.1-.2s0-.1-.1-.1c0 .2-.1.3-.2.4-.1.1-.1.2-.2.3zm.2 1.9c.1 0 .1-.1.1-.3 0-.2 0-.2-.1-.2 0 0-.1.1-.1.3s0 .2.1.2zm-.1-4.5h.2c0-.1 0-.1-.2-.1v.1zm.1 5h.2c0-.1-.1-.2-.2-.2v.2zm.7 5.1c0-.1 0-.2-.1-.2-.1-.1-.2 0-.3 0 .1 0 .1.1.1.1.1.1.2.1.3.1zm-.2-.9v-.1s.1 0 .1-.1c-.1 0-.1 0-.2.1l.1.1zm.5 3.2v.1c.1 0 .1 0 .1-.1s0 0-.1 0c.1 0 .1 0 0 0zm.4-.3c0-.1 0-.1-.1-.1s-.1 0-.1.1c0 0 .1 0 .1.1s.1-.1.1-.1zm1.7-7l.1-.1h.2l.1-.1c.1 0 .1-.1.1-.1s.1 0 .1-.1c0 0 0-.1.1-.1 0 0 .1 0 .1-.1s.1-.1.1-.2 0-.2.1-.2c.2-.5.2-1.1.1-1.6 0-.2-.1-.3-.1-.5-.1-.2-.2-.3-.2-.4-.1-.2-.2-.3-.4-.3-.1 0-.1-.1-.2-.1h-2v.2c.1.5.1 1.1 0 1.8s-.1 1.2 0 1.8v.3c0 .1.1.1.2.1s.1 0 .1-.1v-3.5c.1 0 .3 0 .4-.1h.3c.2 0 .3.1.4.2l.3.3s.1 0 .1.1.1.1 0 .1h-1v3.1h.5c.3-.3.4-.3.5-.4zm0 6.3h.3v-.1h.1l.1-.1h.1s.1 0 .1-.1c0 0 0-.1.1-.1l.1-.1s.1 0 .1-.1v-1.8c0-.1-.1-.2-.1-.3s0-.1-.1-.2l-.1-.1v-.3l-.1-.1-.1-.1s-.1 0-.1-.1v-.2H103v3.7h1c.1.2.3.2.5.1zm-1.5.5c0 .1 0 .1.2.1.1 0 .2-.1.1-.2h-.2c0 .1 0 .1-.1.1zm0-5.2h.2c.1 0 .1 0 .1-.1h-.3v.1zm.1 1.4c.3.1.5.2.8.3s.5.2.7.3c-.1.1-.1.1-.2.1h-.8v2.3h-.6c-.1-.4-.1-.9-.1-1.4s.2-1.1.2-1.6zm.5-1.5v.2h.2c.1 0 .1 0 .2-.1l.1-.1h-.5zm1.8-6.5h.2c0-.2 0-.2-.2-.2v.2zm.2 5c.1 0 .1 0 .2-.1 0-.1 0-.1.1-.2-.1 0-.1 0-.2.1s0 .2-.1.2zm.3 2.2h-.2c-.1 0-.1 0-.1.1.1.1.2.1.3.1h.3v.1s0 .1.1.1h.1c0-.1 0-.2-.1-.2-.2-.2-.3-.2-.4-.2zm.1-7.2h.1v-.2h-.2v.2zm.1.6h.2c.1 0 .1 0 0-.1h-.2v.1zm.2 3.1h.3c.1 0 .1-.1.1-.2-.1 0-.2.1-.3.1s-.1-.1-.1.1zm0-2.6c.3 0 .5-.1.5-.5h-.1l-.1-.1v.2l-.1.1-.1.1c-.1.1-.1.1-.1.2zm.4.5c-.1 0-.2 0-.2-.1s-.1-.1-.2-.1c0 .1 0 .2.1.3.1 0 .1.1.1.3.1 0 .2 0 .3-.1.1-.1.1-.2.1-.2s0-.1.1-.3 0-.2-.1-.2c0 .2-.1.3-.2.4zm.2.8c0 .1-.1.1-.1.1h-.1v.1h-.1v.3c0 .1.1.1.3.1l.1-.1-.1-.1c.1 0 .2-.1.2-.1s.1-.1.2-.1v-.3c0-.1 0-.1-.1-.1-.3 0-.3 0-.3.2zm-.4 9.6s.1-.1 0 0c.2-.1.1-.1.1-.2 0 .1 0 .1-.1.2zm.2-3.8v-.1s.1 0 .1-.1c-.1 0-.1 0-.2.1s0 0 .1.1zm.2-.5c.1-.1.1-.2 0-.3 0-.1-.1-.1-.2-.1v.3c.1.1.1.1.2.1zm.4 2.1c-.1-.1-.2-.1-.3-.1-.1 0-.2.1-.2.2h.3c.1 0 .2 0 .3-.1 0 .1 0 .2.1.2v-.4c0-.1 0-.2-.1-.3.1.3.1.4-.1.5zm-.1.9c-.1 0-.1 0-.1-.1h-.2c0 .1 0 .1.1.2.1 0 .2-.1.2-.1zm-.3-2h.2c0-.1-.1-.2-.2-.2v.2zm.2.6c.1 0 .2 0 .3-.1 0-.1 0-.2-.1-.2 0 .1-.1.1-.1.1-.1.1-.1.1-.1.2zm.2 1.1v-.2h-.2c0 .2 0 .2.2.2zm4.9-10.1l.1-.2s.1 0 .1-.1l.1-.1c0-.1.1-.2.2-.3l.3-.3v-.1h.1l.1-.1s0-.1.1-.1h.1l.2-.2c.1-.1.2-.1.3-.2l.6-.3c.2-.1.5-.1.8-.2h.2c.1 0 .3-.1.6-.1h.8c.1 0 .2 0 .3.1.1 0 .2.1.3.1.1 0 .2.1.3.1h.1c.1 0 .1 0 .2.1h.1l.1.1h.3l.1.1h.1l.1.1c.1 0 .1 0 .2.1 0 0 .1 0 .1.1s0 0 .1.1h.1v.1h.2v.1h.2v.2c.1.1.2.1.3.2.1.1.2.2.2.3l.1.1.1.1s0 .1.1.1c0 0 0 .1.1.1s0 0 .1.1v.2h.1v.2h.1v.3c0 .1.1.2.1.3v.3c.1.3.1.6.1 1v8.3c0 .1 0 .2-.1.3 0 .1 0 .2-.1.3 0 .1-.1.2-.1.3v.2s0 .1-.1.2l-.1.1v.3s0 .1-.1.1 0 0-.1.1h-.1l-.1.1v.2l-.2.2c-.1.1-.2.1-.2.1s-.1 0-.1.1-.1.1-.1.1h-.3s-.1 0-.1.1l-.1.1c-.1 0-.2.1-.3.1h-.1v.1h-.2s-.1.1-.2.1h-.1s-.1.1-.3.1c-.2 0-.3.1-.4.1-.5.1-1 .1-1.6.1-.6 0-1.1-.1-1.5-.3h-.3s-.1-.1-.2-.1c-.1-.1-.2-.1-.2-.1s-.1 0-.1-.1v-.1h-.1s-.1 0-.1-.1-.1 0-.1-.1l-.1-.1c-.1 0-.1-.1-.2-.1 0-.1-.1-.1-.1-.2l-.1-.1c-.1 0-.1-.1-.1-.1v-.2l-.1-.1s0-.1-.1-.1l-.1-.1v-.2s-.1 0-.1-.1 0-.1-.1-.1l-.1-.1c-.1-.1 0 0 0-.1v-.1l-.1-.2-.1-.1-.1-.1c-.1-.4-.1-.8-.1-1.2v-7.6c0-.5 0-.9.1-1.2v-.4c0-.1 0-.2.1-.3v-.2h.1v-.1h.1v-.1s.1 0 .1-.1c-.1.2-.1.2-.1.1 0 .1 0 .1 0 0zm.2.4c.1 0 .1-.1.1-.2s-.1-.1-.2-.1c0 .1-.1.1-.1.2s0 .1.2.1zm.1 10.2v.1s.1 0 0 .1c.2 0 .3-.1.3-.3-.1-.1-.1-.1-.2 0s0 .1-.1.1zm.1-9.9c.1 0 .2 0 .2-.1s-.1-.2-.2-.1v.2zm.1 9.3l.1.1c0 .1.1.1.1.1h.2c.1.1.1.1.3.1s.2-.1.2-.2h-.3c-.1 0-.1-.1-.1-.2s-.1-.1-.1-.2-.1-.1-.2-.1v.3c0 .1-.2.1-.2.1zm.3-1.8c0-.1 0-.2.1-.2 0-.1 0-.1-.1-.2h-.2c-.1.3 0 .4.2.4zm-.1-3.4c.1.1.3.1.4 0 .1-.1.2-.2.2-.3h-.4c-.1 0-.3.1-.2.3zm.4-1c0-.2-.1-.2-.3-.2 0 .1 0 .2.1.2h.2zm0 6.9c0 .1 0 .1-.1.2v.2s-.1 0-.1-.1-.1 0-.1-.1c0 .2 0 .3.2.3s.3.1.3.2c0-.1 0-.2.1-.2v-.4c.1 0 .1-.1.1-.2l.2-.2c.1-.1.1-.2.1-.3h-.3c0 .2 0 .3-.1.3-.1.3-.2.3-.3.3zm-.3 1.2s0 .1 0 0c0 .1.1.1.1.1 0 .1.1.1.2.1h.3c0-.1 0-.2-.2-.3-.2 0-.3.1-.4.1zm.1-2.9c.1 0 .2 0 .2-.1-.1 0-.1 0-.1-.1s0-.1-.1-.1v.3zm.3-1.9c0-.1 0-.1-.1-.1h-.2c0 .1.1.1.3.1zm7.6-7.1s0 .1 0 0c.1.2.2.2.3.3.1.1.1.2.2.3.1.1.1.2.2.3.1.1.1.2.1.3v.2h.1v.6c.1.2.1.6.1 1v7.2c0 .5 0 .8-.1 1.1v.4h-.1c-.1 0 0 0 0 0v.2h-.1v.2h-.1v.2l-.1.1-.1.1-.1.2h-.1v.3s-.1 0-.1.1l-.1.1s0 .1-.1.2-.1.2-.2.2l-.2.2c-.1.1-.1.1-.2.1h-.1l-.1.1-.1.1s-.1 0-.1.1c0 0-.1 0-.1.1 0 0-.1 0-.1.1l-.1.1s-.1 0-.1.1h-.3s-.1 0-.1.1-.1 0-.1.1h-.3c-.1 0-.1.1-.2.1 0 0-.1 0-.2.1-.1 0-.1.1-.2.1s-.2.1-.3.1c-.1 0-.2 0-.3.1h-.1c-.1 0-.3.1-.6.1h-1.7c-.1 0-.1-.1-.2-.1h-.3v-.1c-.1 0-.2-.1-.2-.1-.1 0-.1 0-.2-.1 0 0 0-.1-.1-.1h-.4c-.1 0-.1-.1-.1-.2.2-.1.4-.2.6-.2s.4 0 .6.1c.1 0 .1 0 .2.1.1 0 .1 0 .2.1h2.2c.2 0 .3-.1.5-.1s.3-.1.5-.2c.3-.1.6-.2.8-.3s.4-.2.7-.4c.3-.3.6-.7.9-1.2 0 0 .1-.1.1-.2 0 0 0-.1.1-.1s.1-.1.1-.1 0-.1.1-.1l.1-.1v-.1c0-.1.1-.3.1-.5v-9.8c0-.2-.1-.3-.1-.5 0-.1 0-.3-.1-.4h.1v-.7zm-7.3 11.9h.4v-.2l.1-.1c-.1-.1-.2-.1-.4 0-.1 0-.1.1-.1.3zm.8.7c0-.1-.1-.1-.2-.1h-.4c0 .1.1.2.3.3.1 0 .2-.1.3-.2zm1.2-11.9h-.1l-.1.1-.1.1h-.2l-.1.1h-.1c-.1 0 0 0 0 .1v.2h-.1c-.1 0 0 0 0 .1s-.1.1-.1.2-.1.1-.1.2-.1.2-.1.3v.2c-.1.3-.1.7-.1 1.1v6.6c0 .2 0 .3.1.3v.1c0 .1.1.3.1.3s.1.2.2.3l.2.2h.1c.1.1.2.1.3.1h.9c.2 0 .3 0 .3-.1h.2c.1 0 .1 0 .2-.1l.1-.1c.1 0 .1-.1.2-.1s.1-.1.1-.1c.1-.2.2-.5.3-.8s.1-.6.1-1v-6.7c0-.2 0-.5-.1-.7 0-.2-.1-.2-.1-.3v-.2h-.1v-.1l-.2-.2-.2-.2h-.2v-.1h-.1c-.1 0-.2-.1-.4-.1h-.4c-.2.3-.3.3-.4.3zm-.5 12.1c0-.1 0-.1-.1-.2h-.2c0 .1 0 .2.1.2h.2zm1.8-11.3h-.7l-.3.3c-.1.2-.2.3-.2.5v.2c-.1.2-.1.5-.1.9v5.2c0 .7 0 1.2.1 1.8-.1 0-.2-.1-.3-.1-.1 0-.2-.1-.3-.1v-7.7c0-.1.1-.3.1-.5s.1-.3.2-.5c0-.1.1-.1.1-.2l.2-.2c.1-.1.2-.2.3-.2 0 0 .1 0 .1-.1 0 0 .1 0 .1-.1h.3c.1 0 .1.1.1.1 0 .1 0 .1.1.2 0 0 .1 0 .1.1 0 0 0 .1.1.1v.3zm.4 11.3c.1 0 .1 0 .1-.1s0-.1-.1-.1v.2zm1.1-12.4v.3c0 .1.1.1.2.1 0-.1.1-.1.1-.2s.1-.1.1-.2h-.4zm.2 2.8c.1 0 .2 0 .2.1s.1.1.2.1c.1-.1.1-.2 0-.3l-.2-.2v.1l-.1.1c-.1.1-.1 0-.1.1s0-.1 0 0zm.1-1.3c-.1.1 0 .1 0 .1.1 0 .1.1.2.1.2.1.3.1.5.1 0-.2-.1-.3-.3-.3h-.4zm.3 9.5c.2 0 .3 0 .3-.2-.1-.1-.2-.1-.3 0v.2zm.5-6c0-.3-.1-.4-.3-.4 0 .1 0 .2.1.3 0 .1.1.1.2.1zm0 1.3c0-.1 0-.1 0 0-.1-.1-.1-.1-.2-.1 0 0-.1 0-.1-.1h-.1c0 .1 0 .2.1.2h.3zm-.3-5.9h.5c0-.2 0-.3.1-.3.1-.1.1-.1 0-.2 0 0-.1-.1-.2-.1 0 .2 0 .3-.1.3-.2.1-.3.2-.3.3zm.2 3.5h.2c0-.2-.1-.3-.3-.3 0 .2 0 .3.1.3zm3.8-6.2h3c.1.2.2.4.2.6.1.2.1.4.2.6 0 0 0 .1.1.1 0 0 0 .1.1.1.1.2.1.4.2.6s.1.4.2.6c0 0 0 .1.1.1s0 .1.1.2c.1.5.3 1 .5 1.6s.4 1.1.5 1.6c.1-.1.1-.2.1-.3 0-.1 0-.2.1-.4v-.2c0-.1.1-.2.1-.3 0-.1.1-.3.1-.4.2-.8.5-1.5.7-2.3.2-.8.5-1.6.7-2.3h3v.2c0 .1-.1.1-.1.2v.2c0 .1 0 .1-.1.2 0 0-.1.1-.1.2 0 0-.1.1-.1.2 0 0-.1.1-.1.2 0 0 0 .1-.1.2 0 0 0 .1-.1.2l-.1.2s0 .1-.1.2c0 0 0 .1-.1.2 0 0 0 .1-.1.2l-.1.1c0 .1-.1.1-.1.2s0 .1-.1.2c0 0-.1.1-.1.2s-.1.1-.1.2v.2s0 .1-.1.2c0 0 0 .1-.1.2v.5c0 .1 0 .1-.1.1 0 0 0 .1-.1.2 0 .1 0 .1-.1.2s0 .1-.1.2v.1l-.1.1-.1.1v.5c0 .1 0 .1-.1.1 0 0 0 .1-.1.2 0 .1 0 .1-.1.2 0 .1 0 .1-.1.2 0 .1 0 .1-.1.1s0 .1-.1.2c0 .1-.1.2-.1.3 0 .1-.1.2-.1.4l-.1.1c0 .1 0 .1-.1.1s0 .1-.1.2v.5l-.3.9c-.1.3-.2.7-.3 1 0 .1-.1.2-.1.3-.1.1-.1.2-.1.3v5.2h-3v-5c0-.1 0-.2-.1-.3s-.1-.2-.1-.3c-.2-.5-.3-.9-.5-1.4-.2-.5-.3-1-.5-1.5l-.5-1.4v-.2l-.1-.1s0-.1-.1-.2v-.3s0-.1-.1-.1c0-.1-.1-.2-.1-.3s0-.2-.1-.3v-.2l-.1-.1s-.1-.1-.1-.2-.1-.1-.1-.2-.1-.1-.1-.2c0 0-.1-.1-.1-.2l-.1-.2v-.2s0-.1-.1-.2v-.2c0-.1-.1-.1-.1-.2s-.1-.1-.1-.2-.1-.1-.1-.2-.1-.1-.1-.2c0 0 0-.1-.1-.1v-.5c0-.1 0-.1-.1-.1 0 0 0-.1-.1-.2s0-.1-.1-.2c0 0 0-.1-.1-.2v-.1l-.1-.1c-.1-.1 0 0 0-.1s-.1-.2-.1-.3c0 0-.1 0-.1-.1 1.4-.1 1.4-.2 1.4-.2zm1.6 2.4c-.1 0-.1-.1-.1-.2s-.1-.1-.2-.2c0 .1 0 .2.1.3 0 .2.1.2.2.1zm.1.9s.1-.1.1-.2 0-.2-.1-.1v.3zm.3.8v-.2s0-.1-.1-.1c0 .1 0 .2.1.3zm.1-1.1v.3c.1 0 .1 0 .1-.1v-.2c.1-.1.1-.3.1-.4h-.2s-.1-.1-.2 0v.2l.2.2zm.2-.7c0-.1 0-.1-.1-.1h-.2c0 .1 0 .1.1.2s.2 0 .2-.1zm.2 3.2h.2v-.2h-.2v.2zm.1 1.3s.1 0 .2.1c0-.1 0-.1.1-.1v-.2c-.2-.1-.3 0-.3.2zm.3-.4v-.2h-.1s-.1 0-.1.1c.1 0 .1 0 .2.1-.1 0-.1 0 0 0zm.4-2.6c.1 0 .2 0 .2-.2-.2 0-.2 0-.2.2zm.1-.4c.1-.1 0-.1-.1-.1s-.1 0-.1.1l.1.1h.1zm1.6 1.6l-.2-.2c0-.1 0-.2-.1-.3 0-.1-.1-.3-.2-.4v-.2s-.1-.1-.1-.2 0-.2-.1-.3v-.4c-.1 0-.1-.1-.1-.2s0-.2-.1-.3c0-.1 0-.2-.1-.3-.1-.2-.1-.4-.1-.5 0-.2-.1-.3-.2-.5v-.2c-.1-.1-.1-.1-.1-.2s0-.2-.1-.3v-.3l.1-.1c0-.1.1-.1.1-.1h.2v-.1c0-.1 0 0 0 0s.1 0 .1.1c.2.7.5 1.5.7 2.2.2.7.5 1.4.7 2.1-.1.3-.2.5-.4.7zm5.9-4.6v.4c0 .1-.1.2-.1.3l-.3.9c-.1.3-.2.6-.3 1-.2.4-.3.8-.5 1.3-.2.4-.3.9-.4 1.3-.1.2-.1.4-.2.6-.1.2-.2.4-.2.7-.1.3-.2.6-.3 1s-.2.6-.3 1c-.1.2-.1.4-.2.6-.1.2-.2.4-.2.7 0 .1-.1.2-.1.3 0 .1-.1.2-.1.3v6h-4c0-.1.1-.3.1-.4s.1-.2.2-.3c.4.1.9.1 1.4.1h1.4c.1 0 .1-.1.1-.1V117c0-.1 0-.2.1-.3s.1-.2.1-.3l.3-.9.3-.9v-.6l.1-.1.1-.2s0-.1.1-.2c0 0 0-.1.1-.2v-.2s0-.1.1-.2c0 0 0-.1.1-.2v-.4c0-.1.1-.1.1-.2s.1-.1.1-.2.1-.1.1-.2.1-.1.1-.2.1-.1.1-.2l.1-.1v-.4c0-.1 0-.1.1-.2s0-.1.1-.2c0-.1 0-.1.1-.1 0 0 0-.1.1-.2 0-.1 0-.1.1-.2 0 0 0-.1.1-.2s.1-.2.1-.3c0-.1 0-.1.1-.2 0 0 0-.1.1-.2 0-.1 0-.1.1-.2 0-.1 0-.1.1-.2v-.2l.1-.1v-.5c0-.1.1-.2.1-.3 0-.1.1-.2.1-.3v-.4c0-.1.1-.2.1-.3 0-.1.1-.2.1-.3.1-.1.1-.2.1-.3 0-.1.1-.2.2-.2h.3c.1 0-.3.6-.2.7zm-6.4 11.2c.1-.1.1-.1.1-.3h-.2v.2c-.1.1 0 .1.1.1zm.1 2.2c.1 0 .1-.1.1-.2s-.1-.1-.2-.1c0 .2 0 .3.1.3zm0-1.1c.1 0 .1.1.2.1s.1 0 .2-.1c-.1 0-.1-.1-.2-.1s-.2 0-.2.1zm.1.4c0 .1.1.2.2.2.1-.2 0-.2-.2-.2.1 0 .1 0 0 0zm.2-4c0 .1-.1.1 0 0-.1 0-.1 0-.1.1.1 0 .1.1.1.1 0 .1 0 .1.1.1 0-.1 0-.2.1-.2s.1-.1.1-.2h-.2c0 .1 0 .1-.1.1zm-.1.9c.1 0 .2 0 .2-.1s0-.2-.1-.2c-.1.1-.1.2-.1.3zm0 .4v.3h.3l.1.1c0 .1 0 .1.1.1 0-.1.1-.1.1-.1v-.2l-.1-.1-.1-.1-.1-.1v-.1s0-.1-.1 0c0 .2 0 .2-.2.2zm.2 1.9c0 .1.1.1.1.2.1 0 .1.1.2.1 0-.1 0-.1.1-.1v-.2c0-.1-.1-.1-.1-.1-.1 0-.1 0 0-.1 0 0 0-.1-.1-.1l-.1.1c-.1.1-.2.1-.1.2zm.2.9c0-.1.1-.1.1-.1.1 0 .1-.1 0-.1s-.2 0-.2.1 0 .1.1.1zm.1-1.6v-.1c0-.1 0-.1-.1-.1 0 0-.1.1-.1.2.1-.1.1 0 .2 0zm.1-3.2c0-.1.1-.1.1-.1.1 0 .1-.1 0-.2h-.2s-.1.1-.1.2c.1 0 .1.1.2.1zm.4-1s-.1-.1-.2-.1-.1 0-.1.1c0 0 .1.1.2.1 0 0 .1 0 .1-.1zm-.2 1.7h.2c0-.1-.1-.1-.2-.1v.1zm.3-1.3h.2c.1 0 .1 0 .1-.1-.2-.1-.2 0-.3.1zm.1-3.2c0 .2.1.3.2.2v-.3h-.1l-.1.1zm1.8-2.8h-.3c0 .1 0 .2.1.2.1-.1.2-.1.2-.2zm12.1-1.8v2.5h-.9c-.3 0-.7-.1-1-.1h-1c-.3 0-.6.1-.9.2h-.2v.1h-.1v.1h-.1v.1c-.1 0-.1.1-.2.1s-.1.1-.2.2v.2l-.2.2v.2h-.1v.4c0 .2 0 .3.1.4v.2l.1.1.1.2v.2s0 .1.1.1v.2h.2v.2h.2v.2l.2.2c.1.1.2.2.3.2.3.3.5.6.8.8l.7.7c.1.1.3.2.4.4.1.1.2.3.4.4l.2.2.2.2v.2l.1.1c.1 0 .1.1.1.1v.2h.2v.2h.1c.1 0 0 0 0 0v.2s0 .1.1.1 0 0 .1.1v.1l.1.1.1.1v.1l.1.1.1.1v.2l.1.1v.5c.1.1.1.2.1.3v.6c0 .2 0 .4-.1.6s0 .3-.1.4v.3c0 .1 0 .2-.1.3v.1c0 .1 0 .1-.1.2 0 .1-.1.1-.1.2-.1.2-.2.4-.2.5 0 0 0 .1-.1.1v.1l-.3.3-.3.3-.1.1s0 .1-.1.1h-.1v.1h-.2l-.1.1c-.1 0-.1.1-.2.1s-.2 0-.3.1c-.4.1-.8.2-1.4.3-.6.1-1.1.1-1.6.1-.2 0-.5-.1-.7-.1-.2 0-.5-.1-.7-.2-.1 0-.2 0-.2-.1-.1 0-.1 0-.2-.1h-.1l-.1-.1c-.1-.1 0-.1-.1-.1h-.1c-.1 0-.1-.1-.2-.1-.1-.1-.2-.1-.3-.1v-2.3c.3.1.6.1 1 .2.3.1.7.1 1 .2h1.5c.3 0 .5-.1.7-.2s.4-.2.6-.4l.2-.2c0-.1.1-.2.1-.3v-.2c.1-.1.1-.2-.1-.4s-.4-.3-.5-.5c-.1-.1-.1-.2-.2-.2l-.2-.2h-.2l-.1-.1c-.1-.1-.1-.1-.1-.2-.1-.1-.2-.1-.2-.2s-.1-.1-.2-.2h-.2l-.1-.1c-.1-.1-.1-.1-.2-.1l-.2-.2c-.1-.1-.1-.2-.2-.2l-.2-.2-.2-.2s0-.1-.1-.1l-.1-.1v-.2l-.1-.1s-.1 0-.1-.1v-.2l-.1-.1v-.2h-.2v-.2s0-.1-.1-.1c0-.1-.1-.1-.1-.2v-.1l-.1-.1-.1-.1c-.1-.1 0 0 0-.1v-.1c0-.1-.1-.1-.1-.1s0-.1-.1-.1l-.1-.1v-.2c-.1-.1-.1-.2-.2-.4-.1-.1-.1-.3-.2-.4l-.3-1.2c-.1-.5 0-1 .1-1.4v-.6l.1-.1c.1-.1 0 0 0-.1s.1-.1.1-.2 0-.1.1-.2l.1-.1.1-.1s0-.1.1-.1c0-.1.1-.1.1-.2s.1-.1.1-.2c.3-.3.6-.6 1-.8l.6-.3c.2-.1.4-.1.7-.2.3-.1.7-.1 1.2-.1h2.3c.6-.7.9-.7 1.2-.6zm-6.7 13.6c0 .1 0 .2.1.2s.2 0 .2.1v-.3h-.3zm7.6-1.6c.1 0 .2 0 .3.1.1 0 .2.1.2.1 0 .1.1.2.1.3v.5s0 .2-.1.3c0 .1-.1.2-.1.3 0 .1 0 .2-.1.3v.2l-.1.1-.1.1v.3h-.1c0 .1-.1.1-.1.1s0 .1-.1.2 0 .1 0 .1h-.1v.1l-.1.1-.1.1c-.1 0-.1.1-.1.2s-.1.1-.1.2h-.2s0 .1-.1.1c0 .1-.1.1-.1.1h-.1l-.1.1-.1.1c-.1.1-.3.2-.6.3-.2.1-.5.2-.7.2-.1 0-.2.1-.3.1-.1 0-.2 0-.3.1h-.3s-.1.1-.2.1h-.1s-.1.1-.2.1-.2 0-.3.1c-.1 0-.1.1-.1.1h-.3c-.1 0-.2 0-.2.1h-.9c-.3 0-.6-.1-1-.2l-.9-.3c.1-.2.3-.3.5-.3h.6c.2 0 .3 0 .5.1.2 0 .3.1.5.1h.8c.1 0 .2 0 .4-.1.1 0 .3-.1.4-.1h.2s.1 0 .1-.1l.9-.3c.3-.1.6-.2.9-.4.1 0 .1-.1.2-.1s.1-.1.2-.2c.1 0 .1 0 .1-.1 0 0 0-.1.1-.1l.1-.1s0-.1.1-.1 0-.1 0-.1 0-.1.1-.1.1 0 .1-.1v-.1l.1-.1.1-.1v-.2s0-.1.1-.2.1-.2.1-.2V118zm-7.1-6.8v-.2c0-.1 0-.1-.1-.1-.1.1-.1.1-.1.2s.1.1.2.1zm-.2-1.7c0 .1 0 .2.1.2s.1.1.2.1c0 0 .1-.1.1-.2v-.2h-.2c0 .1-.1.1-.2.1zm.4.6c0 .1 0 .2.1.3l.2.2c0 .1 0 .2.1.2s.1.1 0 .2c.2 0 .3-.1.3-.3 0-.1-.1-.2-.1-.2-.1 0-.1-.1-.1-.2s0-.1.1-.2c0-.1 0-.2-.1-.2 0 .1 0 .1-.1.2h-.4zm.2 1.3c.1 0 .1-.1 0-.1 0-.1-.1-.1-.2-.1 0 .1.1.2.2.2zm-.2 8.8v.1h.1s.1 0 .1-.1v-.1s-.1 0-.2.1zm0-11h.3c.1 0 .1 0 .2.1 0-.1 0-.2.1-.3.1-.1.1-.2.1-.2v-.2h-.2c-.1.1-.1.3-.2.4s-.2 0-.3.2zm.3.3h.2c.1 0 .1 0 .1-.1h-.2s-.1 0-.1.1zm.1 2.4c.1 0 .2 0 .2-.1s0-.1.1-.2h-.2c0 .1-.1.1-.1.1v.2zm.4.6h.2c0-.1 0-.2-.1-.2-.1.1-.1.1-.1.2zm.1 8c.1 0 .1 0 0 0 0-.2 0-.2.1-.3h-.2v.2c0 .1 0 .1.1.1zm.1-12.4h.2c0-.1 0-.2-.1-.2v.1s-.1 0-.1.1zm5.9-1.8c.1 0 .1 0 .1.1v3.1h-1.8c-.4 0-.9-.1-1.4-.1-.5 0-.9.1-1.2.3l-.2.2-.2.2c0 .1-.1.2-.1.3v.1c0 .1 0 .1-.1.2h-.2l-.1-.1v-.2l-.1-.1v-.2c0-.1 0-.1.1-.2 0-.1.1-.2.2-.3l.3-.3h.2c0-.1 0-.1.1-.1 0 0 .1-.1.2-.1s.1 0 .2-.1l.1-.1h.2c.2-.1.5-.1.7-.1h.9c.3 0 .6 0 .9.1h.8v-2.2c.1 0 .1-.1.1-.2.1 0 .1-.1.2-.1-.1 0 0-.1.1-.1zm-4.6-.1h.1v-.1h-.1v.1zm.2.3h.2c.1 0 .1 0 0-.1h-.2v.1zm.7 13.1h.2c0-.1 0-.1-.2-.1v.1zm.8-11.9c0-.1-.1-.1 0 0-.1-.1-.2-.1-.2-.1v.1s.1 0 .1.1h.1v-.1zm.3 11.1h.2s.1-.1.1-.2h-.2l-.1-.1v.3zm.6-.8h-.2l-.1.1-.1.1v.1s.1.1.2.1.1 0 .2.1h.2c0-.1 0-.2.1-.3 0-.1 0-.2-.2-.2h-.1zm-.3-1.8c.1 0 .2 0 .2-.2 0-.1-.1-.2-.2-.2v.4zm.4 1c0 .1-.1.1-.1.1s-.1.1 0 .2h.3c0-.1 0-.1.1-.2.1 0 .1-.1.1-.2l-.1-.1c-.1-.1-.1-.2-.1-.2s.1-.1.1-.2h-.2v.3c-.1.1-.1.2-.1.3zm.3-.6c.1-.1.1-.2 0-.3s-.2-.1-.3-.1c0 .1.1.2.1.2.1.1.1.2.2.2zm.1 1.3s.1-.1.1-.2 0-.2-.1-.2-.1.1-.1.2c-.1.2 0 .2.1.2zm.1-.7v-.2c0-.1 0-.1-.1-.1v.3c0 .1 0 0 .1 0zM49.4 134l1.1-6h1.7c.3 0 .5 0 .7.1s.4.1.6.2c.2.1.3.3.3.5 0 .1.1.2.1.4v.3c-.1.5-.2.8-.3 1.1-.1.2-.2.5-.5.6.2.1.3.3.3.5v.2c0 .2 0 .4-.1.8-.1.3-.2.6-.3.8-.1.2-.3.4-.5.5-.2.1-.4.2-.6.2s-.5.1-.7.1h-1.8zm1-.8h.8c.4 0 .6-.1.8-.2.2-.1.3-.3.3-.7v-.3c0-.2 0-.3-.1-.4-.1-.1-.4-.2-.7-.2h-.8l-.3 1.8zm.4-2.5h.8c.4 0 .6-.1.8-.2s.3-.4.3-.7v-.4c0-.2 0-.3-.1-.4-.1-.1-.4-.2-.7-.2h-.8l-.3 1.9zm3.4 3.3l1-6H57c.2 0 .4 0 .6.1.2.1.4.2.5.3s.3.3.3.6c0 .1.1.3.1.4v.4l-.1.4c-.1.7-.5 1.2-1.1 1.5l.5 2.2h-1l-.5-2h-1l-.4 2h-.7zm1.4-2.9h.9c.3 0 .6-.1.8-.3.2-.2.3-.4.4-.7l.1-.4v-.3c0-.2 0-.3-.1-.4-.1-.2-.3-.3-.7-.3h-1l-.4 2.4zM59 134l1-6h2.8l-.1.8h-1.9l-.3 1.8H62l-.1.8h-1.5l-.3 1.7H62l-.1.8H59zm4.8-6h.9l-.1 4.8 1.9-4.8h.8l.2 4.8 1.6-4.8h.9c-.3.7-.6 1.7-1.1 3s-.8 2.3-1.1 3h-1.1l-.2-3.9L65 134h-1.1c0-.8-.1-1.8-.1-3.2V128zm6.3 6l1-6h.9l-1 6h-.9zm2.4 0l1-6h.9l1.3 4.2.7-4.2h.9l-1 6h-1.1l-1.2-3.9-.7 3.9h-.8zm5.5-1.5l.5-2.8c.1-.3.1-.6.2-.8s.2-.4.4-.5.3-.2.5-.3c.2-.1.4-.1.6-.1h.6c.3 0 .5 0 .8.1s.4.1.6.2.3.3.4.5v.8h-.9v-.3c0-.2 0-.3-.1-.4-.1-.1-.4-.2-.8-.2s-.8.1-.9.2c-.2.1-.3.4-.3.8l-.4 2.5v.3c0 .2 0 .3.1.4.1.2.4.2.8.2.7 0 1.1-.3 1.2-1l.1-.7h-.6l.1-.7h1.5l-.5 3.1h-.4l-.1-.4c-.1.1-.2.2-.4.3-.1.1-.3.1-.4.1h-1.4c-.2 0-.3-.1-.5-.1-.2-.1-.3-.2-.4-.3-.1-.1-.2-.3-.2-.4v-.3c-.1.1-.1-.1-.1-.2zm8-.4v-.2c0-.3 0-.5.1-.9.1-.5.2-1 .4-1.4s.4-.7.6-.9.4-.4.7-.5.5-.2.7-.3.4-.1.6-.1h.8l-.1.8h-.5c-.6 0-1.1.2-1.5.6s-.6.9-.7 1.7c0 .3-.1.5-.1.7 0 1 .5 1.5 1.6 1.5h.4l-.1.8h-.6c-.2 0-.4 0-.6-.1s-.4-.1-.6-.2-.3-.2-.5-.4-.2-.3-.3-.6-.3-.2-.3-.5zm4.1.4l.5-3.1c.1-.5.3-.9.7-1.1s.9-.4 1.5-.4 1.1.1 1.3.4c.2.2.3.5.3.8v.3l-.5 3.1c-.1.3-.1.5-.3.7-.1.2-.3.4-.5.5-.2.1-.4.2-.6.2-.2 0-.5.1-.7.1-.2 0-.5 0-.7-.1-.2 0-.4-.1-.6-.2-.2-.1-.3-.3-.4-.5 0-.1-.1-.2-.1-.4.1 0 .1-.2.1-.3zm.9-.2v.3c0 .2 0 .3.1.4.1.1.4.2.7.2.4 0 .6-.1.8-.2.2-.1.3-.3.3-.6l.5-2.9v-.2c0-.2 0-.3-.1-.4-.1-.1-.4-.2-.7-.2-.3 0-.6.1-.8.2-.2.1-.3.3-.3.6l-.5 2.8zm4.2 1.7l.2-.8h.9l-.2.8h-.9zm-1.3-87.2c1 .1 2.1 1.9 2.4 2.7.4.8.5 2 .7 2.9.5 2.4.5 4.8-.4 7.2-.9 2.1-2.2 4-1.3 6.3.8 2.3 2.4 4.1 2.9 6.6.8 3.9 1.1 4.8.6 1.2-.2-1.4-.5-2.9-1.1-4.2-.9-2.2-2.6-3.8-2.1-6.4.3-1.6 1.3-2.8 1.8-4.3.6-1.9.5-3.9.2-5.8-.4-2.2-.8-6.1-3.5-6.3-.3-.2-.5.1-.2.1zm.6 34.4c-.4-3.8-3.2-4.8-3.2-4.8 1.1 1.1 1.7 4.4-.2 4.6-2.2.1-3.6-.9-5.7-2.2-2.8-1.7-5.6-4.8-9.7-2.9-1.5.6-2.8 1.6-2.8 1.6s-1.4-1-2.8-1.6c-4-2-6.9 1.1-9.7 2.9-2.1 1.3-3.6 2.3-5.7 2.2-1.9-.2-1.3-3.5-.2-4.6 0 0-2.8.9-3.2 4.8-.2 2.2 1.4 3.7 3.2 3.9 1.8.2 3.5.3 6.4-.7 10-3.4 12.1-.5 12.1-.6 0 .1 2-2.8 12.1.6 2.8.9 4.6.9 6.4.7 1.5-.2 3.2-1.7 3-3.9z"/><circle cx="88.7" cy="52.5" r="8.3"/><defs><circle id="SVGID_1_" cx="88.7" cy="52.5" r="7.6"/></defs><clipPath id="SVGID_2_"><use xlink:href="#SVGID_1_" overflow="visible"/></clipPath><g class="st0"><path class="st1" d="M88.7 69.5l11.7-24.4h.1zm-1.4-1.2h-.1l11.6-24.2h.2zm-1.4-1.1l-.2-.1 11.6-24 .1.1zM84.4 66l-.2-.1 11.5-23.8.2.1z"/><path transform="rotate(-64.298 88.552 52.974)" class="st1" d="M75.4 52.8h26.2v.4H75.4z"/><path transform="rotate(-64.304 87.047 51.901)" class="st1" d="M74 51.7h26v.4H74z"/><path transform="rotate(-64.304 85.545 50.825)" class="st1" d="M72.6 50.6h25.8v.5H72.6z"/><path transform="rotate(-64.309 84.037 49.752)" class="st1" d="M71.2 49.5h25.6v.6H71.2z"/><path transform="rotate(-64.311 82.522 48.672)" class="st1" d="M69.8 48.3h25.4v.7H69.8z"/></g><path d="M72.8 38.3H39.2s-15.4.2-5.9-3 8.3-1.2 8.3-1.2S39.3-.5 70.6 0H75c31.3-.5 29 34.1 29 34.1s-1.2-2.1 8.3 1.2-5.9 3-5.9 3H72.8"/><path class="st2" d="M5.2 97h.2"/><path class="st3" d="M6.9 97h132.6"/><path class="st2" d="M140.3 97h.2"/></svg>